<svg xmlns="http://www.w3.org/2000/svg" xmlns:xlink="http://www.w3.org/1999/xlink" viewBox="0 0 30 30" fill="#5E5C5C">
  <path d="M9 3 A 1.0001 1.0001 0 1 0 9 5L21 5 A 1.0001 1.0001 0 1 0 21 3L9 3 z M 6 7 A 1.0001 1.0001 0 1 0 6 9L6 27L12 27L12 22L18 22L18 27L24 27L24 9 A 1.0001 1.0001 0 1 0 24 7L6 7 z M 8 10L10 10L10 12L8 12L8 10 z M 12 10L14 10L14 12L12 12L12 10 z M 16 10L18 10L18 12L16 12L16 10 z M 20 10L22 10L22 12L20 12L20 10 z M 8 14L10 14L10 16L8 16L8 14 z M 12 14L14 14L14 16L12 16L12 14 z M 16 14L18 14L18 16L16 16L16 14 z M 20 14L22 14L22 16L20 16L20 14 z M 8 18L10 18L10 20L8 20L8 18 z M 12 18L14 18L14 20L12 20L12 18 z M 16 18L18 18L18 20L16 20L16 18 z M 20 18L22 18L22 20L20 20L20 18 z M 8 22L10 22L10 24L8 24L8 22 z M 20 22L22 22L22 24L20 24L20 22 z" fill="#5E5C5C" />
</svg>