<svg xmlns="http://www.w3.org/2000/svg" xmlns:xlink="http://www.w3.org/1999/xlink" width="16" height="16" viewBox="0 0 16 16">
  <defs>
    <clipPath id="clip-path">
      <rect id="Rectangle_19115" data-name="Rectangle 19115" width="16" height="16" transform="translate(629 1947)" fill="#4bbef7" stroke="#707070" stroke-width="1"/>
    </clipPath>
  </defs>
  <g id="Mask_Group_600" data-name="Mask Group 600" transform="translate(-629 -1947)" clip-path="url(#clip-path)">
    <path id="icons8_air_conditioner_1" d="M2.286,2.286A1.714,1.714,0,0,0,.571,4V8.571A.571.571,0,0,0,.6,8.752l.311.932a1.718,1.718,0,0,0,1.626,1.173h2.6a.571.571,0,1,0,0-1.143h-2.6A.568.568,0,0,1,2,9.324l-.25-.752H15.4l-.25.751a.568.568,0,0,1-.542.392H12a.571.571,0,1,0,0,1.143h2.6a1.719,1.719,0,0,0,1.627-1.173h0l.311-.937a.571.571,0,0,0,.029-.174s0,0,0-.006V4a1.714,1.714,0,0,0-1.714-1.714Zm10.286,4A.571.571,0,1,1,12,6.857.572.572,0,0,1,12.571,6.286Zm2.286,0a.571.571,0,1,1-.571.571A.572.572,0,0,1,14.857,6.286ZM7.429,9.714A.571.571,0,1,0,8,10.286.571.571,0,0,0,7.429,9.714Zm2.286,0a.571.571,0,1,0,.571.571A.571.571,0,0,0,9.714,9.714ZM6.286,12a.571.571,0,1,0,.571.571A.571.571,0,0,0,6.286,12Zm2.286,0a.571.571,0,1,0,.571.571A.571.571,0,0,0,8.571,12Zm2.286,0a.571.571,0,1,0,.571.571A.571.571,0,0,0,10.857,12ZM5.143,14.286a.571.571,0,1,0,.571.571A.571.571,0,0,0,5.143,14.286Zm2.286,0A.571.571,0,1,0,8,14.857.571.571,0,0,0,7.429,14.286Zm2.286,0a.571.571,0,1,0,.571.571A.571.571,0,0,0,9.714,14.286Zm2.286,0a.571.571,0,1,0,.571.571A.571.571,0,0,0,12,14.286Z" transform="translate(628.428 1946.143)" fill="#4bbef7"/>
  </g>
</svg>
