<svg xmlns="http://www.w3.org/2000/svg" xmlns:xlink="http://www.w3.org/1999/xlink" width="246" height="246" viewBox="0 0 246 246">
  <defs>
    <style>
      .cls-1, .cls-3 {
        fill: #0d0d0d;
      }

      .cls-1 {
        stroke: #1b2d49;
      }

      .cls-2 {
        clip-path: url(#clip-path);
      }
    </style>
    <clipPath id="clip-path">
      <rect id="Rectangle_18414" data-name="Rectangle 18414" class="cls-1" width="246" height="246" transform="translate(1040 832.204)"/>
    </clipPath>
  </defs>
  <g id="Mask_Group_372" data-name="Mask Group 372" class="cls-2" transform="translate(-1040 -832.204)">
    <path id="icons8_apple_logo" class="cls-3" d="M165.17,1.2c-14.194.825-30.488,8.732-40.176,18.8-8.752,9.159-15.657,22.761-12.838,35.921,15.425.406,30.906-7.706,40.175-17.96C160.985,28.372,167.546,14.987,165.17,1.2Zm.842,54.7c-22.269,0-31.58,13.681-47,13.681-15.868,0-30.373-12.815-49.577-12.815C43.308,56.776,3.6,80.974,3.6,137.981c0,51.862,47,109.421,73.524,109.421,16.114.16,20.02-10.131,41.883-10.242,21.887-.16,26.611,10.377,42.749,10.242,18.17-.135,32.36-20.1,42.725-35.921,7.435-11.325,10.492-17.107,16.253-29.91-42.753-10.833-51.259-79.777,0-94.032C211.058,71.031,182.815,55.9,166.012,55.9Z" transform="translate(1050.935 830.808)"/>
  </g>
</svg>
