<svg xmlns="http://www.w3.org/2000/svg" xmlns:xlink="http://www.w3.org/1999/xlink" width="103" height="103" viewBox="0 0 103 103">
  <defs>
    <clipPath id="clip-path">
      <rect id="Rectangle_18286" data-name="Rectangle 18286" width="103" height="103" transform="translate(1182 789.427)" fill="#46494c"/>
    </clipPath>
  </defs>
  <g id="Mask_Group_331" data-name="Mask Group 331" transform="translate(-1182 -789.427)" clip-path="url(#clip-path)">
    <path id="icons8_apple_logo" d="M71.473,1.2A27.6,27.6,0,0,0,54.6,9.1c-3.677,3.847-6.577,9.562-5.393,15.09,6.48.171,12.983-3.237,16.877-7.545C69.715,12.615,72.471,6.992,71.473,1.2Zm.354,22.978c-9.355,0-13.266,5.747-19.746,5.747-6.666,0-12.759-5.383-20.827-5.383C20.281,24.547,3.6,34.712,3.6,58.66c0,21.787,19.742,45.966,30.886,45.966,6.769.067,8.41-4.256,17.595-4.3,9.195-.067,11.179,4.359,17.958,4.3,7.633-.057,13.594-8.445,17.948-15.09a74.72,74.72,0,0,0,6.828-12.565c-17.96-4.551-21.533-33.513,0-39.5C90.75,30.535,78.886,24.178,71.827,24.178Z" transform="translate(1184.506 787.803)" fill="#46494c"/>
  </g>
</svg>
