<svg xmlns="http://www.w3.org/2000/svg" xmlns:xlink="http://www.w3.org/1999/xlink" width="275.759" height="275.759" viewBox="0 0 275.759 275.759">
  <defs>
    <clipPath id="clip-path">
      <rect id="Rectangle_18798" data-name="Rectangle 18798" width="275.759" height="275.759" fill="#29caa0" stroke="#707070" stroke-width="1"/>
    </clipPath>
  </defs>
  <g id="Mask_Group_521" data-name="Mask Group 521" clip-path="url(#clip-path)">
    <path id="icons8_future" d="M244.138,60.464V17.976a17.619,17.619,0,1,0-35.238,0v9.613a134.8,134.8,0,1,0,35.238,32.876ZM135.762,264.094A123.334,123.334,0,1,1,220.646,51.379v-33.4a5.873,5.873,0,0,1,11.746,0V71.889H178.479a5.873,5.873,0,1,1,0-11.746h34.344A111.525,111.525,0,1,0,247.35,140.76a115.324,115.324,0,0,0-12.2-51.3l10.507-5.254A126.892,126.892,0,0,1,259.1,140.76,123.469,123.469,0,0,1,135.762,264.094Zm11.746-123.059a11.728,11.728,0,0,1-.436,3.005L186.9,183.867l-8.3,8.3-39.827-39.826a11.693,11.693,0,0,1-8.878-21.428V47.066h11.746v83.852A11.677,11.677,0,0,1,147.508,141.035Z" transform="translate(2.117 -0.357)" fill="#29caa0"/>
  </g>
</svg>
