<svg xmlns="http://www.w3.org/2000/svg" xmlns:xlink="http://www.w3.org/1999/xlink" width="16" height="16" viewBox="0 0 16 16">
  <defs>
    <clipPath id="clip-path">
      <rect id="Rectangle_19098" data-name="Rectangle 19098" width="16" height="16" transform="translate(1017 1166)" fill="#2bca7a" stroke="#707070" stroke-width="1"/>
    </clipPath>
  </defs>
  <g id="Mask_Group_594" data-name="Mask Group 594" transform="translate(-1017 -1166)" clip-path="url(#clip-path)">
    <path id="icons8_shower" d="M7.333,0V2.708A4.452,4.452,0,0,0,3.4,6H12.6A4.452,4.452,0,0,0,8.667,2.708V0ZM2.667,6.667V8H13.333V6.667ZM5.333,9.333A.667.667,0,1,0,6,10,.668.668,0,0,0,5.333,9.333ZM8,9.333A.667.667,0,1,0,8.667,10,.668.668,0,0,0,8,9.333Zm2.667,0a.667.667,0,1,0,.667.667A.668.668,0,0,0,10.667,9.333ZM4,12a.667.667,0,1,0,.667.667A.668.668,0,0,0,4,12Zm2.667,0a.667.667,0,1,0,.667.667A.668.668,0,0,0,6.667,12Zm2.667,0a.667.667,0,1,0,.667.667A.668.668,0,0,0,9.333,12ZM12,12a.667.667,0,1,0,.667.667A.668.668,0,0,0,12,12ZM2.667,14.667a.667.667,0,1,0,.667.667A.668.668,0,0,0,2.667,14.667Zm2.667,0A.667.667,0,1,0,6,15.333.668.668,0,0,0,5.333,14.667Zm2.667,0a.667.667,0,1,0,.667.667A.668.668,0,0,0,8,14.667Zm2.667,0a.667.667,0,1,0,.667.667A.668.668,0,0,0,10.667,14.667Zm2.667,0a.667.667,0,1,0,.667.667A.668.668,0,0,0,13.333,14.667Z" transform="translate(1017 1166)" fill="#2bca7a"/>
  </g>
</svg>
