<svg xmlns="http://www.w3.org/2000/svg" xmlns:xlink="http://www.w3.org/1999/xlink" width="24" height="24" viewBox="0 0 24 24">
  <defs>
    <clipPath id="clip-path">
      <rect id="Rectangle_19297" data-name="Rectangle 19297" width="24" height="24" fill="#46494c" stroke="#707070" stroke-width="1"/>
    </clipPath>
  </defs>
  <g id="Mask_Group_688" data-name="Mask Group 688" clip-path="url(#clip-path)">
    <path id="icons8_bathtub" d="M2.88,0a2.841,2.841,0,0,1,2.5,1.44c-.036,0-.069,0-.1,0a3.345,3.345,0,0,0-.975.15A1.922,1.922,0,0,0,.96,2.88V9.12H0V2.88A2.85,2.85,0,0,1,2.88,0Zm2.4,2.4a2.4,2.4,0,0,1,2.4,2.4.48.48,0,0,1-.48.48H3.36a.48.48,0,0,1-.48-.48A2.4,2.4,0,0,1,5.28,2.4ZM6.72,5.76a.48.48,0,1,1-.48.48A.481.481,0,0,1,6.72,5.76Zm-1.44,0a.48.48,0,1,1-.48.48A.481.481,0,0,1,5.28,5.76Zm-1.44,0a.48.48,0,1,1-.48.48A.481.481,0,0,1,3.84,5.76ZM7.2,7.2a.48.48,0,1,1-.48.48A.481.481,0,0,1,7.2,7.2Zm-1.92,0a.48.48,0,1,1-.48.48A.481.481,0,0,1,5.28,7.2Zm-1.92,0a.48.48,0,1,1-.48.48A.481.481,0,0,1,3.36,7.2ZM7.68,8.64a.48.48,0,1,1-.48.48A.481.481,0,0,1,7.68,8.64Zm-2.4,0a.48.48,0,1,1-.48.48A.481.481,0,0,1,5.28,8.64Zm-2.4,0a.48.48,0,1,1-.48.48A.481.481,0,0,1,2.88,8.64Zm20.64,1.44a.481.481,0,0,1,.48.48v.96a.48.48,0,0,1-.48.48H.48A.479.479,0,0,1,0,11.52v-.96a.48.48,0,0,1,.48-.48Zm0,2.88a.939.939,0,0,0-.96.96v2.4a5.281,5.281,0,0,1-3.81,5.07.9.9,0,0,0,.93.69.48.48,0,1,1,0,.96,1.912,1.912,0,0,1-1.86-1.47,5.149,5.149,0,0,1-.54.03H6.72a5.149,5.149,0,0,1-.54-.03,1.912,1.912,0,0,1-1.86,1.47.48.48,0,1,1,0-.96.9.9,0,0,0,.93-.69,5.281,5.281,0,0,1-3.81-5.07v-2.4a.939.939,0,0,0-.96-.96Z" transform="translate(0 0.48)" fill="#46494c"/>
  </g>
</svg>
