<svg xmlns="http://www.w3.org/2000/svg" xmlns:xlink="http://www.w3.org/1999/xlink" width="24" height="24" viewBox="0 0 24 24">
  <defs>
    <clipPath id="clip-path">
      <rect id="Rectangle_17934" data-name="Rectangle 17934" width="24" height="24" transform="translate(0 0)" fill="#808fa8" stroke="#707070" stroke-width="1"/>
    </clipPath>
  </defs>
  <g id="Mask_Group_280" data-name="Mask Group 280" clip-path="url(#clip-path)">
    <path id="icons8_bathtub" d="M2.853,0A2.814,2.814,0,0,1,5.334,1.426c-.035,0-.069,0-.1,0a3.313,3.313,0,0,0-.966.149A1.9,1.9,0,0,0,.951,2.853V9.033H0V2.853A2.823,2.823,0,0,1,2.853,0ZM5.23,2.377A2.379,2.379,0,0,1,7.607,4.754a.475.475,0,0,1-.475.475h-3.8a.475.475,0,0,1-.475-.475A2.379,2.379,0,0,1,5.23,2.377ZM6.656,5.705a.475.475,0,1,1-.475.475A.476.476,0,0,1,6.656,5.705Zm-1.426,0a.475.475,0,1,1-.475.475A.476.476,0,0,1,5.23,5.705Zm-1.426,0a.475.475,0,1,1-.475.475A.476.476,0,0,1,3.8,5.705ZM7.131,7.131a.475.475,0,1,1-.475.475A.476.476,0,0,1,7.131,7.131Zm-1.9,0a.475.475,0,1,1-.475.475A.476.476,0,0,1,5.23,7.131Zm-1.9,0a.475.475,0,1,1-.475.475A.476.476,0,0,1,3.328,7.131ZM7.607,8.558a.475.475,0,1,1-.475.475A.476.476,0,0,1,7.607,8.558Zm-2.377,0a.475.475,0,1,1-.475.475A.476.476,0,0,1,5.23,8.558Zm-2.377,0a.475.475,0,1,1-.475.475A.476.476,0,0,1,2.853,8.558ZM23.3,9.984a.476.476,0,0,1,.475.475v.951a.475.475,0,0,1-.475.475H.475A.474.474,0,0,1,0,11.41v-.951a.475.475,0,0,1,.475-.475Zm0,2.853a.93.93,0,0,0-.951.951v2.377a5.231,5.231,0,0,1-3.774,5.022.893.893,0,0,0,.921.683.475.475,0,1,1,0,.951,1.894,1.894,0,0,1-1.842-1.456,5.1,5.1,0,0,1-.535.03H6.656a5.1,5.1,0,0,1-.535-.03,1.894,1.894,0,0,1-1.842,1.456.475.475,0,1,1,0-.951.893.893,0,0,0,.921-.683,5.231,5.231,0,0,1-3.774-5.022V13.787a.93.93,0,0,0-.951-.951Z" transform="translate(0 0.818)" fill="#808fa8"/>
  </g>
</svg>
