<svg xmlns="http://www.w3.org/2000/svg" xmlns:xlink="http://www.w3.org/1999/xlink" width="16" height="16" viewBox="0 0 16 16">
  <defs>
    <clipPath id="clip-path">
      <rect id="Rectangle_19097" data-name="Rectangle 19097" width="16" height="16" transform="translate(846 1166)" fill="#4bbef7"/>
    </clipPath>
  </defs>
  <g id="Mask_Group_593" data-name="Mask Group 593" transform="translate(-846 -1166)" clip-path="url(#clip-path)">
    <path id="icons8_bedroom" d="M4,3.2A1.6,1.6,0,0,0,2.4,4.8V7.2H4V6.8a2.227,2.227,0,0,1,2.4-2,2.227,2.227,0,0,1,2.4,2v.4h1.6V6.8a2.227,2.227,0,0,1,2.4-2,2.227,2.227,0,0,1,2.4,2v.4h1.6V4.8a1.6,1.6,0,0,0-1.6-1.6ZM3.2,8.8a1.6,1.6,0,0,0-1.6,1.6v6.4H3.2V15.2H16v1.6h1.6V10.4A1.6,1.6,0,0,0,16,8.8Z" transform="translate(844.4 1164)" fill="#4bbef7"/>
  </g>
</svg>
