<svg xmlns="http://www.w3.org/2000/svg" xmlns:xlink="http://www.w3.org/1999/xlink" width="24" height="24" viewBox="0 0 24 24">
  <defs>
    <clipPath id="clip-path">
      <rect id="Rectangle_17914" data-name="Rectangle 17914" width="24" height="24" transform="translate(0.462 0)" fill="#808fa8" stroke="#707070" stroke-width="1"/>
    </clipPath>
  </defs>
  <g id="Mask_Group_274" data-name="Mask Group 274" transform="translate(-0.462)" clip-path="url(#clip-path)">
    <path id="icons8_empty_bed_2" d="M1.426,2.88A1.433,1.433,0,0,0,0,4.306V18.569H2.853V16.192H20.919v2.377h2.853V11.438a2.387,2.387,0,0,0-2.377-2.377H9.984a.475.475,0,0,0-.475.475v2.377h0a.475.475,0,0,0-.013-.067A5.512,5.512,0,0,0,6.907,8.5a4.2,4.2,0,0,0-1.495-.38,6.227,6.227,0,0,0-2.559.394V4.306A1.433,1.433,0,0,0,1.426,2.88ZM5.348,9.087A3.115,3.115,0,0,1,6.5,9.36a4.031,4.031,0,0,1,1.877,2.3,5.187,5.187,0,0,1-1.5.258h-.2A3.146,3.146,0,0,1,5.4,11.595l-.01,0A3.988,3.988,0,0,1,3.511,9.34,4.731,4.731,0,0,1,5.348,9.087Zm5.112.924H21.394a1.428,1.428,0,0,1,1.426,1.426v.475H10.459Zm-7.607.253a5.3,5.3,0,0,0,1.3,1.649h-1.3Z" transform="translate(0.381 1.046)" fill="#808fa8"/>
  </g>
</svg>
