<svg xmlns="http://www.w3.org/2000/svg" xmlns:xlink="http://www.w3.org/1999/xlink" width="21" height="20" viewBox="0 0 21 20">
  <defs>
    <clipPath id="clip-path">
      <rect id="Rectangle_253" data-name="Rectangle 253" width="21" height="20" transform="translate(0.498 0)" fill="#fff"/>
    </clipPath>
  </defs>
  <g id="Mask_Group_8" data-name="Mask Group 8" transform="translate(-0.498 0)" clip-path="url(#clip-path)">
    <path id="icons8_school" d="M9.99,1.2a.38.38,0,0,0-.175.037L.225,6.033a.4.4,0,0,0,.35.724L9.99,2.049l9.416,4.708a.388.388,0,0,0,.175.037.4.4,0,0,0,.175-.762l-9.591-4.8A.38.38,0,0,0,9.99,1.2Zm-4.4,5.208A7.842,7.842,0,0,0,.962,7.656a.373.373,0,0,0-.15.3v8.429H.8V16.6c.081-.061.137-.106.162-.125A7.665,7.665,0,0,1,5.595,15.2a8.63,8.63,0,0,1,4.009.887v-8.8A8.773,8.773,0,0,0,5.595,6.407Zm8.792,0a8.772,8.772,0,0,0-4.009.874v8.8a8.63,8.63,0,0,1,4.009-.887,7.609,7.609,0,0,1,4.646,1.286c.041.031.084.059.137.1V7.956a.373.373,0,0,0-.15-.3A7.842,7.842,0,0,0,14.386,6.407ZM5.595,15.973a6.98,6.98,0,0,0-4.146,1.111s-.4.3-.649.512v.387a.4.4,0,0,0,.4.4H8.18a2.218,2.218,0,0,0,1.811.8,2.218,2.218,0,0,0,1.811-.8h6.981a.4.4,0,0,0,.4-.4V17.6c-.212-.172-.45-.348-.637-.487-.011-.008-.016-.028-.025-.037a7.122,7.122,0,0,0-4.134-1.1,6.98,6.98,0,0,0-4.146,1.111.192.192,0,0,1-.025.013.512.512,0,0,1-.062.037c-.006,0-.006.009-.013.013a.377.377,0,0,1-.137.025H9.99a.36.36,0,0,1-.15-.037s-.02,0-.025,0a.156.156,0,0,1-.037-.025c-.009-.006-.028-.017-.037-.025A6.988,6.988,0,0,0,5.595,15.973Z" transform="translate(0.565 -1.134)" fill="#fff"/>
  </g>
</svg>
