<svg xmlns="http://www.w3.org/2000/svg" xmlns:xlink="http://www.w3.org/1999/xlink" width="24" height="24" viewBox="0 0 24 24">
  <defs>
    <clipPath id="clip-path">
      <rect id="Rectangle_19339" data-name="Rectangle 19339" width="24" height="24" transform="translate(755 3547)" fill="#2bca7a" stroke="#707070" stroke-width="1"/>
    </clipPath>
  </defs>
  <g id="Mask_Group_671" data-name="Mask Group 671" transform="translate(-755 -3547)" clip-path="url(#clip-path)">
    <path id="icons8_workspace" d="M6.462,5.538A2.769,2.769,0,1,0,9.231,8.308,2.77,2.77,0,0,0,6.462,5.538Zm16.01.144a.436.436,0,0,0-.433.231l-5.8,11.452a.414.414,0,0,0,.2.577l1.327.577a.432.432,0,0,0,.577-.231l2.25-5.077-.144,6.058H15.779c-.079-.462-.458-.8-1.7-.692-.764.068-4.24.317-4.24.317-.317-.476-3.011-5.488-3.346-6S5.87,12,5.163,12h-1.5c-.368,0-1.576.49-2.654,4.414A41.971,41.971,0,0,0,0,24H6l.346-5.6s1.489,2.207,1.76,2.51c.407.462.48.6.981.519.155-.025,1.093-.155,1.99-.288v1.01H24V20.308H22.3a.781.781,0,0,0,.029-.2l-.75-9.115L23.51,6.663a.475.475,0,0,0-.231-.606l-.635-.317A.447.447,0,0,0,22.471,5.683Z" transform="translate(755 3544.231)" fill="#2bca7a"/>
  </g>
</svg>
