<svg xmlns="http://www.w3.org/2000/svg" xmlns:xlink="http://www.w3.org/1999/xlink" width="16" height="16" viewBox="0 0 16 16">
  <defs>
    <clipPath id="clip-path">
      <rect id="Rectangle_19091" data-name="Rectangle 19091" width="16" height="16" transform="translate(270 3024.443)" fill="#2bca7a"/>
    </clipPath>
  </defs>
  <g id="Mask_Group_588" data-name="Mask Group 588" transform="translate(-270 -3024.443)" clip-path="url(#clip-path)">
    <path id="icons8_country_1" d="M9.176,1.6A3.591,3.591,0,0,0,5.585,5.186c0,2.693,3.591,6.283,3.591,6.283s3.591-3.591,3.591-6.283A3.591,3.591,0,0,0,9.176,1.6Zm0,2.394a1.2,1.2,0,1,1-1.2,1.2A1.2,1.2,0,0,1,9.176,3.989Zm5.135.51a5.141,5.141,0,0,1,.051.687c0,.049-.008.1-.009.15a4.971,4.971,0,0,1-.051.528c-.009.056-.016.111-.026.167-.522,3.03-3.591,6.187-3.971,6.567l-.337.337a1.12,1.12,0,0,1-1.583,0L8.048,12.6A18.34,18.34,0,0,1,4.656,7.859v0a7.759,7.759,0,0,1-.566-1.731,19.566,19.566,0,0,0-2.369,2.9.937.937,0,0,0,0,.98l2.269,3.782V15.16a.8.8,0,0,0,.463.723C7.18,17.146,8.306,17.6,8.856,17.6c.336,0,.458-.167.6-.419a10.157,10.157,0,0,1,1.1-1.163c.416.186,1.208.642,1.625.882a5.651,5.651,0,0,0,1.236.633c.7.155,1.7-.523,2.239-.944.585-.458.255-1.036-.162-1.767-.076-.133-.182-.321-.259-.458.239-.341.781-.963,1.13-1.362,1.1-1.263,1.516-1.736.958-2.391L16.246,9.533c.958-1.125.982-1.205,1.03-1.37.238-.815.677-2.316-.552-2.9A10.125,10.125,0,0,0,14.311,4.5ZM6.383,12.766a.8.8,0,1,1-.8.8A.8.8,0,0,1,6.383,12.766Z" transform="translate(268.424 3022.848)" fill="#8a8f93"/>
  </g>
</svg>
