<svg xmlns="http://www.w3.org/2000/svg" xmlns:xlink="http://www.w3.org/1999/xlink" width="24" height="24" viewBox="0 0 24 24">
  <defs>
    <clipPath id="clip-path">
      <rect id="Rectangle_19340" data-name="Rectangle 19340" width="24" height="24" transform="translate(1118 3547)" fill="#9c9dfe" stroke="#707070" stroke-width="1"/>
    </clipPath>
  </defs>
  <g id="Mask_Group_672" data-name="Mask Group 672" transform="translate(-1118 -3547)" clip-path="url(#clip-path)">
    <path id="icons8_360_view" d="M7.051,8.819a2.3,2.3,0,0,0-2.6,2.19H5.826a1.069,1.069,0,0,1,1.185-1c.694,0,1.138.363,1.138.934a1.008,1.008,0,0,1-1.132.976H6.152v1.107h.881c.8,0,1.284.385,1.284,1S7.8,15.05,7.058,15.05c-.762,0-1.27-.379-1.314-.979H4.323a2.42,2.42,0,0,0,2.72,2.215c1.619,0,2.791-.9,2.791-2.146a1.642,1.642,0,0,0-1.585-1.693v-.089a1.6,1.6,0,0,0,1.309-1.624C9.557,9.617,8.508,8.819,7.051,8.819Zm6.8,0c-1.851,0-2.963,1.427-2.963,3.785a4.377,4.377,0,0,0,.6,2.4,2.591,2.591,0,0,0,2.344,1.286,2.523,2.523,0,0,0,2.715-2.525A2.278,2.278,0,0,0,14.21,11.4,1.91,1.91,0,0,0,12.4,12.452H12.31c-.029-1.472.561-2.412,1.535-2.412a1.119,1.119,0,0,1,1.137.762h1.472A2.478,2.478,0,0,0,13.855,8.819Zm6.5,0c-1.747,0-2.821,1.368-2.821,3.72s1.065,3.747,2.821,3.747,2.818-1.393,2.818-3.74S22.1,8.819,20.359,8.819Zm0,1.215c.811,0,1.312.851,1.312,2.5s-.5,2.535-1.312,2.535-1.314-.876-1.314-2.535S19.551,10.035,20.359,10.035ZM13.82,12.549A1.231,1.231,0,0,1,15.1,13.8a1.287,1.287,0,0,1-2.573-.015A1.232,1.232,0,0,1,13.82,12.549ZM3.429,17.267a2.513,2.513,0,0,0-1.714,2.571c0,2.361,2.586,4.286,9.429,4.286v1.15a.563.563,0,0,0,.934.424l2.6-2.273a.779.779,0,0,0,0-1.172l-2.6-2.273a.563.563,0,0,0-.934.424v1.15C5.29,21.552,3,20.161,3,18.981a1.092,1.092,0,0,1,.429-.857Zm20.571,0v.857a1.092,1.092,0,0,1,.429.857c0,1.18-2.29,2.571-8.143,2.571v2.571c6.843,0,9.429-1.925,9.429-4.286A2.513,2.513,0,0,0,24,17.267Z" transform="translate(1116.285 3541.671)" fill="#9c9dfe"/>
  </g>
</svg>
