<svg xmlns="http://www.w3.org/2000/svg" width="15.981" height="16" viewBox="0 0 15.981 16">
  <path id="Path_139" data-name="Path 139" d="M13.248.031a2.877,2.877,0,0,0-2.862,2.862,8.688,8.688,0,0,0,.174,1.334c.08.454.155.831.155.831a.475.475,0,1,0,.928-.193s-.08-.358-.155-.793a9.38,9.38,0,0,1-.135-1.179,1.9,1.9,0,1,1,3.79.213,7.9,7.9,0,0,1-.967,3.77.478.478,0,1,0,.812.5,8.968,8.968,0,0,0,1.1-4.273A2.923,2.923,0,0,0,13.248.031ZM8.182,2.584a2.459,2.459,0,0,0-.851.077l-6.9,6.9a1.1,1.1,0,0,0,0,1.547l4.6,4.6a1.1,1.1,0,0,0,1.547,0l6.9-6.9c.314-.312.034-3.372-.155-4.95-.111-.923-.114-.933-1.025-1.044-.155-.019-.319-.041-.483-.058a1.3,1.3,0,0,0-.019.135A7.438,7.438,0,0,0,11.914,3.9a1.294,1.294,0,1,1-2.03,1.063,1.31,1.31,0,0,1,.213-.735,9.208,9.208,0,0,1-.155-1.334c0-.089.012-.181.019-.271C9.289,2.588,8.66,2.576,8.182,2.584Zm.735,4.254.58.58-.522.522a3.032,3.032,0,0,1,.677,1.083L8.8,9.506a2.669,2.669,0,0,0-.657-1.063c-.387-.387-.684-.341-.851-.174-.191.191-.109.527.213,1.218.464.964.425,1.564-.116,2.108a1.614,1.614,0,0,1-2.166.039l-.619.619-.58-.58.58-.58a3.441,3.441,0,0,1-.773-1.257l.889-.522a2.968,2.968,0,0,0,.715,1.257c.341.338.715.445.947.213s.174-.57-.116-1.16c-.423-.851-.558-1.588.019-2.166A1.549,1.549,0,0,1,8.356,7.4Z" transform="translate(-0.109 -0.031)" fill="#8a8f93"/>
</svg>
