<svg xmlns="http://www.w3.org/2000/svg" width="23.971" height="24" viewBox="0 0 23.971 24">
  <path id="Path_139" data-name="Path 139" d="M19.817.031a4.315,4.315,0,0,0-4.292,4.292,13.033,13.033,0,0,0,.261,2c.12.682.232,1.247.232,1.247a.712.712,0,1,0,1.392-.29s-.12-.537-.232-1.189a14.07,14.07,0,0,1-.2-1.769,2.853,2.853,0,0,1,2.842-2.871c1.758,0,2.842,1.345,2.842,3.19a11.85,11.85,0,0,1-1.45,5.656.716.716,0,1,0,1.218.754,13.452,13.452,0,0,0,1.653-6.41A4.385,4.385,0,0,0,19.817.031Zm-7.6,3.828a3.688,3.688,0,0,0-1.276.116L.588,14.33a1.645,1.645,0,0,0,0,2.32l6.9,6.9a1.645,1.645,0,0,0,2.32,0L20.165,13.2c.471-.468.051-5.057-.232-7.425-.167-1.385-.17-1.4-1.537-1.566-.232-.029-.479-.062-.725-.087a1.954,1.954,0,0,0-.029.2,11.156,11.156,0,0,0,.174,1.508,1.941,1.941,0,1,1-3.045,1.6,1.965,1.965,0,0,1,.319-1.1,13.813,13.813,0,0,1-.232-2c0-.134.018-.272.029-.406C13.879,3.867,12.936,3.849,12.218,3.86Zm1.1,6.381.87.87-.783.783a4.549,4.549,0,0,1,1.015,1.624l-1.276.725a4,4,0,0,0-.986-1.6c-.58-.58-1.026-.511-1.276-.261-.286.286-.163.79.319,1.827.7,1.447.638,2.346-.174,3.161a2.421,2.421,0,0,1-3.248.058l-.928.928-.87-.87.87-.87a5.162,5.162,0,0,1-1.16-1.885l1.334-.783A4.451,4.451,0,0,0,8.1,15.838c.511.508,1.073.667,1.421.319s.261-.856-.174-1.74c-.634-1.276-.837-2.382.029-3.248a2.323,2.323,0,0,1,3.1-.087Z" transform="translate(-0.109 -0.031)" fill="#8080ff"/>
</svg>
