<svg xmlns="http://www.w3.org/2000/svg" xmlns:xlink="http://www.w3.org/1999/xlink" width="24" height="24" viewBox="0 0 24 24">
  <defs>
    <clipPath id="clip-path">
      <rect id="Rectangle_19371" data-name="Rectangle 19371" width="24" height="24" transform="translate(282 3815)" fill="#9c9dfe" stroke="#707070" stroke-width="1"/>
    </clipPath>
  </defs>
  <g id="Mask_Group_677" data-name="Mask Group 677" transform="translate(-282 -3815)" clip-path="url(#clip-path)">
    <path id="icons8_control_panel" d="M6.667,4a2.713,2.713,0,0,0-1.917.75A2.713,2.713,0,0,0,4,6.667V25.333a2.713,2.713,0,0,0,.75,1.917A2.713,2.713,0,0,0,6.667,28H25.333A2.567,2.567,0,0,0,28,25.333V6.667a2.713,2.713,0,0,0-.75-1.917A2.713,2.713,0,0,0,25.333,4Zm0,2.667H25.333V25.333H6.667Zm4,2.667a1.258,1.258,0,0,0-1.333,1.333v2.667a1.258,1.258,0,0,0,1.333,1.333h2.667a1.257,1.257,0,0,0,1.333-1.333V10.667a1.258,1.258,0,0,0-1.333-1.333Zm8,0a1.258,1.258,0,0,0-1.333,1.333v2.667a1.257,1.257,0,0,0,1.333,1.333h2.667a1.257,1.257,0,0,0,1.333-1.333V10.667a1.258,1.258,0,0,0-1.333-1.333Zm-8,8a1.258,1.258,0,0,0-1.333,1.333v2.667a1.258,1.258,0,0,0,1.333,1.333h2.667a1.257,1.257,0,0,0,1.333-1.333V18.667a1.257,1.257,0,0,0-1.333-1.333Zm8,0a1.257,1.257,0,0,0-1.333,1.333v2.667a1.257,1.257,0,0,0,1.333,1.333h2.667a1.257,1.257,0,0,0,1.333-1.333V18.667a1.257,1.257,0,0,0-1.333-1.333Z" transform="translate(278 3811)" fill="#9c9dfe"/>
  </g>
</svg>
