<svg xmlns="http://www.w3.org/2000/svg" xmlns:xlink="http://www.w3.org/1999/xlink" width="24" height="24" viewBox="0 0 24 24">
  <defs>
    <clipPath id="clip-path">
      <rect id="Rectangle_19282" data-name="Rectangle 19282" width="24" height="24" transform="translate(842 631)" fill="#46494c" stroke="#707070" stroke-width="1"/>
    </clipPath>
  </defs>
  <g id="Mask_Group_687" data-name="Mask Group 687" transform="translate(-842 -631)" clip-path="url(#clip-path)">
    <path id="icons8_expensive_price" d="M9.429,4.286A8.571,8.571,0,1,0,18,12.857,8.571,8.571,0,0,0,9.429,4.286Zm6.432.552a10.27,10.27,0,0,1,0,16.038,8.558,8.558,0,0,0,0-16.038Zm3.429,0a10.27,10.27,0,0,1,0,16.038,8.558,8.558,0,0,0,0-16.038ZM8.571,7.714h1.714V9.1a2.284,2.284,0,0,1,1.969,2.113H10.81a1.223,1.223,0,0,0-1.353-.966c-.768,0-1.276.356-1.276.916,0,.453.349.713,1.209.9l.886.188c1.475.31,2.109.948,2.109,2.086a2.285,2.285,0,0,1-2.1,2.3V18H8.571V16.631a2.283,2.283,0,0,1-2.1-2.143H7.955c.071.595.672.976,1.537.976.8,0,1.363-.386,1.363-.941,0-.468-.366-.737-1.266-.931l-.956-.2C7.3,13.108,6.64,12.412,6.64,11.294A2.22,2.22,0,0,1,8.571,9.1Z" transform="translate(841.143 630.143)" fill="#46494c"/>
  </g>
</svg>
