<svg xmlns="http://www.w3.org/2000/svg" xmlns:xlink="http://www.w3.org/1999/xlink" width="16" height="16" viewBox="0 0 16 16">
  <defs>
    <clipPath id="clip-path">
      <rect id="Rectangle_19302" data-name="Rectangle 19302" width="16" height="16" transform="translate(988 8404)" fill="#8a8f93" stroke="#707070" stroke-width="1"/>
    </clipPath>
  </defs>
  <g id="Mask_Group_650" data-name="Mask Group 650" transform="translate(-988 -8404)" clip-path="url(#clip-path)">
    <path id="icons8_collaborator_male" d="M9.94,10.2a.681.681,0,0,1-.451-1.043,4.628,4.628,0,0,0,.827-1.679,2.292,2.292,0,0,0,.813-1.512c.046-.9-.17-.946-.17-.946.323-.987.429-4.692-1.951-4.248-.4-.779-2.88-1.388-4.037.684a4.383,4.383,0,0,0-.342,3.591c-.017.085-.16-.085-.211.446A2.74,2.74,0,0,0,4.85,7.08a1.081,1.081,0,0,0,.405.3,4.142,4.142,0,0,0,.864,1.774A.991.991,0,0,1,5.6,10.2C3.36,10.629,1.3,11.874,1.3,13.223v1.043c0,1.463,3.406,1.776,6.473,1.776s6.449-.881,6.449-1.776V13.223C14.22,11.874,12.182,10.629,9.94,10.2ZM11.8,14.907H8.7V13.043H11.8Z" transform="translate(988.241 8403.958)" fill="#8a8f93"/>
  </g>
</svg>
