<svg xmlns="http://www.w3.org/2000/svg" xmlns:xlink="http://www.w3.org/1999/xlink" width="24" height="24" viewBox="0 0 24 24">
  <defs>
    <clipPath id="clip-path">
      <rect id="Rectangle_19374" data-name="Rectangle 19374" width="24" height="24" transform="translate(645 3815)" fill="#2bca7a" stroke="#707070" stroke-width="1"/>
    </clipPath>
  </defs>
  <g id="Mask_Group_678" data-name="Mask Group 678" transform="translate(-645 -3815)" clip-path="url(#clip-path)">
    <path id="icons8_graph" d="M2.285,2.285V26.273H26.273V25.131H3.427V2.285Zm5.14,1.142A.571.571,0,1,0,8,4,.571.571,0,0,0,7.425,3.427Zm5.712,0A.571.571,0,1,0,13.708,4,.571.571,0,0,0,13.137,3.427Zm5.712,0A.571.571,0,1,0,19.419,4,.571.571,0,0,0,18.848,3.427Zm5.712,0A.571.571,0,1,0,25.131,4,.571.571,0,0,0,24.56,3.427Zm.549,4.558a1.142,1.142,0,0,0-.785.346l-5.475,5.475-4.9-4.9a1.142,1.142,0,0,0-1.615,0L4.9,16.327a1.142,1.142,0,1,0,1.615,1.615l6.617-6.618,4.9,4.9a1.142,1.142,0,0,0,1.615,0l6.283-6.283a1.142,1.142,0,0,0-.83-1.961ZM7.425,9.138A.571.571,0,1,0,8,9.71.571.571,0,0,0,7.425,9.138Zm11.423,0a.571.571,0,1,0,.571.571A.571.571,0,0,0,18.848,9.138ZM13.137,14.85a.571.571,0,1,0,.571.571A.571.571,0,0,0,13.137,14.85Zm11.423,0a.571.571,0,1,0,.571.571A.571.571,0,0,0,24.56,14.85ZM7.425,20.562A.571.571,0,1,0,8,21.133.571.571,0,0,0,7.425,20.562Zm5.712,0a.571.571,0,1,0,.571.571A.571.571,0,0,0,13.137,20.562Zm5.712,0a.571.571,0,1,0,.571.571A.571.571,0,0,0,18.848,20.562Zm5.712,0a.571.571,0,1,0,.571.571A.571.571,0,0,0,24.56,20.562Z" transform="translate(642.715 3812.721)" fill="#2bca7a"/>
  </g>
</svg>
