<svg xmlns="http://www.w3.org/2000/svg" xmlns:xlink="http://www.w3.org/1999/xlink" width="24" height="24" viewBox="0 0 24 24">
  <defs>
    <clipPath id="clip-path">
      <rect id="Rectangle_18450" data-name="Rectangle 18450" width="24" height="24" fill="#9c9dfe"/>
    </clipPath>
  </defs>
  <g id="Mask_Group_388" data-name="Mask Group 388" clip-path="url(#clip-path)">
    <path id="icons8_grid_view" d="M3.7,6.667A3.036,3.036,0,0,0,.667,9.7v3.031A3.036,3.036,0,0,0,3.7,15.758H6.728a3.036,3.036,0,0,0,3.031-3.031V9.7A3.036,3.036,0,0,0,6.728,6.667Zm13.638,0A3.036,3.036,0,0,0,14.3,9.7v3.031a3.036,3.036,0,0,0,3.031,3.031h3.031A3.036,3.036,0,0,0,23.4,12.728V9.7a3.036,3.036,0,0,0-3.031-3.031ZM3.7,20.3A3.036,3.036,0,0,0,.667,23.335v3.031A3.036,3.036,0,0,0,3.7,29.4H6.728a3.036,3.036,0,0,0,3.031-3.031V23.335A3.036,3.036,0,0,0,6.728,20.3Zm13.638,0A3.036,3.036,0,0,0,14.3,23.335v3.031A3.036,3.036,0,0,0,17.335,29.4h3.031A3.036,3.036,0,0,0,23.4,26.366V23.335A3.036,3.036,0,0,0,20.366,20.3Z" transform="translate(-0.666 -5.396)" fill="#9c9dfe"/>
  </g>
</svg>
