<svg xmlns="http://www.w3.org/2000/svg" width="63.053" height="61.891" viewBox="0 0 63.053 61.891">
  <g id="Group_5158" data-name="Group 5158" transform="translate(-17 -20.054)">
    <g id="Group_5126" data-name="Group 5126" transform="translate(-74.361 -33.74)">
      <g id="Group_5156" data-name="Group 5156">
        <g id="Group_5155" data-name="Group 5155">
          <path id="Path_227" data-name="Path 227" d="M151.555,53.823l-60.164,59-.03-16.739a3.639,3.639,0,0,1,1.1-2.6L131.83,54.87a3.785,3.785,0,0,1,2.656-1.076Z" transform="translate(0 0)" fill="#ff9800"/>
          <path id="Path_228" data-name="Path 228" d="M693.631,54.107l2.859,2.86h-5.719Z" transform="translate(-542.077 -0.283)" fill="#890303"/>
          <path id="Path_229" data-name="Path 229" d="M91.674,656.065l2.86-2.86v5.719Z" transform="translate(-0.283 -543.239)" fill="#890303"/>
        </g>
        <path id="Path_230" data-name="Path 230" d="M102.335,119.255a.453.453,0,0,0,.317-.129l55.33-54.055a.434.434,0,0,0,0-.623.456.456,0,0,0-.636,0L102.017,118.5a.434.434,0,0,0,0,.623A.453.453,0,0,0,102.335,119.255Z" transform="translate(-9.515 -9.516)" fill="#fff"/>
        <path id="Path_231" data-name="Path 231" d="M102.336,107.177a.45.45,0,0,0,.319-.132L143.144,66.43a.451.451,0,0,0-.638-.636l-40.489,40.615a.451.451,0,0,0,.319.769Z" transform="translate(-9.515 -10.729)" fill="#fff"/>
      </g>
    </g>
    <text id="HOT_OFFER" data-name="HOT OFFER" transform="translate(28.778 53.163) rotate(-45)" fill="#f6fbff" font-size="6" font-family="Poppins-SemiBold, Poppins" font-weight="600"><tspan x="0" y="6">HOT OFFER</tspan></text>
  </g>
</svg>
