<svg xmlns="http://www.w3.org/2000/svg" width="24" height="21.109" viewBox="0 0 24 21.109">
  <path id="icons8_list" d="M.959,1.919A.9.9,0,0,0,0,2.878V4.8a.9.9,0,0,0,.959.959H2.878A.9.9,0,0,0,3.838,4.8V2.878a.9.9,0,0,0-.959-.959Zm5.577.959A.964.964,0,0,0,6.716,4.8H23.027a.96.96,0,1,0,0-1.919H6.536ZM.959,7.676A.9.9,0,0,0,0,8.635v1.919a.9.9,0,0,0,.959.959H2.878a.9.9,0,0,0,.959-.959V8.635a.9.9,0,0,0-.959-.959Zm5.577.959a.964.964,0,1,0,.18,1.919H23.027a.96.96,0,1,0,0-1.919H6.536Zm-5.577,4.8A.9.9,0,0,0,0,14.392v1.919a.9.9,0,0,0,.959.959H2.878a.9.9,0,0,0,.959-.959V14.392a.9.9,0,0,0-.959-.959Zm5.577.959a.964.964,0,1,0,.18,1.919H23.027a.96.96,0,1,0,0-1.919H6.536ZM.959,19.19A.9.9,0,0,0,0,20.149v1.919a.9.9,0,0,0,.959.959H2.878a.9.9,0,0,0,.959-.959V20.149a.9.9,0,0,0-.959-.959Zm5.577.959a.964.964,0,1,0,.18,1.919H23.027a.96.96,0,1,0,0-1.919H6.536Z" transform="translate(0 -1.919)" fill="#e8f1ff"/>
</svg>
