<svg xmlns="http://www.w3.org/2000/svg" xmlns:xlink="http://www.w3.org/1999/xlink" width="16" height="16" viewBox="0 0 16 16">
  <defs>
    <clipPath id="clip-path">
      <rect id="Rectangle_19089" data-name="Rectangle 19089" width="16" height="16" transform="translate(270 2981.539)" fill="#2bca7a"/>
    </clipPath>
  </defs>
  <g id="Mask_Group_589" data-name="Mask Group 589" transform="translate(-270 -2981.539)" clip-path="url(#clip-path)">
    <path id="icons8_city_1" d="M10.38,1.588a.8.8,0,0,0-.787.81v.425L5.837,1.636A.8.8,0,0,0,4.8,2.4v7.2H4v-.8a.8.8,0,1,0-1.6,0V9.815a1.591,1.591,0,0,0-.8,1.377v4.8a1.6,1.6,0,0,0,1.6,1.6H15.989a1.6,1.6,0,0,0,1.6-1.6V7.994a1.6,1.6,0,0,0-1.6-1.6h-1.6V4.923a.8.8,0,0,0-.559-.762l-.245-.078a.8.8,0,0,0,0-.086V2.4a.8.8,0,1,0-1.6,0V3.58l-.807-.255a.8.8,0,0,0,.008-.128V2.4a.8.8,0,0,0-.812-.81ZM6.4,3.488l6.4,2.022V15.989h-1.6V14.972a1.6,1.6,0,1,0-1.6,0v1.015h-1.6v-4.8a1.6,1.6,0,0,0-1.6-1.6ZM7.595,6.4a.4.4,0,0,0-.4.4v.8a.4.4,0,0,0,.4.4h4a.4.4,0,0,0,.4-.4V6.8a.4.4,0,0,0-.4-.4Zm7.2,1.6h.8a.4.4,0,0,1,.4.4v.8a.4.4,0,0,1-.4.4h-.8a.4.4,0,0,1-.4-.4v-.8A.4.4,0,0,1,14.79,7.994Zm-5.6.8a.4.4,0,0,0-.4.4v.8a.4.4,0,0,0,.4.4h2.4a.4.4,0,0,0,.4-.4v-.8a.4.4,0,0,0-.4-.4Zm-5.6,2.4H6a.4.4,0,0,1,.4.4v.8a.4.4,0,0,1-.4.4H3.6a.4.4,0,0,1-.4-.4v-.8A.4.4,0,0,1,3.6,11.192Zm11.192,0h.8a.4.4,0,0,1,.4.4v.8a.4.4,0,0,1-.4.4h-.8a.4.4,0,0,1-.4-.4v-.8A.4.4,0,0,1,14.79,11.192ZM3.6,14.39H6a.4.4,0,0,1,.4.4v.8a.4.4,0,0,1-.4.4H3.6a.4.4,0,0,1-.4-.4v-.8A.4.4,0,0,1,3.6,14.39Zm11.192,0h.8a.4.4,0,0,1,.4.4v.8a.4.4,0,0,1-.4.4h-.8a.4.4,0,0,1-.4-.4v-.8A.4.4,0,0,1,14.79,14.39Z" transform="translate(268.406 2979.951)" fill="#8a8f93"/>
  </g>
</svg>
