<svg xmlns="http://www.w3.org/2000/svg" xmlns:xlink="http://www.w3.org/1999/xlink" width="24" height="24" viewBox="0 0 24 24">
  <defs>
    <clipPath id="clip-path">
      <rect id="Rectangle_18335" data-name="Rectangle 18335" width="24" height="24" transform="translate(246 708)" fill="#8a8f93" stroke="#707070" stroke-width="1"/>
    </clipPath>
  </defs>
  <g id="Mask_Group_344" data-name="Mask Group 344" transform="translate(-246 -708)" clip-path="url(#clip-path)">
    <path id="icons8_office_phone" d="M5.455,2.182A2.2,2.2,0,0,0,3.273,4.364V19.636a2.2,2.2,0,0,0,2.182,2.182v.545a3.818,3.818,0,0,0,7.636,0v-.545h7.636a2.181,2.181,0,0,0,2.182-2.182V4.364a2.181,2.181,0,0,0-2.182-2.182H12A2.181,2.181,0,0,0,9.818,4.364,2.2,2.2,0,0,0,7.636,2.182Zm0,2.182H7.636V19.636H5.455Zm7.636,2.182h6.545V8.727H13.091Zm0,4.364h2.182v2.182H13.091Zm4.364,0h2.182v2.182H17.455Zm-4.364,4.364h2.182v2.182H13.091Zm4.364,0h2.182v2.182H17.455ZM9.818,19.636a2.171,2.171,0,0,0,1.091,1.879v.848a1.636,1.636,0,0,1-3.273,0v-.545A2.2,2.2,0,0,0,9.818,19.636Z" transform="translate(244.909 705.818)" fill="#8a8f93"/>
  </g>
</svg>
