<svg xmlns="http://www.w3.org/2000/svg" xmlns:xlink="http://www.w3.org/1999/xlink" width="24" height="24" viewBox="0 0 24 24">
  <defs>
    <clipPath id="clip-path">
      <rect id="Rectangle_19380" data-name="Rectangle 19380" width="24" height="24" transform="translate(1371 3815)" fill="#4bbef7" stroke="#707070" stroke-width="1"/>
    </clipPath>
  </defs>
  <g id="Mask_Group_682" data-name="Mask Group 682" transform="translate(-1371 -3815)" clip-path="url(#clip-path)">
    <path id="icons8_vision" d="M1.091,1.091V6.545H3.273V3.273H6.545V1.091H1.091Zm18.545,0V3.273h3.273V6.545h2.182V1.091H19.636ZM13.091,4.364c-8.727,0-12,8.727-12,8.727s3.273,8.727,12,8.727,12-8.727,12-8.727S21.818,4.364,13.091,4.364Zm0,3.273a5.455,5.455,0,1,1-5.455,5.455A5.455,5.455,0,0,1,13.091,7.636Zm0,2.182a3.273,3.273,0,1,0,3.273,3.273A3.273,3.273,0,0,0,13.091,9.818Zm-12,9.818v5.455H6.545V22.909H3.273V19.636Zm21.818,0v3.273H19.636v2.182h5.455V19.636Z" transform="translate(1369.908 3813.909)" fill="#4bbef7"/>
  </g>
</svg>
