<svg xmlns="http://www.w3.org/2000/svg" xmlns:xlink="http://www.w3.org/1999/xlink" width="16" height="16" viewBox="0 0 16 16">
  <defs>
    <clipPath id="clip-path">
      <rect id="Rectangle_19615" data-name="Rectangle 19615" width="16" height="16" transform="translate(462 500)" fill="#9c9dfe" stroke="#707070" stroke-width="1"/>
    </clipPath>
  </defs>
  <g id="Mask_Group_720" data-name="Mask Group 720" transform="translate(-462 -500)" clip-path="url(#clip-path)">
    <path id="icons8_money_pound" d="M8.212.707a1.474,1.474,0,0,0-1.12.761c-.233.326-.61.337-1.316.337a2.089,2.089,0,0,0-1.153.25A3.042,3.042,0,0,0,6.167,3.492a.731.731,0,0,0,.707-.141,1.662,1.662,0,0,1,1.175-.631,1.4,1.4,0,0,1,.957.653.34.34,0,0,0,.25.12.885.885,0,0,0,.6-.272c.2-.182.439-.368.685-.566A5.834,5.834,0,0,0,11.758,1.5a.842.842,0,0,0-.446-.109,3.468,3.468,0,0,0-.8.131,2.8,2.8,0,0,1-.609.1.475.475,0,0,1-.359-.12C9,.944,8.609.707,8.212.707ZM11.954,2.36a12.068,12.068,0,0,1-.979.838c-.233.186-.462.375-.653.544a1.552,1.552,0,0,1-1.12.446,1.019,1.019,0,0,1-.729-.381c-.267-.337-.416-.4-.479-.4-.152,0-.428.256-.653.468a1.45,1.45,0,0,1-.935.348,1.625,1.625,0,0,1-.424-.065,2.465,2.465,0,0,1-.838-.446,3.267,3.267,0,0,1,.914,1.914,4.157,4.157,0,0,0,4.351.1c.11-.063.238-.152.381-.25l.033-.022a3.715,3.715,0,0,1,.761-2.415l.033-.044A3.482,3.482,0,0,0,11.954,2.36ZM13.3,4.525A3.367,3.367,0,0,0,11.519,5a2.368,2.368,0,0,0,0,.326c.156.064.311.143.468.218a8.912,8.912,0,0,1,2.088,1.414.116.116,0,0,0,.022,0,.351.351,0,0,0,.239-.1.345.345,0,0,0,.011-.489,3.109,3.109,0,0,0-2.067-.968,2.22,2.22,0,0,1,2,.12.346.346,0,0,0,.326-.609A2.984,2.984,0,0,0,13.3,4.525ZM11.29,5.971c-.037.024-.073.052-.109.076-.16.11-.3.2-.424.272a4.857,4.857,0,0,1-2.4.663A5.262,5.262,0,0,1,5.58,6.145a7.405,7.405,0,0,0-4.188,6.069c0,3.8,2.461,4.492,7.309,4.492s7.309-.7,7.309-4.492C16.011,9.4,13.664,6.919,11.29,5.971ZM8.789,8.7a1.727,1.727,0,0,1,1.806,1.969H9.942c-.011-.449-.1-1.392-1.109-1.392a1.048,1.048,0,0,0-1.1,1,2.585,2.585,0,0,0,.4,1.175H9.343v.337H8.3a1.544,1.544,0,0,1,.152.576A1.923,1.923,0,0,1,7.57,13.8l.011.022a1.988,1.988,0,0,1,.8-.228c.455,0,1.039.25,1.37.25a1.242,1.242,0,0,0,.674-.283l.337.5a1.666,1.666,0,0,1-1.12.348c-.475,0-1.035-.3-1.566-.3a1.33,1.33,0,0,0-.761.261l-.359-.5a1.742,1.742,0,0,0,.838-1.36,2.034,2.034,0,0,0-.185-.718H6.961v-.348h.446a2.128,2.128,0,0,1-.359-1.186A1.572,1.572,0,0,1,8.789,8.7Z" transform="translate(461.298 499.293)" fill="#9c9dfe"/>
  </g>
</svg>
