<svg xmlns="http://www.w3.org/2000/svg" xmlns:xlink="http://www.w3.org/1999/xlink" width="108" height="128.605" viewBox="0 0 108 128.605">
  <defs>
    <linearGradient id="linear-gradient" x1="0.5" y1="1" x2="0.5" gradientUnits="objectBoundingBox">
      <stop offset="0" stop-color="#969185"/>
      <stop offset="1" stop-color="#a19b8e"/>
    </linearGradient>
    <linearGradient id="linear-gradient-3" x1="-0.484" y1="0.834" x2="1.512" y2="0.163" gradientUnits="objectBoundingBox">
      <stop offset="0" stop-color="#4da6d1"/>
      <stop offset="1" stop-color="#bdeaff"/>
    </linearGradient>
    <linearGradient id="linear-gradient-4" x1="0.5" y1="1" x2="0.5" gradientUnits="objectBoundingBox">
      <stop offset="0" stop-color="#a19b8e"/>
      <stop offset="1" stop-color="#ada799"/>
    </linearGradient>
    <linearGradient id="linear-gradient-5" x1="0.5" y1="1" x2="0.5" gradientUnits="objectBoundingBox">
      <stop offset="0" stop-color="#1e79a6"/>
      <stop offset="0.439" stop-color="#2498d1"/>
      <stop offset="1" stop-color="#97bed1"/>
    </linearGradient>
    <linearGradient id="linear-gradient-6" x1="0.5" y1="1" x2="0.5" gradientUnits="objectBoundingBox">
      <stop offset="0" stop-color="#9b9b9b"/>
      <stop offset="1" stop-color="#a7a7a7"/>
    </linearGradient>
    <linearGradient id="linear-gradient-7" x1="0.5" y1="1" x2="0.5" gradientUnits="objectBoundingBox">
      <stop offset="0" stop-color="#4da6d1"/>
      <stop offset="0.62" stop-color="#cef"/>
      <stop offset="1" stop-color="#bdeaff"/>
    </linearGradient>
    <linearGradient id="linear-gradient-8" x1="0.5" y1="1" x2="0.5" gradientUnits="objectBoundingBox">
      <stop offset="0" stop-color="#1e79a6"/>
      <stop offset="1" stop-color="#4da6d1"/>
    </linearGradient>
    <linearGradient id="linear-gradient-9" x1="0.5" y1="1" x2="0.5" gradientUnits="objectBoundingBox">
      <stop offset="0" stop-color="#1e79a6"/>
      <stop offset="0.668" stop-color="#97bed1"/>
      <stop offset="1" stop-color="#4da6d1"/>
    </linearGradient>
    <linearGradient id="linear-gradient-10" x1="0.5" y1="1" x2="0.5" gradientUnits="objectBoundingBox">
      <stop offset="0.139" stop-color="#1e79a6"/>
      <stop offset="0.749" stop-color="#97bed1"/>
      <stop offset="1" stop-color="#2498d1"/>
    </linearGradient>
    <linearGradient id="linear-gradient-11" x1="0.5" y1="1" x2="0.5" gradientUnits="objectBoundingBox">
      <stop offset="0.139" stop-color="#145270"/>
      <stop offset="1" stop-color="#2498d1"/>
    </linearGradient>
    <clipPath id="clip-path">
      <path id="Path_1612" data-name="Path 1612" d="M57.581,169.943l-1.3-.753V166.93l1.3.753Zm1.684-1.288-1.3-.753v2.26l1.3.753Zm1.683.972-1.3-.753v2.261l1.3.753Zm1.683.972-1.3-.754v2.26l1.3.754Zm1.683.972-1.3-.755v2.261l1.3.753Zm1.683.971-1.3-.754v2.261l1.3.753Zm-8.416-7.615-1.3-.753v2.259l1.3.753Zm1.684.972-1.3-.754v2.261l1.3.753Zm1.683.971-1.3-.753v2.261l1.3.753Zm1.683.972-1.3-.753v2.26l1.3.753Zm1.683.972-1.3-.753v2.261l1.3.753Zm1.683.972-1.3-.753v2.259l1.3.753Zm-8.416-7.615-1.3-.753v2.259l1.3.753Zm1.684.972-1.3-.753v2.26l1.3.753Zm1.683.972-1.3-.754v2.26l1.3.753Zm1.683.971-1.3-.753v2.261l1.3.753Zm1.683.972-1.3-.753v2.261l1.3.753ZM66,167.03l-1.3-.753v2.26l1.3.753Zm-8.416-7.615-1.3-.754v2.261l1.3.753Zm1.684.971-1.3-.753v2.261l1.3.754Zm1.683.973-1.3-.754v2.26l1.3.753Zm1.683.972-1.3-.753v2.26l1.3.753Zm1.683.972-1.3-.753v2.26l1.3.753Zm1.683.972-1.3-.753v2.26l1.3.753Zm-8.416-7.614-1.3-.754v2.261l1.3.753Zm1.684.971-1.3-.753v2.261l1.3.753Zm1.683.972-1.3-.753v2.26l1.3.753Zm1.683.972-1.3-.753v2.261l1.3.752Zm1.683.972-1.3-.753v2.259l1.3.753Zm1.683.972-1.3-.753v2.26l1.3.753ZM57.581,153.9l-1.3-.753v2.26l1.3.753Zm1.684.972-1.3-.753v2.259l1.3.753Zm1.683.972-1.3-.754v2.261l1.3.753Zm1.683.971-1.3-.753v2.261l1.3.753Zm1.683.972-1.3-.753v2.26l1.3.753Zm1.683.972-1.3-.753v2.261l1.3.752Zm-8.416-7.615-1.3-.753v2.261l1.3.753Zm1.684.972-1.3-.753v2.259l1.3.754Zm1.683.972-1.3-.753v2.26l1.3.753Zm1.683.972-1.3-.753v2.259l1.3.753Zm1.683.971-1.3-.753v2.261l1.3.753Zm1.683.972-1.3-.753v2.261l1.3.753Zm-8.416-7.615-1.3-.753v2.26l1.3.753Zm1.684.972-1.3-.753v2.26l1.3.753Zm1.683.971-1.3-.753v2.26l1.3.755Zm1.683.973-1.3-.753v2.259l1.3.753Zm1.683.972-1.3-.753v2.26l1.3.753Zm1.683.972-1.3-.753v2.26l1.3.753Zm-8.416-7.615-1.3-.754v2.26l1.3.753Zm1.684.971-1.3-.752v2.259l1.3.754Zm1.683.973-1.3-.754v2.261l1.3.753Zm1.683.972-1.3-.753v2.26l1.3.753Zm1.683.972-1.3-.754v2.261l1.3.754Zm1.683.972-1.3-.752V152l1.3.752Zm-8.416-7.615-1.3-.753v2.26l1.3.753Zm1.684.972-1.3-.753v2.26l1.3.753Zm1.683.972-1.3-.752v2.259l1.3.753Zm1.683.973-1.3-.754V147.3l1.3.753Zm1.683.971-1.3-.753v2.261l1.3.753Zm1.683.972-1.3-.753v2.26L66,150Zm-8.416-7.616-1.3-.753v2.261l1.3.754Zm1.684.972-1.3-.753V142.6l1.3.753Zm1.683.972-1.3-.753v2.259l1.3.754Zm1.683.972-1.3-.753v2.26l1.3.753Zm1.683.972-1.3-.753v2.259l1.3.753Zm1.683.972-1.3-.754v2.261l1.3.753Zm-8.416-7.615-1.3-.754v2.261l1.3.753Zm1.684.971-1.3-.753v2.261l1.3.753Zm1.683.972-1.3-.754v2.261l1.3.754Zm1.683.972-1.3-.754v2.261l1.3.753Zm1.683.972-1.3-.753v2.26l1.3.754Zm1.683.972-1.3-.753v2.26l1.3.754Zm-8.416-7.615-1.3-.753v2.261l1.3.753Zm1.684.973-1.3-.754v2.259l1.3.753Zm1.683.972-1.3-.753v2.26l1.3.753Zm1.683.972-1.3-.753v2.26l1.3.753Zm1.683.972-1.3-.753V140l1.3.753Zm1.683.972-1.3-.753v2.26l1.3.754Zm-8.416-7.615-1.3-.753v2.261l1.3.753Zm1.684.972-1.3-.753v2.26l1.3.753Zm1.683.972-1.3-.753v2.26l1.3.754Zm1.683.972-1.3-.753v2.259l1.3.753Zm1.683.971-1.3-.753v2.261l1.3.753Zm1.683.972-1.3-.753v2.261l1.3.753ZM57.581,129.1l-1.3-.753v2.26l1.3.754Zm1.684.972-1.3-.753v2.261l1.3.754Zm1.683.972-1.3-.753v2.261l1.3.753Zm1.683.972-1.3-.753v2.26l1.3.753Zm1.683.972-1.3-.753v2.26l1.3.754Zm1.683.972-1.3-.753v2.259l1.3.753Zm-8.416-7.615-1.3-.753v2.26l1.3.753Zm1.684.972-1.3-.754v2.261l1.3.753Zm1.683.972-1.3-.754v2.261l1.3.753Zm1.683.971-1.3-.753v2.261l1.3.754Zm1.683.972-1.3-.753v2.261l1.3.754ZM66,131.2l-1.3-.753v2.259l1.3.754Zm-8.416-7.615-1.3-.753v2.26l1.3.753Zm1.684.972-1.3-.753v2.26l1.3.753Zm1.683.972-1.3-.754v2.26l1.3.753Zm1.683.971-1.3-.753v2.261l1.3.753Zm1.683.972-1.3-.753v2.261l1.3.753Zm1.683.972-1.3-.753v2.26l1.3.753Zm-8.416-7.615-1.3-.754v2.26l1.3.753Zm1.684.971-1.3-.753v2.261l1.3.753Zm1.683.972-1.3-.753v2.261l1.3.753Zm1.683.972-1.3-.754v2.26l1.3.754Zm1.683.972-1.3-.754v2.261l1.3.753Zm1.683.971-1.3-.753V127.2l1.3.754Zm-8.416-7.694a1.057,1.057,0,0,0-.528-.915.517.517,0,0,0-.776.448v2.054l1.3.753Zm1.684.972a1.059,1.059,0,0,0-.528-.916.518.518,0,0,0-.776.448v2.054l1.3.753Zm1.683.971a1.057,1.057,0,0,0-.528-.915.517.517,0,0,0-.776.448v2.054l1.3.753Zm1.683.972a1.054,1.054,0,0,0-.528-.915.518.518,0,0,0-.776.448V122.5l1.3.753Zm1.683.972a1.057,1.057,0,0,0-.528-.915.518.518,0,0,0-.777.448v2.054l1.3.753Zm1.683.972a1.056,1.056,0,0,0-.528-.915.517.517,0,0,0-.776.448v2.054l1.3.753Zm16.489,46,1.3-.753v2.26l-1.3.753ZM80.8,172.088l1.3-.754v-2.26l-1.3.753Zm-1.683.971,1.3-.753v-2.259l-1.3.753Zm-1.683.973,1.3-.754v-2.259l-1.3.753ZM75.753,175l1.3-.753v-2.261l-1.3.754Zm6.733-6.643,1.3-.753v-2.261l-1.3.753Zm-1.684.972,1.3-.753v-2.261l-1.3.753Zm-1.683.972,1.3-.753V167.29l-1.3.753Zm-1.683.971,1.3-.753v-2.26l-1.3.753Zm-1.683.972,1.3-.753v-2.259l-1.3.753Zm6.733-6.642,1.3-.753V162.59l-1.3.754Zm-1.684.972,1.3-.753v-2.259l-1.3.752Zm-1.683.972,1.3-.753v-2.261l-1.3.754Zm-1.683.972,1.3-.753v-2.261l-1.3.754Zm-1.683.972,1.3-.754v-2.259l-1.3.753Zm6.733-6.643,1.3-.753v-2.261l-1.3.754Zm-1.684.971,1.3-.753v-2.259l-1.3.753Zm-1.683.972,1.3-.753v-2.26l-1.3.753Zm-1.683.972,1.3-.753v-2.26l-1.3.754Zm-1.683.972,1.3-.753v-2.261l-1.3.753Zm6.733-6.644,1.3-.753v-2.26l-1.3.753Zm-1.684.972,1.3-.753v-2.26l-1.3.753Zm-1.683.973,1.3-.754v-2.26l-1.3.753Zm-1.683.97,1.3-.753v-2.259l-1.3.754Zm-1.683.973,1.3-.753v-2.26l-1.3.753Zm6.733-6.644,1.3-.753v-2.261l-1.3.754Zm-1.684.972,1.3-.753v-2.261l-1.3.754Zm-1.683.972,1.3-.753v-2.261l-1.3.753Zm-1.683.972,1.3-.754v-2.26l-1.3.753Zm-1.683.972,1.3-.754v-2.26l-1.3.753Zm6.733-6.643,1.3-.754v-2.259l-1.3.753Zm-1.684.972,1.3-.753v-2.26l-1.3.753Zm-1.683.972,1.3-.753v-2.26l-1.3.754Zm-1.683.972,1.3-.753v-2.261l-1.3.753Zm-1.683.972,1.3-.753v-2.261l-1.3.754Zm6.733-6.644,1.3-.753V148.81l-1.3.753ZM80.8,152.8l1.3-.753v-2.261l-1.3.753Zm-1.683.972,1.3-.754v-2.259l-1.3.753Zm-1.683.972,1.3-.753v-2.261l-1.3.754Zm-1.683.972,1.3-.753V152.7l-1.3.752Zm6.733-6.643,1.3-.753v-2.261l-1.3.754Zm-1.684.972,1.3-.753v-2.26l-1.3.753Zm-1.683.972,1.3-.753V148l-1.3.753Zm-1.683.973,1.3-.753v-2.261l-1.3.753Zm-1.683.971,1.3-.754v-2.259l-1.3.753Zm6.733-6.643,1.3-.753V143.3l-1.3.753Zm-1.684.972,1.3-.753v-2.261l-1.3.754Zm-1.683.972,1.3-.754V145.24l-1.3.753Zm-1.683.972,1.3-.754v-2.261l-1.3.754Zm-1.683.971,1.3-.753v-2.26l-1.3.753Zm6.733-6.642,1.3-.754v-2.259l-1.3.753Zm-1.684.971,1.3-.752v-2.26l-1.3.753Zm-1.683.972,1.3-.753v-2.26l-1.3.753Zm-1.683.972,1.3-.753v-2.26l-1.3.754Zm-1.683.972,1.3-.753v-2.261l-1.3.753Zm6.733-6.644,1.3-.753v-2.26l-1.3.753Zm-1.684.972,1.3-.753v-2.261l-1.3.753Zm-1.683.972,1.3-.753v-2.261l-1.3.753Zm-1.683.972,1.3-.754V140.7l-1.3.753Zm-1.683.972,1.3-.753v-2.261l-1.3.754Zm6.733-6.643,1.3-.754V135.03l-1.3.753Zm-1.684.972,1.3-.753V136l-1.3.754Zm-1.683.972,1.3-.753v-2.26l-1.3.753Zm-1.683.972,1.3-.754v-2.26l-1.3.753Zm-1.683.972,1.3-.753v-2.261l-1.3.754Zm6.733-6.644,1.3-.753v-2.261l-1.3.754Zm-1.684.972,1.3-.753v-2.26L80.8,134Zm-1.683.972,1.3-.753v-2.26l-1.3.754Zm-1.683.973,1.3-.753v-2.262l-1.3.754Zm-1.683.972,1.3-.753v-2.261l-1.3.753Zm6.733-6.644,1.3-.753v-2.261l-1.3.753ZM80.8,133.5l1.3-.754v-2.259l-1.3.753Zm-1.683.971,1.3-.753v-2.259l-1.3.753Zm-1.683.972,1.3-.752v-2.261l-1.3.753Zm-1.683.972,1.3-.753v-2.259l-1.3.753Zm6.733-6.643,1.3-.753v-2.26l-1.3.752Zm-1.684.972,1.3-.753v-2.26l-1.3.753Zm-1.683.972,1.3-.753V128.7l-1.3.753Zm-1.683.971,1.3-.753v-2.259l-1.3.753Zm-1.683.972,1.3-.752v-2.26l-1.3.753Zm6.733-6.642,1.3-.754v-2.259l-1.3.753Zm-1.684.972,1.3-.754v-2.259l-1.3.753Zm-1.683.972,1.3-.753v-2.261l-1.3.754Zm-1.683.972,1.3-.753v-2.26l-1.3.753Zm-1.683.972,1.3-.754v-2.26l-1.3.753Zm6.733-6.643,1.3-.753v-2.261l-1.3.753Zm-1.684.972,1.3-.753v-2.26l-1.3.753Zm-1.683.972,1.3-.753v-2.26l-1.3.753Zm-1.683.972,1.3-.753v-2.259l-1.3.753Zm-1.683.972,1.3-.753v-2.261l-1.3.754Zm6.733-6.643,1.3-.753V118.7a.517.517,0,0,0-.776-.448,1.058,1.058,0,0,0-.528.915Zm-1.684.972,1.3-.753v-2.054a.517.517,0,0,0-.776-.448,1.055,1.055,0,0,0-.528.915Zm-1.683.972,1.3-.753v-2.054a.517.517,0,0,0-.776-.448,1.056,1.056,0,0,0-.528.915Zm-1.683.972,1.3-.754v-2.053a.517.517,0,0,0-.776-.448,1.055,1.055,0,0,0-.528.915Zm-1.683.972,1.3-.753v-2.054a.517.517,0,0,0-.776-.449,1.059,1.059,0,0,0-.528.916ZM51.988,168.948l-1.3-.753v-2.26l1.3.753Zm1.683-1.289-1.3-.753v2.26l1.3.753ZM51.988,164.1l-1.3-.753v2.26l1.3.753Zm1.683.972-1.3-.753v2.26l1.3.754Zm-1.683-3.563-1.3-.753v2.261l1.3.753Zm1.683.972-1.3-.753v2.261l1.3.753Zm-1.683-3.562-1.3-.753v2.26l1.3.753Zm1.683.972-1.3-.753v2.26l1.3.754Zm-1.683-3.562-1.3-.753v2.259l1.3.753Zm1.683.972-1.3-.753v2.26l1.3.753Zm-1.683-3.563-1.3-.753v2.261l1.3.754Zm1.683.973-1.3-.754v2.261l1.3.753Zm-1.683-3.563-1.3-.752v2.259l1.3.753Zm1.683.973-1.3-.754v2.261l1.3.753Zm-1.683-3.563-1.3-.753v2.259l1.3.754Zm1.683.972-1.3-.753v2.261l1.3.753Zm-1.683-3.562-1.3-.753v2.261l1.3.753Zm1.683.972-1.3-.753v2.26l1.3.754Zm-1.683-3.561-1.3-.754v2.26l1.3.753Zm1.683.971-1.3-.754v2.261l1.3.753Zm-1.683-3.562-1.3-.753v2.26l1.3.753Zm1.683.972-1.3-.753v2.26l1.3.753Zm-1.683-3.562-1.3-.753V139.7l1.3.753Zm1.683.972-1.3-.753v2.259l1.3.754ZM51.988,135.6l-1.3-.752v2.259l1.3.753Zm1.683.973-1.3-.754v2.261l1.3.753Zm-1.683-3.563-1.3-.753v2.26l1.3.754Zm1.683.972-1.3-.754v2.26l1.3.753Zm-1.683-3.563-1.3-.753v2.261l1.3.753Zm1.683.972-1.3-.753V132.9l1.3.754Zm-1.683-3.563-1.3-.753v2.26l1.3.754Zm1.683.972-1.3-.753v2.261l1.3.753Zm-1.683-3.561-1.3-.754v2.261l1.3.752Zm1.683.972-1.3-.753v2.26l1.3.753Zm-1.683-3.563-1.3-.752v2.261l1.3.753Zm1.683.973-1.3-.754v2.261l1.3.753Zm-1.683-3.563-1.3-.753v2.261l1.3.753Zm1.683.972-1.3-.754v2.261l1.3.753Zm-1.683-3.642a1.055,1.055,0,0,0-.528-.915.517.517,0,0,0-.776.448v2.054l1.3.753Zm1.683.971a1.058,1.058,0,0,0-.528-.915.517.517,0,0,0-.776.448v2.054l1.3.753Zm15.15,58.042-1.3-.753v2.261l1.3.753Zm1.683.973-1.3-.753v2.259l1.3.753Zm-1.683-3.562-1.3-.753v2.261l1.3.753Zm1.683.972-1.3-.753v2.26l1.3.753Zm-1.683-3.562-1.3-.753v2.261l1.3.753Zm1.683.972-1.3-.753v2.26l1.3.753Zm-1.683-3.562-1.3-.754v2.261l1.3.753Zm1.683.972-1.3-.753v2.26l1.3.753Zm-1.683-3.562-1.3-.753v2.261l1.3.753Zm1.683.973-1.3-.754v2.261l1.3.753Zm-1.683-3.562-1.3-.753v2.261l1.3.752Zm1.683.972-1.3-.753v2.259l1.3.754Zm-1.683-3.562-1.3-.754v2.261l1.3.753Zm1.683.972-1.3-.754v2.261l1.3.752Zm-1.683-3.562-1.3-.753v2.26l1.3.753Zm1.683.972-1.3-.753v2.26l1.3.753Zm-1.683-3.561-1.3-.754v2.26l1.3.753Zm1.683.971-1.3-.753v2.261l1.3.753ZM68.821,153.1l-1.3-.753v2.259l1.3.753Zm1.683.972-1.3-.754v2.261l1.3.753Zm-1.683-3.562-1.3-.753v2.259l1.3.753Zm1.683.972-1.3-.753v2.26l1.3.753Zm-1.683-3.561-1.3-.753v2.259l1.3.754Zm1.683.972-1.3-.753v2.26l1.3.753Zm-1.683-3.562-1.3-.753v2.26l1.3.753Zm1.683.972-1.3-.753v2.26l1.3.754Zm-1.683-3.562-1.3-.753v2.26l1.3.753Zm1.683.972-1.3-.753v2.261l1.3.753Zm-1.683-3.562-1.3-.753v2.26l1.3.753Zm1.683.972-1.3-.753v2.261l1.3.753Zm-1.683-3.56-1.3-.753v2.259l1.3.754Zm1.683.971-1.3-.753v2.261l1.3.753Zm-1.683-3.561-1.3-.753v2.261l1.3.752Zm1.683.972-1.3-.753v2.261l1.3.753Zm-1.683-3.561-1.3-.753v2.26l1.3.753Zm1.683.971-1.3-.753v2.261l1.3.754Zm-1.683-3.561-1.3-.754V131.3l1.3.754Zm1.683.972-1.3-.753v2.261l1.3.752Zm-1.683-3.641a1.057,1.057,0,0,0-.528-.915.517.517,0,0,0-.776.448v2.054l1.3.753Zm1.683.972a1.057,1.057,0,0,0-.528-.915.517.517,0,0,0-.776.448v2.055l1.3.753ZM54.356,167.683l1.3-.753v2.261l-1.3.753Zm0-.331,1.3-.753v-2.261l-1.3.753Zm0-2.592,1.3-.754v-2.26l-1.3.753Zm0-2.592,1.3-.753v-2.261l-1.3.754Zm0-2.591,1.3-.753v-2.261l-1.3.754Zm0-2.591,1.3-.753v-2.261l-1.3.754Zm0-2.591,1.3-.754v-2.26l-1.3.753Zm0-2.592,1.3-.753v-2.261l-1.3.754Zm0-2.592,1.3-.753V146.2l-1.3.754Zm0-2.591,1.3-.753v-2.261l-1.3.753Zm0-2.592,1.3-.753v-2.26l-1.3.753Zm0-2.591,1.3-.754v-2.259l-1.3.753Zm0-2.591,1.3-.753v-2.261l-1.3.754Zm0-2.592,1.3-.753v-2.26l-1.3.753Zm0-2.592,1.3-.752v-2.26l-1.3.753Zm0-2.591,1.3-.754v-2.259l-1.3.753Zm0-2.592,1.3-.752v-2.261l-1.3.753Zm0-2.591,1.3-.754v-2.26l-1.3.753Zm0-2.592,1.3-.754v-2.259l-1.3.753Zm0-2.592,1.3-.753v-2a.517.517,0,0,0-.776-.448,1.053,1.053,0,0,0-.528.915Zm33.831,47.015,1.3-.753v2.261l-1.3.753ZM86.5,170.951l1.3-.753v-2.261l-1.3.753Zm1.684-3.562,1.3-.753v-2.261l-1.3.752Zm-1.684.972,1.3-.754v-2.26l-1.3.753Zm1.684-3.563,1.3-.753v-2.26l-1.3.754Zm-1.684.973,1.3-.754v-2.261l-1.3.754Zm1.684-3.563,1.3-.752v-2.261l-1.3.753Zm-1.684.972,1.3-.753v-2.259l-1.3.753Zm1.684-3.562,1.3-.753V156.6l-1.3.753Zm-1.684.972,1.3-.753v-2.26l-1.3.753Zm1.684-3.562,1.3-.754v-2.26l-1.3.754ZM86.5,158l1.3-.753v-2.261l-1.3.754Zm1.684-3.563,1.3-.753v-2.26l-1.3.753Zm-1.684.972,1.3-.753V152.4l-1.3.753Zm1.684-3.562,1.3-.753v-2.26l-1.3.753Zm-1.684.972,1.3-.753v-2.26l-1.3.753Zm1.684-3.562,1.3-.753v-2.261l-1.3.753Zm-1.684.972,1.3-.753v-2.261l-1.3.753Zm1.684-3.562,1.3-.754v-2.26l-1.3.753Zm-1.684.972,1.3-.754v-2.26l-1.3.754Zm1.684-3.562,1.3-.753v-2.261l-1.3.754Zm-1.684.972,1.3-.754v-2.261l-1.3.754Zm1.684-3.563,1.3-.753v-2.261l-1.3.754Zm-1.684.972,1.3-.753v-2.261l-1.3.754Zm1.684-3.563,1.3-.753v-2.26l-1.3.753Zm-1.684.972,1.3-.753v-2.26l-1.3.754Zm1.684-3.562,1.3-.754v-2.259l-1.3.753Zm-1.684.972,1.3-.753v-2.26l-1.3.753Zm1.684-3.562,1.3-.753V130.7l-1.3.753Zm-1.684.972,1.3-.753v-2.261l-1.3.754Zm1.684-3.562,1.3-.754v-2.26l-1.3.754ZM86.5,132.1l1.3-.753v-2.261l-1.3.754Zm1.684-3.562,1.3-.752v-2.261l-1.3.753Zm-1.684.972,1.3-.754v-2.26l-1.3.754Zm1.684-3.562,1.3-.753V122.93l-1.3.753Zm-1.684.972,1.3-.753V123.9l-1.3.753Zm1.684-3.562,1.3-.753v-2.26l-1.3.753Zm-1.684.972,1.3-.754v-2.259l-1.3.753Zm1.684-3.562,1.3-.753v-2.054a.517.517,0,0,0-.776-.448,1.054,1.054,0,0,0-.528.915Zm-1.684.972,1.3-.753v-2.054a.517.517,0,0,0-.776-.449,1.059,1.059,0,0,0-.528.916ZM73.145,176.405l1.3-.753v2.261l-1.3.753Zm-1.683,3.232,1.3-.753v-2.259l-1.3.753Zm1.683-3.56,1.3-.753v-2.261l-1.3.753Zm-1.683.972,1.3-.753v-2.26l-1.3.753Zm1.683-3.562,1.3-.753v-2.261l-1.3.753Zm-1.683.972,1.3-.753v-2.26l-1.3.753Zm1.683-3.561,1.3-.753v-2.261l-1.3.754Zm-1.683.972,1.3-.753v-2.26l-1.3.753Zm1.683-3.561,1.3-.753v-2.261l-1.3.753Zm-1.683.972,1.3-.753v-2.261l-1.3.754Zm1.683-3.562,1.3-.752V162.7l-1.3.753Zm-1.683.973,1.3-.754v-2.259l-1.3.753Zm1.683-3.562,1.3-.753v-2.261l-1.3.754Zm-1.683.971,1.3-.752v-2.261l-1.3.754Zm1.683-3.561,1.3-.753v-2.26l-1.3.753Zm-1.683.972,1.3-.753V158.5l-1.3.753Zm1.683-3.561,1.3-.753v-2.26l-1.3.754Zm-1.683.972,1.3-.753v-2.261l-1.3.753Zm1.683-3.562,1.3-.753v-2.259l-1.3.753Zm-1.683.972,1.3-.753v-2.261l-1.3.754Zm1.683-3.562,1.3-.753v-2.259l-1.3.753Zm-1.683.973,1.3-.753v-2.26l-1.3.753Zm1.683-3.562,1.3-.754v-2.259l-1.3.753Zm-1.683.972,1.3-.753v-2.26l-1.3.753Zm1.683-3.562,1.3-.753v-2.26l-1.3.753Zm-1.683.972,1.3-.754v-2.26l-1.3.753ZM73.145,145l1.3-.753v-2.26l-1.3.753Zm-1.683.972,1.3-.753v-2.261l-1.3.753Zm1.683-3.562,1.3-.753V139.4l-1.3.753Zm-1.683.973,1.3-.753v-2.261l-1.3.753Zm1.683-3.562,1.3-.754v-2.259l-1.3.753Zm-1.683.972,1.3-.753V137.78l-1.3.753Zm1.683-3.562,1.3-.752v-2.261l-1.3.753Zm-1.683.972,1.3-.753V135.19l-1.3.753Zm1.683-3.562,1.3-.753v-2.26l-1.3.753Zm-1.683.972,1.3-.754V132.6l-1.3.753Zm1.683-3.562,1.3-.754v-2.261l-1.3.754Zm-1.683.971,1.3-.752v-2.261l-1.3.753Zm1.683-3.561,1.3-.753v-2.054a.517.517,0,0,0-.776-.448,1.057,1.057,0,0,0-.528.915Zm-1.683.972,1.3-.753v-2.055a.517.517,0,0,0-.776-.448,1.057,1.057,0,0,0-.528.915Zm14.283,40.582-1.3-.753V168l1.3.753Zm0-4.853-1.3-.753v2.261l1.3.753Zm0-2.591-1.3-.753v2.261l1.3.753Zm0-2.591-1.3-.753v2.26l1.3.754Zm0-2.591-1.3-.754v2.26l1.3.753Zm0-2.593-1.3-.753v2.26l1.3.754Zm0-2.591-1.3-.753v2.26l1.3.753Zm0-2.591-1.3-.753v2.259l1.3.754Zm0-2.591-1.3-.753v2.259l1.3.753Zm0-2.592-1.3-.754v2.26l1.3.753Zm0-2.592-1.3-.753v2.261l1.3.753Zm0-2.591-1.3-.754v2.261l1.3.753Zm0-2.592-1.3-.753v2.259l1.3.753Zm0-2.592-1.3-.753v2.26l1.3.753Zm0-2.592-1.3-.753v2.261l1.3.753Zm0-2.591-1.3-.753v2.261l1.3.753Zm0-2.591-1.3-.753v2.26l1.3.753Zm0-2.591-1.3-.753v2.26l1.3.753Zm0-2.592-1.3-.753v2.26l1.3.753Zm0-2.615a1.057,1.057,0,0,0-.528-.915.517.517,0,0,0-.776.448v2l1.3.752ZM67.213,140.171l-.838-.483v2.259l.838.484Zm0,5.512-.838-.484v2.261l.838.483Zm0-11.025-.838-.484v2.261l.838.484Zm0,8.269-.838-.484v2.26l.838.484Zm0-5.512-.838-.484v2.26l.838.484Zm0-13.769.466.27v-.091a1.058,1.058,0,0,0-.527-.915.518.518,0,0,0-.777.448v2.054l.838.484Zm0,2.745-.838-.484v2.261l.838.483Zm0,2.756-.838-.484v2.261l.838.483Zm0,2.756-.838-.483v2.26l.838.484Zm0,22.049-.838-.484v2.26l.838.484Zm0-5.512-.838-.484v2.261l.838.483Zm0,19.293-.838-.484v2.26l.838.484Zm0-2.756-.838-.484v2.261l.838.483Zm0,8.268-.838-.484v2.26l.838.484Zm0-2.756-.838-.483v2.259l.838.484Zm0-13.78-.838-.484v2.26l.838.483Zm0-5.512-.838-.484v2.26l.838.484Zm0,11.024-.838-.484V164l.838.484Zm0-2.756-.838-.483v2.259l.838.484Zm7.538,5.093.622-.359v-2.26l-.622.359Zm0-2.756.622-.36v-2.259l-.622.36Zm0-5.513.622-.358v-2.261l-.622.36Zm0-2.755.622-.36v-2.26l-.622.359Zm0,5.511.622-.359v-2.26l-.622.359Zm0,13.781.622-.36V170.2l-.622.36Zm0-5.512.622-.358v-2.261l-.622.359Zm0,8.268.622-.359v-2.26l-.622.36Zm0-5.512.622-.359v-2.261l-.622.359Zm0-35.829.622-.36v-2.26l-.622.358Zm0-2.756.622-.359v-2.261l-.622.359Zm0,19.293.622-.36v-2.26l-.622.359Zm.363-27.667a.519.519,0,0,0-.517,0,1.059,1.059,0,0,0-.528.916v.012l.682-.4v2.329l.622-.36v-2.054A.518.518,0,0,0,75.115,123.11ZM74.752,137l.622-.359v-2.261l-.622.36Zm0-8.269.622-.359v-2.26l-.622.36Zm0,19.293.622-.358V145.4l-.622.359Zm0-2.755.622-.36v-2.26l-.622.359Zm0-5.513.622-.36v-2.26l-.622.36Zm0,2.756.622-.36v-2.259l-.622.359Z" transform="translate(-50.684 -116.408)" fill="none"/>
    </clipPath>
    <linearGradient id="linear-gradient-12" x1="0.5" y1="1" x2="0.5" gradientUnits="objectBoundingBox">
      <stop offset="0" stop-color="#0f6e8c"/>
      <stop offset="1" stop-color="#96c9d9"/>
    </linearGradient>
    <linearGradient id="linear-gradient-13" x1="0.5" y1="1" x2="0.5" gradientUnits="objectBoundingBox">
      <stop offset="0" stop-color="#002530"/>
      <stop offset="1" stop-color="#96c9d9"/>
    </linearGradient>
    <filter id="Rectangle_19995" x="0" y="0" width="108" height="44" filterUnits="userSpaceOnUse">
      <feOffset dy="1" input="SourceAlpha"/>
      <feGaussianBlur stdDeviation="2" result="blur"/>
      <feFlood flood-opacity="0.129"/>
      <feComposite operator="in" in2="blur"/>
      <feComposite in="SourceGraphic"/>
    </filter>
    <filter id="Polygon_42" x="20" y="18" width="26" height="26" filterUnits="userSpaceOnUse">
      <feOffset dy="3" input="SourceAlpha"/>
      <feGaussianBlur stdDeviation="3" result="blur-2"/>
      <feFlood flood-opacity="0.161"/>
      <feComposite operator="in" in2="blur-2"/>
      <feComposite in="SourceGraphic"/>
    </filter>
    <filter id="Polygon_45" x="41.29" y="18" width="26" height="26" filterUnits="userSpaceOnUse">
      <feOffset dy="3" input="SourceAlpha"/>
      <feGaussianBlur stdDeviation="3" result="blur-3"/>
      <feFlood flood-opacity="0.161"/>
      <feComposite operator="in" in2="blur-3"/>
      <feComposite in="SourceGraphic"/>
    </filter>
    <filter id="Polygon_43" x="30.645" y="18" width="26" height="26" filterUnits="userSpaceOnUse">
      <feOffset dy="3" input="SourceAlpha"/>
      <feGaussianBlur stdDeviation="3" result="blur-4"/>
      <feFlood flood-opacity="0.161"/>
      <feComposite operator="in" in2="blur-4"/>
      <feComposite in="SourceGraphic"/>
    </filter>
    <filter id="Polygon_44" x="51.935" y="18" width="26" height="26" filterUnits="userSpaceOnUse">
      <feOffset dy="3" input="SourceAlpha"/>
      <feGaussianBlur stdDeviation="3" result="blur-5"/>
      <feFlood flood-opacity="0.161"/>
      <feComposite operator="in" in2="blur-5"/>
      <feComposite in="SourceGraphic"/>
    </filter>
    <filter id="Polygon_46" x="62.58" y="18" width="26" height="26" filterUnits="userSpaceOnUse">
      <feOffset dy="3" input="SourceAlpha"/>
      <feGaussianBlur stdDeviation="3" result="blur-6"/>
      <feFlood flood-opacity="0.161"/>
      <feComposite operator="in" in2="blur-6"/>
      <feComposite in="SourceGraphic"/>
    </filter>
  </defs>
  <g id="Group_10471" data-name="Group 10471" transform="translate(-173.047 -425.254)">
    <path id="Path_1587" data-name="Path 1587" d="M105.371,116.319l3.769-2.175v57.082l-3.769,2.176Z" transform="translate(137.647 363.589)" fill="#757066"/>
    <path id="Path_1588" data-name="Path 1588" d="M104.342,116.913l-1.884-1.088v57.083L104.342,174Z" transform="translate(138.675 362.995)" fill="#5c5850"/>
    <g id="Group_10470" data-name="Group 10470">
      <g id="Group_5008" data-name="Group 5008" transform="translate(193.073 514.682)">
        <path id="Path_1575" data-name="Path 1575" d="M61.143,171.267,28.158,190.311l34.871,20.134L96.012,191.4Z" transform="translate(-28.158 -171.267)" fill="#4d4d4d"/>
      </g>
      <path id="Path_1576" data-name="Path 1576" d="M82.921,97.817V154.9l-3.769-2.176V95.641Z" transform="translate(146.906 370.123)" fill="#575757"/>
      <path id="Path_1577" data-name="Path 1577" d="M73.325,97.817V154.9l3.769-2.176V95.641Z" transform="translate(148.964 370.123)" fill="#a19b8e"/>
      <path id="Path_1578" data-name="Path 1578" d="M50.019,112.461v57.082l3.769,2.177V114.637Z" transform="translate(157.195 364.183)" fill="url(#linear-gradient)"/>
      <path id="Path_1579" data-name="Path 1579" d="M58.759,114.144l13.191,7.615v57.082l-13.191-7.616Z" transform="translate(154.108 363.589)" fill="url(#linear-gradient)"/>
      <path id="Path_1580" data-name="Path 1580" d="M60.634,170.271l-1.3-.753v-2.261l1.3.753Zm1.684-1.289-1.3-.753v2.26l1.3.753Zm1.683.972-1.3-.753v2.261l1.3.753Zm1.683.972-1.3-.754v2.26l1.3.754Zm1.683.972-1.3-.755v2.261l1.3.753Zm1.683.971-1.3-.754v2.261l1.3.753Zm1.683.972-1.3-.753v2.26l1.3.753Zm-10.1-8.586-1.3-.753v2.259l1.3.753Zm1.684.972-1.3-.754v2.261l1.3.753ZM64,167.2l-1.3-.753v2.261l1.3.753Zm1.683.972-1.3-.753v2.26l1.3.753Zm1.683.972-1.3-.753v2.261l1.3.753Zm1.683.972-1.3-.753v2.259l1.3.753Zm1.683.971-1.3-.752v2.259l1.3.753Zm-10.1-8.586-1.3-.753v2.259l1.3.753Zm1.684.972-1.3-.753v2.26l1.3.753Zm1.683.972-1.3-.754v2.26l1.3.753Zm1.683.971-1.3-.753v2.261l1.3.753Zm1.683.972-1.3-.753v2.261l1.3.753Zm1.683.972-1.3-.753v2.26l1.3.753Zm1.683.972-1.3-.753v2.26l1.3.754Zm-10.1-8.587-1.3-.754v2.261l1.3.753Zm1.684.971-1.3-.753v2.261l1.3.754Zm1.683.973-1.3-.754v2.26l1.3.753Zm1.683.972-1.3-.753v2.26l1.3.753Zm1.683.972-1.3-.753v2.26l1.3.753Zm1.683.972-1.3-.753v2.26l1.3.753Zm1.683.972-1.3-.753v2.261l1.3.753Zm-10.1-8.586-1.3-.754v2.261l1.3.753Zm1.684.971-1.3-.753v2.261l1.3.753ZM64,158.93l-1.3-.753v2.26l1.3.753Zm1.683.972-1.3-.753v2.261l1.3.752Zm1.683.972-1.3-.753v2.259l1.3.753Zm1.683.972-1.3-.753v2.26l1.3.753Zm1.683.972-1.3-.754v2.261l1.3.753Zm-10.1-8.587-1.3-.753v2.26l1.3.753Zm1.684.972-1.3-.753v2.259l1.3.753Zm1.683.972-1.3-.754v2.261l1.3.753Zm1.683.971-1.3-.753v2.261l1.3.753Zm1.683.972-1.3-.753v2.26l1.3.753Zm1.683.972-1.3-.753V160.6l1.3.752Zm1.683.972-1.3-.753v2.259l1.3.754Zm-10.1-8.588-1.3-.753v2.261l1.3.753Zm1.684.972-1.3-.753v2.259l1.3.754Zm1.683.972-1.3-.753v2.26l1.3.753Zm1.683.972-1.3-.753V155.9l1.3.753Zm1.683.971-1.3-.753v2.261l1.3.753Zm1.683.972-1.3-.753v2.261l1.3.753Zm1.683.972-1.3-.753v2.26l1.3.753Zm-10.1-8.587-1.3-.753v2.26l1.3.753Zm1.684.972-1.3-.753v2.26l1.3.753Zm1.683.971-1.3-.753v2.26l1.3.755Zm1.683.973-1.3-.753v2.259l1.3.753Zm1.683.972-1.3-.753v2.26l1.3.753Zm1.683.972-1.3-.753v2.26l1.3.753Zm1.683.972-1.3-.753v2.26l1.3.754Zm-10.1-8.586-1.3-.754v2.26l1.3.753Zm1.684.971-1.3-.752v2.259l1.3.754Zm1.683.973-1.3-.754v2.261l1.3.753Zm1.683.972-1.3-.753v2.26l1.3.753Zm1.683.972-1.3-.754v2.261l1.3.754Zm1.683.972-1.3-.752v2.261l1.3.752Zm1.683.972-1.3-.753v2.26l1.3.754Zm-10.1-8.587-1.3-.753v2.26l1.3.753Zm1.684.972-1.3-.753v2.26l1.3.753Zm1.683.972-1.3-.752v2.259l1.3.753Zm1.683.973-1.3-.754v2.261l1.3.753Zm1.683.971-1.3-.753V148.6l1.3.753Zm1.683.972-1.3-.753v2.26l1.3.753Zm1.683.972-1.3-.753v2.261l1.3.752Zm-10.1-8.587-1.3-.753v2.261l1.3.754Zm1.684.972-1.3-.753v2.261l1.3.753Zm1.683.972-1.3-.753V143.9l1.3.754Zm1.683.972-1.3-.753v2.26l1.3.753Zm1.683.972-1.3-.753v2.259l1.3.753Zm1.683.972-1.3-.754v2.261l1.3.753Zm1.683.971-1.3-.753v2.261l1.3.753Zm-10.1-8.586-1.3-.754V139.2l1.3.753Zm1.684.971-1.3-.753v2.261l1.3.753Zm1.683.972-1.3-.754v2.261l1.3.754Zm1.683.972-1.3-.754v2.261l1.3.753Zm1.683.972-1.3-.753v2.26l1.3.754Zm1.683.972-1.3-.753v2.26l1.3.754Zm1.683.972-1.3-.754v2.26l1.3.753Zm-10.1-8.587-1.3-.753v2.261l1.3.753Zm1.684.973-1.3-.754v2.259l1.3.753Zm1.683.972-1.3-.753v2.26l1.3.753Zm1.683.972-1.3-.753v2.26l1.3.753Zm1.683.972-1.3-.753v2.26l1.3.753Zm1.683.972-1.3-.753v2.26l1.3.754Zm1.683.973-1.3-.754v2.259l1.3.753Zm-10.1-8.588-1.3-.753v2.261l1.3.753Zm1.684.972-1.3-.753v2.26l1.3.753Zm1.683.972-1.3-.753v2.26l1.3.754Zm1.683.972-1.3-.753V136.6l1.3.753Zm1.683.971-1.3-.753v2.261l1.3.753Zm1.683.972-1.3-.753v2.261l1.3.753Zm1.683.972-1.3-.753v2.26l1.3.753Zm-10.1-8.587-1.3-.753v2.26l1.3.754Zm1.684.972-1.3-.753V131.9l1.3.754Zm1.683.972-1.3-.753v2.261l1.3.753Zm1.683.972-1.3-.753v2.26l1.3.753Zm1.683.972-1.3-.753v2.26l1.3.754Zm1.683.972-1.3-.753v2.259l1.3.753Zm1.683.972-1.3-.754v2.261l1.3.753Zm-10.1-8.587-1.3-.753v2.26l1.3.753Zm1.684.972-1.3-.754v2.261l1.3.753Zm1.683.972-1.3-.754v2.261l1.3.753Zm1.683.971-1.3-.753v2.261l1.3.754Zm1.683.972-1.3-.753v2.261l1.3.754Zm1.683.972-1.3-.753v2.259l1.3.754Zm1.683.972-1.3-.753v2.26l1.3.753Zm-10.1-8.587-1.3-.753v2.26l1.3.753Zm1.684.972-1.3-.753v2.26l1.3.753Zm1.683.972-1.3-.754v2.26l1.3.753Zm1.683.971-1.3-.753v2.261l1.3.753Zm1.683.972-1.3-.753v2.261l1.3.753Zm1.683.972-1.3-.753v2.26l1.3.753Zm1.683.972-1.3-.753v2.261l1.3.753Zm-10.1-8.586-1.3-.754v2.26l1.3.753Zm1.684.971-1.3-.753v2.261l1.3.753ZM64,123.1l-1.3-.753v2.261l1.3.753Zm1.683.972-1.3-.754v2.26l1.3.754Zm1.683.972-1.3-.754v2.261l1.3.753Zm1.683.971-1.3-.753v2.261l1.3.754Zm1.683.972-1.3-.752v2.26l1.3.753Zm-10.1-8.666a1.057,1.057,0,0,0-.528-.915.517.517,0,0,0-.776.448v2.054l1.3.753Zm1.684.972a1.059,1.059,0,0,0-.528-.916.518.518,0,0,0-.776.448v2.054l1.3.753Zm1.683.971a1.057,1.057,0,0,0-.528-.915.517.517,0,0,0-.776.448v2.054l1.3.753Zm1.683.972a1.054,1.054,0,0,0-.528-.915.518.518,0,0,0-.776.448v2.054l1.3.753Zm1.683.972a1.057,1.057,0,0,0-.528-.915.518.518,0,0,0-.777.448V123.8l1.3.753Zm1.683.972a1.056,1.056,0,0,0-.528-.915.517.517,0,0,0-.776.448v2.054l1.3.753Zm1.683.972a1.058,1.058,0,0,0-.527-.915.518.518,0,0,0-.777.448v2.054l1.3.753Z" transform="translate(153.906 362.461)" fill="url(#linear-gradient-3)"/>
      <path id="Path_1581" data-name="Path 1581" d="M76.238,184.681l3.769,2.175V129.774L76.238,127.6Z" transform="translate(147.935 358.837)" fill="url(#linear-gradient-4)"/>
      <path id="Path_1582" data-name="Path 1582" d="M57.73,114.144l-1.885,1.088v57.083l1.885-1.089Z" transform="translate(155.137 363.589)" fill="#857f74"/>
      <path id="Path_1583" data-name="Path 1583" d="M96.285,115.824l-11.307,6.529v57.082l11.307-6.528Z" transform="translate(144.848 362.995)" fill="#757066"/>
      <path id="Path_1584" data-name="Path 1584" d="M95.254,169.824l1.3-.753v2.26l-1.3.753Zm-1.684,3.232,1.3-.754v-2.26l-1.3.753Zm-1.683.971,1.3-.753v-2.259l-1.3.753ZM90.2,175l1.3-.754v-2.259l-1.3.753Zm-1.683.972,1.3-.753v-2.261l-1.3.754Zm-1.684.972,1.3-.753v-2.26l-1.3.753Zm8.417-7.615,1.3-.753v-2.261l-1.3.753Zm-1.684.972,1.3-.753v-2.261l-1.3.753Zm-1.683.972,1.3-.753v-2.261l-1.3.753Zm-1.683.971,1.3-.753v-2.26l-1.3.753Zm-1.683.972,1.3-.753V170.2l-1.3.753Zm-1.684.972,1.3-.753v-2.261l-1.3.754Zm8.417-7.615,1.3-.753v-2.261l-1.3.754Zm-1.684.972,1.3-.753v-2.259l-1.3.752Zm-1.683.972,1.3-.753V165.5l-1.3.754Zm-1.683.972,1.3-.753v-2.261l-1.3.754Zm-1.683.972,1.3-.754v-2.259l-1.3.753Zm-1.684.972,1.3-.753v-2.261l-1.3.753Zm8.417-7.615,1.3-.753V160.8l-1.3.754Zm-1.684.971,1.3-.753v-2.259l-1.3.753Zm-1.683.972,1.3-.753v-2.26l-1.3.753Zm-1.683.972,1.3-.753v-2.26l-1.3.754Zm-1.683.972,1.3-.753V164.69l-1.3.753Zm-1.684.972,1.3-.753v-2.261l-1.3.753Zm8.417-7.616,1.3-.753v-2.26l-1.3.753Zm-1.684.972,1.3-.753v-2.26l-1.3.753ZM91.887,163l1.3-.754v-2.26l-1.3.753Zm-1.683.97,1.3-.753v-2.259l-1.3.754Zm-1.683.973,1.3-.753v-2.26l-1.3.753Zm-1.684.972,1.3-.753v-2.26l-1.3.753Zm8.417-7.615,1.3-.753V155.29l-1.3.754Zm-1.684.972,1.3-.753v-2.261l-1.3.754Zm-1.683.972,1.3-.753v-2.261l-1.3.753Zm-1.683.972,1.3-.754v-2.26l-1.3.753Zm-1.683.972,1.3-.754v-2.26l-1.3.753Zm-1.684.971,1.3-.753V160.15l-1.3.753Zm8.417-7.614,1.3-.754v-2.259l-1.3.753Zm-1.684.972,1.3-.753v-2.26l-1.3.753Zm-1.683.972,1.3-.753v-2.26l-1.3.754Zm-1.683.972,1.3-.753V155.45l-1.3.753Zm-1.683.972,1.3-.753v-2.261l-1.3.754Zm-1.684.972,1.3-.754v-2.26l-1.3.754Zm8.417-7.615,1.3-.753v-2.261l-1.3.753Zm-1.684.972,1.3-.753V150.75l-1.3.753Zm-1.683.972,1.3-.754v-2.259l-1.3.753Zm-1.683.972,1.3-.753v-2.261l-1.3.754Zm-1.683.972,1.3-.753v-2.259l-1.3.752Zm-1.684.972,1.3-.753v-2.261l-1.3.753Zm8.417-7.615,1.3-.753v-2.261l-1.3.754Zm-1.684.972,1.3-.753v-2.26l-1.3.753Zm-1.683.972,1.3-.753v-2.26l-1.3.753Zm-1.683.973,1.3-.753v-2.261l-1.3.753Zm-1.683.971,1.3-.754V150.91l-1.3.753Zm-1.684.972,1.3-.753v-2.26l-1.3.753Zm8.417-7.615,1.3-.753v-2.26l-1.3.753Zm-1.684.972,1.3-.753v-2.261l-1.3.754Zm-1.683.972,1.3-.754v-2.261l-1.3.753ZM90.2,150.2l1.3-.754v-2.261l-1.3.754Zm-1.683.971,1.3-.753v-2.26l-1.3.753Zm-1.684.972,1.3-.754v-2.26l-1.3.753Zm8.417-7.615,1.3-.754V141.51l-1.3.753Zm-1.684.971,1.3-.752v-2.26l-1.3.753Zm-1.683.972,1.3-.753v-2.26l-1.3.753Zm-1.683.972,1.3-.753v-2.26l-1.3.754Zm-1.683.972,1.3-.753V145.4l-1.3.753Zm-1.684.972,1.3-.753v-2.261l-1.3.753Zm8.417-7.616,1.3-.753v-2.26l-1.3.753Zm-1.684.972,1.3-.753v-2.261l-1.3.753Zm-1.683.972,1.3-.753V140.7l-1.3.753Zm-1.683.972,1.3-.754V141.67l-1.3.753Zm-1.683.972,1.3-.753v-2.261l-1.3.754Zm-1.684.972,1.3-.753v-2.26l-1.3.753Zm8.417-7.615,1.3-.754V136l-1.3.753Zm-1.684.972,1.3-.753v-2.261l-1.3.754Zm-1.683.972,1.3-.753v-2.26l-1.3.753Zm-1.683.972,1.3-.754v-2.26l-1.3.753Zm-1.683.972,1.3-.753v-2.261l-1.3.754Zm-1.684.972,1.3-.754v-2.259l-1.3.753Zm8.417-7.615,1.3-.753v-2.261l-1.3.754Zm-1.684.972,1.3-.753v-2.26l-1.3.753Zm-1.683.972,1.3-.753v-2.26l-1.3.754Zm-1.683.973,1.3-.753v-2.262l-1.3.754Zm-1.683.972,1.3-.753v-2.261l-1.3.753Zm-1.684.971,1.3-.753V138.1l-1.3.753Zm8.417-7.615,1.3-.753v-2.261l-1.3.753Zm-1.684.972,1.3-.754v-2.259l-1.3.753Zm-1.683.971,1.3-.753V132.43l-1.3.753Zm-1.683.972,1.3-.752V133.4l-1.3.753Zm-1.683.972,1.3-.753v-2.259l-1.3.753Zm-1.684.972,1.3-.753v-2.261l-1.3.754Zm8.417-7.615,1.3-.753v-2.26l-1.3.752Zm-1.684.972,1.3-.753V128.7l-1.3.753Zm-1.683.972,1.3-.753v-2.261l-1.3.753Zm-1.683.971,1.3-.753v-2.259l-1.3.753Zm-1.683.972,1.3-.752v-2.26l-1.3.753Zm-1.684.973,1.3-.754v-2.26l-1.3.753Zm8.417-7.615,1.3-.754v-2.259l-1.3.753Zm-1.684.972,1.3-.754v-2.259l-1.3.753Zm-1.683.972,1.3-.753v-2.261l-1.3.754ZM90.2,130.9l1.3-.753v-2.26l-1.3.753Zm-1.683.972,1.3-.754v-2.26l-1.3.753Zm-1.684.971,1.3-.752v-2.261l-1.3.753Zm8.417-7.614,1.3-.753v-2.261l-1.3.753Zm-1.684.972,1.3-.753v-2.26l-1.3.753Zm-1.683.972,1.3-.753v-2.26l-1.3.753Zm-1.683.972,1.3-.753v-2.259l-1.3.753Zm-1.683.972,1.3-.753V126.1l-1.3.754Zm-1.684.972,1.3-.754v-2.26l-1.3.753Zm8.417-7.615,1.3-.753v-2.054a.517.517,0,0,0-.776-.448,1.058,1.058,0,0,0-.528.915Zm-1.684.972,1.3-.753V120.64a.517.517,0,0,0-.776-.448,1.055,1.055,0,0,0-.528.915Zm-1.683.972,1.3-.753v-2.054a.517.517,0,0,0-.776-.448,1.056,1.056,0,0,0-.528.915Zm-1.683.972,1.3-.754v-2.053a.517.517,0,0,0-.776-.448,1.055,1.055,0,0,0-.528.915Zm-1.683.972,1.3-.753v-2.054a.517.517,0,0,0-.776-.449,1.059,1.059,0,0,0-.528.916Zm-1.684.972,1.3-.753v-2.054a.518.518,0,0,0-.776-.448,1.059,1.059,0,0,0-.528.916Z" transform="translate(144.192 361.82)" fill="url(#linear-gradient-5)"/>
      <path id="Path_1585" data-name="Path 1585" d="M84.979,125.918l3.436,3.012v52.086l-1.62.954Z" transform="translate(144.848 359.43)" fill="url(#linear-gradient-6)" style="mix-blend-mode: multiply;isolation: isolate"/>
      <path id="Path_1586" data-name="Path 1586" d="M82.065,129.772l3.769-2.18v57.082l-3.769,2.179Z" transform="translate(145.877 358.839)" fill="#757066"/>
      <g id="Group_5011" data-name="Group 5011" transform="translate(207.644 479.197)">
        <g id="Group_5009" data-name="Group 5009" transform="translate(0)">
          <path id="Path_1589" data-name="Path 1589" d="M51.988,168.948l-1.3-.753v-2.26l1.3.753Zm1.683-1.289-1.3-.753v2.26l1.3.753ZM51.988,164.1l-1.3-.753v2.26l1.3.753Zm1.683.972-1.3-.753v2.26l1.3.754Zm-1.683-3.563-1.3-.753v2.261l1.3.753Zm1.683.972-1.3-.753v2.261l1.3.753Zm-1.683-3.562-1.3-.753v2.26l1.3.753Zm1.683.972-1.3-.753v2.26l1.3.754Zm-1.683-3.562-1.3-.753v2.259l1.3.753Zm1.683.972-1.3-.753v2.26l1.3.753Zm-1.683-3.563-1.3-.753v2.261l1.3.754Zm1.683.973-1.3-.754v2.261l1.3.753Zm-1.683-3.563-1.3-.752v2.259l1.3.753Zm1.683.973-1.3-.754v2.261l1.3.753Zm-1.683-3.563-1.3-.753v2.259l1.3.754Zm1.683.972-1.3-.753v2.261l1.3.753Zm-1.683-3.562-1.3-.753v2.261l1.3.753Zm1.683.972-1.3-.753v2.26l1.3.754Zm-1.683-3.561-1.3-.754v2.26l1.3.753Zm1.683.971-1.3-.754v2.261l1.3.753Zm-1.683-3.562-1.3-.753v2.26l1.3.753Zm1.683.972-1.3-.753v2.26l1.3.753Zm-1.683-3.562-1.3-.753V139.7l1.3.753Zm1.683.972-1.3-.753v2.259l1.3.754ZM51.988,135.6l-1.3-.752v2.259l1.3.753Zm1.683.973-1.3-.754v2.261l1.3.753Zm-1.683-3.563-1.3-.753v2.26l1.3.754Zm1.683.972-1.3-.754v2.26l1.3.753Zm-1.683-3.563-1.3-.753v2.261l1.3.753Zm1.683.972-1.3-.753V132.9l1.3.754Zm-1.683-3.563-1.3-.753v2.26l1.3.754Zm1.683.972-1.3-.753v2.261l1.3.753Zm-1.683-3.561-1.3-.754v2.261l1.3.752Zm1.683.972-1.3-.753v2.26l1.3.753Zm-1.683-3.563-1.3-.752v2.261l1.3.753Zm1.683.973-1.3-.754v2.261l1.3.753Zm-1.683-3.563-1.3-.753v2.261l1.3.753Zm1.683.972-1.3-.754v2.261l1.3.753Zm-1.683-3.642a1.055,1.055,0,0,0-.528-.915.517.517,0,0,0-.776.448v2.054l1.3.753Zm1.683.971a1.058,1.058,0,0,0-.528-.915.517.517,0,0,0-.776.448v2.054l1.3.753Zm15.15,58.042-1.3-.753v2.261l1.3.753Zm1.683.973-1.3-.753v2.259l1.3.753Zm-1.683-3.562-1.3-.753v2.261l1.3.753Zm1.683.972-1.3-.753v2.26l1.3.753Zm-1.683-3.562-1.3-.753v2.261l1.3.753Zm1.683.972-1.3-.753v2.26l1.3.753Zm-1.683-3.562-1.3-.754v2.261l1.3.753Zm1.683.972-1.3-.753v2.26l1.3.753Zm-1.683-3.562-1.3-.753v2.261l1.3.753Zm1.683.973-1.3-.754v2.261l1.3.753Zm-1.683-3.562-1.3-.753v2.261l1.3.752Zm1.683.972-1.3-.753v2.259l1.3.754Zm-1.683-3.562-1.3-.754v2.261l1.3.753Zm1.683.972-1.3-.754v2.261l1.3.752Zm-1.683-3.562-1.3-.753v2.26l1.3.753Zm1.683.972-1.3-.753v2.26l1.3.753Zm-1.683-3.561-1.3-.754v2.26l1.3.753Zm1.683.971-1.3-.753v2.261l1.3.753ZM68.821,153.1l-1.3-.753v2.259l1.3.753Zm1.683.972-1.3-.754v2.261l1.3.753Zm-1.683-3.562-1.3-.753v2.259l1.3.753Zm1.683.972-1.3-.753v2.26l1.3.753Zm-1.683-3.561-1.3-.753v2.259l1.3.754Zm1.683.972-1.3-.753v2.26l1.3.753Zm-1.683-3.562-1.3-.753v2.26l1.3.753Zm1.683.972-1.3-.753v2.26l1.3.754Zm-1.683-3.562-1.3-.753v2.26l1.3.753Zm1.683.972-1.3-.753v2.261l1.3.753Zm-1.683-3.562-1.3-.753v2.26l1.3.753Zm1.683.972-1.3-.753v2.261l1.3.753Zm-1.683-3.56-1.3-.753v2.259l1.3.754Zm1.683.971-1.3-.753v2.261l1.3.753Zm-1.683-3.561-1.3-.753v2.261l1.3.752Zm1.683.972-1.3-.753v2.261l1.3.753Zm-1.683-3.561-1.3-.753v2.26l1.3.753Zm1.683.971-1.3-.753v2.261l1.3.754Zm-1.683-3.561-1.3-.754V131.3l1.3.754Zm1.683.972-1.3-.753v2.261l1.3.752Zm-1.683-3.641a1.057,1.057,0,0,0-.528-.915.517.517,0,0,0-.776.448v2.054l1.3.753Zm1.683.972a1.057,1.057,0,0,0-.528-.915.517.517,0,0,0-.776.448v2.055l1.3.753Z" transform="translate(-50.684 -116.408)" fill="url(#linear-gradient-7)"/>
          <path id="Path_1590" data-name="Path 1590" d="M56.361,168.244l1.3-.753v2.261l-1.3.753Zm0-.331,1.3-.753V164.9l-1.3.753Zm0-2.592,1.3-.754v-2.26l-1.3.753Zm0-2.592,1.3-.753v-2.261l-1.3.754Zm0-2.591,1.3-.753v-2.261l-1.3.754Zm0-2.591,1.3-.753v-2.261l-1.3.754Zm0-2.591,1.3-.754v-2.26l-1.3.753Zm0-2.592,1.3-.753V149.35l-1.3.754Zm0-2.592,1.3-.753v-2.261l-1.3.754Zm0-2.591,1.3-.753v-2.261l-1.3.753Zm0-2.592,1.3-.753v-2.26l-1.3.753Zm0-2.591,1.3-.754v-2.259l-1.3.753Zm0-2.591,1.3-.753v-2.261l-1.3.754Zm0-2.592,1.3-.753V133.8l-1.3.753Zm0-2.592,1.3-.752v-2.26l-1.3.753Zm0-2.591,1.3-.754v-2.259l-1.3.753Zm0-2.592,1.3-.752v-2.261l-1.3.753Zm0-2.591,1.3-.754v-2.26l-1.3.753Zm0-2.592,1.3-.754v-2.259l-1.3.753Zm0-2.592,1.3-.753v-2a.517.517,0,0,0-.776-.448,1.053,1.053,0,0,0-.528.915Z" transform="translate(-52.689 -116.969)" fill="url(#linear-gradient-8)"/>
        </g>
        <g id="Group_5010" data-name="Group 5010" transform="translate(20.778 1.031)">
          <path id="Path_1591" data-name="Path 1591" d="M107.744,168.281l1.3-.753v2.261l-1.3.753Zm-1.684,3.232,1.3-.753V168.5l-1.3.753Zm1.684-3.562,1.3-.753v-2.261l-1.3.752Zm-1.684.972,1.3-.754v-2.26l-1.3.753Zm1.684-3.563,1.3-.753v-2.26l-1.3.754Zm-1.684.973,1.3-.754v-2.261l-1.3.754Zm1.684-3.563,1.3-.752v-2.261l-1.3.753Zm-1.684.972,1.3-.753V160.73l-1.3.753Zm1.684-3.561,1.3-.753v-2.261l-1.3.753Zm-1.684.972,1.3-.753v-2.26l-1.3.753Zm1.684-3.562,1.3-.754v-2.26l-1.3.754Zm-1.684.972,1.3-.753v-2.261l-1.3.754ZM107.744,155l1.3-.753v-2.26l-1.3.753Zm-1.684.972,1.3-.753v-2.259l-1.3.753Zm1.684-3.562,1.3-.753V149.4l-1.3.753Zm-1.684.972,1.3-.753v-2.26l-1.3.753Zm1.684-3.562,1.3-.753v-2.261l-1.3.753Zm-1.684.972,1.3-.753v-2.261l-1.3.753Zm1.684-3.562,1.3-.754v-2.26l-1.3.753Zm-1.684.972,1.3-.754v-2.26l-1.3.754Zm1.684-3.561,1.3-.753v-2.261l-1.3.754Zm-1.684.972,1.3-.754V142.6l-1.3.754Zm1.684-3.563,1.3-.753v-2.261l-1.3.754Zm-1.684.972,1.3-.753v-2.261l-1.3.754Zm1.684-3.563,1.3-.753v-2.26l-1.3.753Zm-1.684.972,1.3-.753v-2.26l-1.3.754Zm1.684-3.562,1.3-.754v-2.259l-1.3.753Zm-1.684.972,1.3-.753v-2.26l-1.3.753Zm1.684-3.562,1.3-.753v-2.261l-1.3.753Zm-1.684.972,1.3-.753v-2.261l-1.3.754Zm1.684-3.562,1.3-.754v-2.26l-1.3.754Zm-1.684.971,1.3-.753v-2.261l-1.3.754Zm1.684-3.562,1.3-.752v-2.261l-1.3.753Zm-1.684.972,1.3-.754v-2.26l-1.3.754Zm1.684-3.562,1.3-.753v-2.261l-1.3.753Zm-1.684.972,1.3-.753v-2.26l-1.3.753Zm1.684-3.562,1.3-.753V120.9l-1.3.753Zm-1.684.972,1.3-.754v-2.259l-1.3.753Zm1.684-3.562,1.3-.753v-2.054a.517.517,0,0,0-.776-.448,1.054,1.054,0,0,0-.528.915Zm-1.684.972,1.3-.753v-2.054a.517.517,0,0,0-.776-.449,1.059,1.059,0,0,0-.528.916Z" transform="translate(-91.018 -118.002)" fill="url(#linear-gradient-9)"/>
          <path id="Path_1592" data-name="Path 1592" d="M84.489,181.718l1.3-.753v2.261l-1.3.753Zm-1.683,3.232,1.3-.753v-2.259l-1.3.753Zm1.683-3.56,1.3-.753v-2.261l-1.3.753Zm-1.683.972,1.3-.753v-2.26l-1.3.753Zm1.683-3.562,1.3-.753v-2.261l-1.3.753Zm-1.683.972,1.3-.753v-2.26l-1.3.753Zm1.683-3.561,1.3-.753V173.2l-1.3.754Zm-1.683.972,1.3-.753v-2.26l-1.3.753Zm1.683-3.561,1.3-.753v-2.261l-1.3.753Zm-1.683.972,1.3-.753v-2.261l-1.3.754Zm1.683-3.562,1.3-.752v-2.261l-1.3.753ZM82.806,172l1.3-.754V168.99l-1.3.753Zm1.683-3.562,1.3-.753v-2.261l-1.3.754Zm-1.683.971,1.3-.752V166.4l-1.3.754Zm1.683-3.561,1.3-.753v-2.26l-1.3.753Zm-1.683.972,1.3-.753v-2.26l-1.3.753Zm1.683-3.562,1.3-.753v-2.26l-1.3.754Zm-1.683.972,1.3-.753V161.22l-1.3.753Zm1.683-3.562,1.3-.753v-2.259l-1.3.753Zm-1.683.972,1.3-.753V158.63l-1.3.754Zm1.683-3.562,1.3-.753v-2.259l-1.3.753Zm-1.683.973,1.3-.753v-2.26l-1.3.753Zm1.683-3.562,1.3-.754V152.48l-1.3.753Zm-1.683.972,1.3-.753v-2.26l-1.3.753Zm1.683-3.562,1.3-.753v-2.26l-1.3.753Zm-1.683.972,1.3-.754v-2.26l-1.3.753Zm1.683-3.562,1.3-.753V147.3l-1.3.753Zm-1.683.972,1.3-.753v-2.261l-1.3.753Zm1.683-3.562,1.3-.753v-2.26l-1.3.753Zm-1.683.973,1.3-.753v-2.261l-1.3.753Zm1.683-3.562,1.3-.754v-2.259l-1.3.753Zm-1.683.972,1.3-.753v-2.261l-1.3.753Zm1.683-3.562,1.3-.752v-2.261l-1.3.753Zm-1.683.972,1.3-.753V140.5l-1.3.753Zm1.683-3.562,1.3-.753v-2.26l-1.3.753Zm-1.683.972,1.3-.754v-2.261l-1.3.753Zm1.683-3.562,1.3-.754v-2.261l-1.3.754Zm-1.683.971,1.3-.752v-2.261l-1.3.753Zm1.683-3.561,1.3-.753v-2.054a.517.517,0,0,0-.776-.448,1.057,1.057,0,0,0-.528.915Zm-1.683.972,1.3-.753V132.94a.517.517,0,0,0-.776-.448,1.057,1.057,0,0,0-.528.915Z" transform="translate(-82.806 -122.752)" fill="url(#linear-gradient-10)"/>
          <path id="Path_1593" data-name="Path 1593" d="M104.175,172.165l-1.3-.753v-2.26l1.3.753Zm0-4.853-1.3-.753v2.261l1.3.753Zm0-2.591-1.3-.753v2.261l1.3.753Zm0-2.591-1.3-.753v2.26l1.3.754Zm0-2.591-1.3-.754v2.26l1.3.753Zm0-2.593-1.3-.753v2.26l1.3.754Zm0-2.591-1.3-.753v2.26l1.3.753Zm0-2.591-1.3-.753v2.259l1.3.754Zm0-2.591-1.3-.753v2.259l1.3.753Zm0-2.592-1.3-.754v2.26l1.3.753Zm0-2.592-1.3-.753V145.5l1.3.753Zm0-2.591-1.3-.754v2.261l1.3.753Zm0-2.592-1.3-.753v2.259l1.3.753Zm0-2.592-1.3-.753v2.26l1.3.753Zm0-2.592-1.3-.753v2.261l1.3.753Zm0-2.591-1.3-.753v2.261l1.3.753Zm0-2.591-1.3-.753v2.26l1.3.753Zm0-2.591-1.3-.753v2.26l1.3.753Zm0-2.592-1.3-.753v2.26l1.3.753Zm0-2.615a1.057,1.057,0,0,0-.528-.915.517.517,0,0,0-.776.448v2l1.3.752Z" transform="translate(-89.892 -118.587)" fill="url(#linear-gradient-11)"/>
        </g>
      </g>
      <g id="Group_5015" data-name="Group 5015" transform="translate(207.214 465.764)">
        <path id="Path_1594" data-name="Path 1594" d="M55.673,107.609l13.191,7.615-1.885,1.088,3.769,2.176,3.769-2.18-1.884-1.083L83.939,108.7l1.884,1.088,3.769-2.175-3.769-2.177-1.884,1.088L70.748,98.9l1.885-1.087-3.769-2.176-3.769,2.176,1.884,1.088-11.306,6.528-1.885-1.088-3.769,2.176,3.769,2.176Z" transform="translate(-50.019 -95.641)" fill="#c9c2b2"/>
        <path id="Path_1595" data-name="Path 1595" d="M89.123,107.935l-2.735,1.58L84.5,108.427,72.16,115.552l1.885,1.085-2.732,1.58-2.735-1.578,1.885-1.088-14.226-8.212-1.885,1.088-2.734-1.58,2.734-1.578,1.885,1.088,12.341-7.126-1.885-1.089,2.735-1.578,2.733,1.578-.6.345-1.288.744L84.5,107.445l1.883-1.088Z" transform="translate(-50.584 -95.967)" fill="#918a78"/>
        <g id="Group_5012" data-name="Group 5012" transform="translate(1.035 0.597)">
          <path id="Path_1596" data-name="Path 1596" d="M81.885,98.142l-.6.345-2.137-1.233v-.69Z" transform="translate(-61.342 -96.564)" fill="#a19b8e"/>
          <path id="Path_1597" data-name="Path 1597" d="M77.659,96.564v.69l-2.137,1.234-.6-.346Z" transform="translate(-59.849 -96.564)" fill="#757066"/>
          <path id="Path_1598" data-name="Path 1598" d="M71.1,100.687v.689L58.759,108.5v-.689Z" transform="translate(-54.141 -98.02)" fill="#757066"/>
          <path id="Path_1599" data-name="Path 1599" d="M55.845,110.021v.689L57.73,111.8v-.689Z" transform="translate(-53.112 -101.317)" fill="#a19b8e"/>
          <path id="Path_1600" data-name="Path 1600" d="M54.353,110.021v.689l-2.136,1.234-.6-.345Z" transform="translate(-51.619 -101.317)" fill="#757066"/>
          <path id="Path_1601" data-name="Path 1601" d="M79.723,125.915v.69l-1.238.715L77.838,127Z" transform="translate(-60.878 -106.93)" fill="#757066"/>
          <path id="Path_1602" data-name="Path 1602" d="M83.375,125.918v.691l1.261.755.624-.36Z" transform="translate(-62.834 -106.931)" fill="#a19b8e"/>
          <path id="Path_1603" data-name="Path 1603" d="M105.371,111.7v.689l2.129,1.238.606-.35Z" transform="translate(-70.602 -101.911)" fill="#a19b8e"/>
          <path id="Path_1604" data-name="Path 1604" d="M102.458,112.791v.689l1.885-1.088V111.7Z" transform="translate(-69.573 -101.911)" fill="#757066"/>
          <path id="Path_1605" data-name="Path 1605" d="M94.691,108.9v.689l-14.226-8.214v-.689Z" transform="translate(-61.806 -98.02)" fill="#a19b8e"/>
        </g>
        <g id="Group_5014" data-name="Group 5014" transform="translate(12.98 7.547)">
          <path id="Path_1606" data-name="Path 1606" d="M77.087,116.034c-3.926,0-7-1.915-7-4.362s3.076-4.363,7-4.363,7,1.917,7,4.363S81.014,116.034,77.087,116.034Zm0-7.346c-3.047,0-5.622,1.366-5.622,2.984s2.575,2.983,5.622,2.983,5.622-1.366,5.622-2.983S80.135,108.688,77.087,108.688Z" transform="translate(-70.086 -107.309)" fill="#736d5f"/>
          <g id="Group_5013" data-name="Group 5013" transform="translate(2.601 1.851)">
            <path id="Path_1607" data-name="Path 1607" d="M78.18,110.17l1.161.668-4.182,2.414-1.053-.626,2.5-1.508Z" transform="translate(-74.106 -110.17)" fill="#736d5f"/>
            <path id="Path_1608" data-name="Path 1608" d="M83.328,113.134l1.192.7-4.155,2.4-1.11-.641Z" transform="translate(-75.924 -111.217)" fill="#736d5f"/>
            <path id="Path_1609" data-name="Path 1609" d="M82.153,114.087,77.645,111.5l-1.021.608L81.1,114.69Z" transform="translate(-74.995 -110.641)" fill="#736d5f"/>
          </g>
        </g>
      </g>
      <g id="Group_5019" data-name="Group 5019" transform="translate(207.644 479.197)">
        <g id="Group_5018" data-name="Group 5018" transform="translate(0)" clip-path="url(#clip-path)">
          <g id="Group_5017" data-name="Group 5017" transform="translate(-0.43 22.815)">
            <g id="Group_5016" data-name="Group 5016">
              <path id="Path_1610" data-name="Path 1610" d="M50.019,151.68l3.738,2.136,1.916-1.128,7.516,4.34v8.808l3.79,2.2v2.282l3.769,2.1v22.939l-3.769-2.175V191.01l-11.306-6.528-1.885,1.089-3.769-2.177Z" transform="translate(-50.019 -151.68)" fill="url(#linear-gradient-12)" style="mix-blend-mode: multiply;isolation: isolate"/>
            </g>
            <path id="Path_1611" data-name="Path 1611" d="M82.065,174.765l3.769-2.194v-7.818l9.422-5.189,1.791.975,3.863-2.224v28.51L97.14,189l-1.884-1.088-9.423,5.441v2.171L82.065,197.7Z" transform="translate(-61.336 -154.023)" fill="url(#linear-gradient-13)" style="mix-blend-mode: multiply;isolation: isolate"/>
          </g>
        </g>
      </g>
      <g id="Group_10466" data-name="Group 10466" transform="matrix(0.875, 0.485, -0.485, 0.875, 227.146, 42.677)">
        <g id="Group_10458" data-name="Group 10458" transform="translate(196.016 369.818) rotate(-31)">
          <path id="Path_29270" data-name="Path 29270" d="M10.441,0,5.221,16.64,0,0Z" transform="translate(0 0)" fill="#c4e5f2"/>
        </g>
        <path id="Path_29272" data-name="Path 29272" d="M7.145,0,3.573,16.64,0,0Z" transform="translate(199.133 368.969) rotate(-31)" fill="#4bbef7"/>
      </g>
      <g id="Group_10469" data-name="Group 10469" transform="translate(22.047 85.254)">
        <g transform="matrix(1, 0, 0, 1, 151, 340)" filter="url(#Rectangle_19995)">
          <rect id="Rectangle_19995-2" data-name="Rectangle 19995" width="96" height="32" rx="16" transform="translate(6 5)" fill="#fff"/>
        </g>
        <g id="Group_10468" data-name="Group 10468" transform="translate(3 2)">
          <g id="Group_10464" data-name="Group 10464" transform="translate(31.645 -38.342)">
            <g id="Group_10465" data-name="Group 10465" transform="translate(-37 42)">
              <g transform="matrix(1, 0, 0, 1, 153.35, 334.34)" filter="url(#Polygon_42)">
                <path id="Polygon_42-2" data-name="Polygon 42" d="M4,0l.96,3.033L8,3.056l-2.447,1.9L6.472,8,4,6.14,1.528,8l.919-3.047L0,3.056l3.04-.023Z" transform="translate(29 24)" fill="#f1cd51"/>
              </g>
              <g transform="matrix(1, 0, 0, 1, 153.35, 334.34)" filter="url(#Polygon_45)">
                <path id="Polygon_45-2" data-name="Polygon 45" d="M4,0l.96,3.033L8,3.056l-2.447,1.9L6.472,8,4,6.14,1.528,8l.919-3.047L0,3.056l3.04-.023Z" transform="translate(50.29 24)" fill="#f1cd51"/>
              </g>
              <g transform="matrix(1, 0, 0, 1, 153.35, 334.34)" filter="url(#Polygon_43)">
                <path id="Polygon_43-2" data-name="Polygon 43" d="M4,0l.96,3.033L8,3.056l-2.447,1.9L6.472,8,4,6.14,1.528,8l.919-3.047L0,3.056l3.04-.023Z" transform="translate(39.65 24)" fill="#f1cd51"/>
              </g>
              <g transform="matrix(1, 0, 0, 1, 153.35, 334.34)" filter="url(#Polygon_44)">
                <path id="Polygon_44-2" data-name="Polygon 44" d="M4,0l.96,3.033L8,3.056l-2.447,1.9L6.472,8,4,6.14,1.528,8l.919-3.047L0,3.056l3.04-.023Z" transform="translate(60.94 24)" fill="#f1cd51"/>
              </g>
              <g transform="matrix(1, 0, 0, 1, 153.35, 334.34)" filter="url(#Polygon_46)">
                <path id="Polygon_46-2" data-name="Polygon 46" d="M4,0l.96,3.033L8,3.056l-2.447,1.9L6.472,8,4,6.14,1.528,8l.919-3.047L0,3.056l3.04-.023Z" transform="translate(71.58 24)" fill="#f1cd51"/>
              </g>
            </g>
          </g>
          <g id="Group_10467" data-name="Group 10467" transform="translate(4.645 -2)">
            <text id="_240k" data-name="240k" transform="translate(175 360)" fill="#4bbef7" font-size="12" font-family="Roboto-Bold, Roboto" font-weight="700"><tspan x="0" y="0">240k</tspan></text>
            <text id="AED" transform="translate(204 360)" fill="rgba(75,190,247,0.49)" font-size="8" font-family="Roboto-Bold, Roboto" font-weight="700"><tspan x="0" y="0">AED</tspan></text>
          </g>
        </g>
      </g>
    </g>
  </g>
</svg>
