<svg xmlns="http://www.w3.org/2000/svg" xmlns:xlink="http://www.w3.org/1999/xlink" width="272.172" height="272.172" viewBox="0 0 272.172 272.172">
  <defs>
    <clipPath id="clip-path">
      <rect id="Rectangle_18797" data-name="Rectangle 18797" width="272.172" height="272.172" transform="translate(1489 734)" fill="#32a7e2" stroke="#707070" stroke-width="1"/>
    </clipPath>
  </defs>
  <g id="Mask_Group_520" data-name="Mask Group 520" transform="translate(-1489 -734)" clip-path="url(#clip-path)">
    <path id="icons8_home" d="M210.825,1.275a10.7,10.7,0,0,0-10.677,10.677V63L143.763,6.613a10.977,10.977,0,0,0-15.348,0L3.3,132.065a10.616,10.616,0,0,0,15.014,15.014L136.088,29.3,254.2,147.412a11.119,11.119,0,0,0,7.674,3.336,10.371,10.371,0,0,0,7.34-3.336,10.574,10.574,0,0,0,0-15.015L232.178,95.364V11.952A10.7,10.7,0,0,0,221.5,1.275ZM136.088,48.986,18.645,166.43v58.722a32.038,32.038,0,0,0,32.03,32.03H221.5a32.038,32.038,0,0,0,32.03-32.03V166.43ZM114.735,150.415h42.707a10.7,10.7,0,0,1,10.677,10.677v64.06a10.7,10.7,0,0,1-10.677,10.677H114.735a10.7,10.7,0,0,1-10.677-10.677v-64.06A10.7,10.7,0,0,1,114.735,150.415Z" transform="translate(1488.818 740.857)" fill="#32a7e2"/>
  </g>
</svg>
