<svg xmlns="http://www.w3.org/2000/svg" xmlns:xlink="http://www.w3.org/1999/xlink" width="16" height="16" viewBox="0 0 16 16">
  <defs>
    <clipPath id="clip-path">
      <rect id="Rectangle_19111" data-name="Rectangle 19111" width="16" height="16" transform="translate(994 1859)" fill="#4bbef7" stroke="#707070" stroke-width="1"/>
    </clipPath>
  </defs>
  <g id="Mask_Group_601" data-name="Mask Group 601" transform="translate(-994 -1859)" clip-path="url(#clip-path)">
    <path id="icons8_fridge" d="M4.48,1.92A1.28,1.28,0,0,0,3.2,3.2V7.68H16V3.2a1.28,1.28,0,0,0-1.28-1.28Zm.64,1.92a.64.64,0,0,1,.64.64V5.76a.64.64,0,0,1-1.28,0V4.48A.64.64,0,0,1,5.12,3.84ZM3.2,8.96V16a1.28,1.28,0,0,0,1.28,1.28.64.64,0,1,0,1.28,0h7.68a.64.64,0,1,0,1.28,0A1.28,1.28,0,0,0,16,16V8.96Zm1.92,1.28a.64.64,0,0,1,.64.64v2.56a.64.64,0,1,1-1.28,0V10.88A.64.64,0,0,1,5.12,10.24Z" transform="translate(992.4 1857.08)" fill="#4bbef7"/>
  </g>
</svg>
