<svg xmlns="http://www.w3.org/2000/svg" width="48" height="48" viewBox="0 0 48 48">
  <g id="Group_4185" data-name="Group 4185" transform="translate(481 350)">
    <g id="Group_4187" data-name="Group 4187">
      <circle id="Ellipse_155" data-name="Ellipse 155" cx="24" cy="24" r="24" transform="translate(-481 -350)" fill="#1c75bc"/>
      <path id="Path_271" data-name="Path 271" d="M272.644,37.5a1.47,1.47,0,1,1-2.072,2.071l-6.388-7.015a4.049,4.049,0,0,1-1.477-.328L265.04,29.9l1.52,1.52ZM259.2,29.8l2.872-2.872-2.91-2.911-6-6a.833.833,0,0,0-.714-.25.686.686,0,0,0-.526.685c-.2,1.951,1.227,5.337,6.312,10.421C258.569,29.209,258.89,29.516,259.2,29.8Zm5.336-8,.37-.37.006-.006Zm10.746-.649a.74.74,0,0,0-1-.176l-4.552,4.551a.772.772,0,0,1-1.058-1.058l4.552-4.552a.883.883,0,0,0-1.173-1.173L267.5,23.289a.772.772,0,0,1-1.057-1.058L271,17.683a.882.882,0,0,0-1.173-1.173l-4.917,4.916c-1.6,1.607-1.089,2.725-.175,3.738L252.08,37.815a1.47,1.47,0,1,0,2.071,2.071L266.8,27.235c1.014.915,2.134,1.429,3.744-.181l4.911-4.91A.741.741,0,0,0,275.281,21.147Z" transform="translate(-720.586 -354.381)" fill="#fff" opacity="0.89"/>
    </g>
  </g>
</svg>
