<svg xmlns="http://www.w3.org/2000/svg" xmlns:xlink="http://www.w3.org/1999/xlink" width="24" height="24" viewBox="0 0 24 24">
  <defs>
    <clipPath id="clip-path">
      <rect id="Rectangle_19281" data-name="Rectangle 19281" width="24" height="24" transform="translate(-11592 -16079)" fill="#fff" stroke="#707070" stroke-width="1"/>
    </clipPath>
  </defs>
  <g id="Mask_Group_646" data-name="Mask Group 646" transform="translate(11592 16079)" clip-path="url(#clip-path)">
    <path id="icons8_service_1" d="M12.306,1.043a.524.524,0,0,0-.513.428l-.277,1.516a4.882,4.882,0,0,0-.758.308L9.513,2.4a.517.517,0,0,0-.67.053l-1.114,1.1a.52.52,0,0,0-.061.666l.874,1.265a5.212,5.212,0,0,0-.318.756l-1.516.245a.522.522,0,0,0-.438.511l-.01,1.565a.521.521,0,0,0,.428.515l1.52.277a5.017,5.017,0,0,0,.308.752l-.9,1.251a.522.522,0,0,0,.051.672l1.1,1.112a.52.52,0,0,0,.666.061l1.28-.882a5.219,5.219,0,0,0,.752.312l.259,1.534a.524.524,0,0,0,.511.436L13.8,14.6h0a.523.523,0,0,0,.515-.434l.259-1.532a4.9,4.9,0,0,0,.742-.306l1.273.9a.522.522,0,0,0,.668-.053l1.112-1.1a.523.523,0,0,0,.059-.672l-.9-1.267a4.9,4.9,0,0,0,.312-.74l1.54-.261a.524.524,0,0,0,.436-.511l.008-1.565a.519.519,0,0,0-.434-.515l-1.528-.259a5.074,5.074,0,0,0-.3-.75l.9-1.267a.522.522,0,0,0-.053-.668L17.3,2.5a.523.523,0,0,0-.674-.059l-1.253.892a4.788,4.788,0,0,0-.746-.316l-.245-1.522a.522.522,0,0,0-.511-.438l-1.565-.01Zm.713,4.711a2.094,2.094,0,1,1-1.471.6A2.082,2.082,0,0,1,13.019,5.754ZM7.522,14.6a5.4,5.4,0,0,0-2.39.479l-.275.11C3.6,15.682,1.43,16.7,1.339,16.748a.52.52,0,0,0-.251.693c.124.261,2.445,5.409,2.565,5.6a.52.52,0,0,0,.719.157l1.288-.823c.538-.338.748-.426,1.52-.033l1.039.53c1.176.6,2.787,1.42,3.3,1.663a4.51,4.51,0,0,0,1.95.505,3.988,3.988,0,0,0,2.19-.77c.124-.077.249-.155.375-.226.884-.5,7.066-4.539,7.714-4.99a2.661,2.661,0,0,0,1.275-1.656.994.994,0,0,0-.456-1.078c-.595-.4-1.557.2-1.557.2L18.158,19.7c-.261.878-1.078,1.685-2.771,1.685H12.648a15.9,15.9,0,0,1-3.193-.473l-.2-.049a.522.522,0,0,1,.132-1.027.936.936,0,0,1,.145.02,15.555,15.555,0,0,0,3.115.485h2.738c1.2,0,1.826-.489,1.826-1.3,0-.748-.595-1.3-1.826-1.3a13.45,13.45,0,0,1-3.382-.5c-.77-.208-1.412-1.828-2.812-2.394A4.7,4.7,0,0,0,7.522,14.6Zm10.5.01a3.638,3.638,0,0,0-1.7.473l-2.418,1.506a11.478,11.478,0,0,0,1.479.1,3.958,3.958,0,0,1,.858.1l2.769-1.718a2.357,2.357,0,0,1,.238-.132A2.38,2.38,0,0,0,18.027,14.614Zm3.1.709c-.077,0-.159,0-.247.012a2.154,2.154,0,0,0-.713.247L17.4,17.3a2.175,2.175,0,0,1,.768,1.145l3.164-2.074.9-.593a1.42,1.42,0,0,0-.159-.153.13.13,0,0,0-.026-.02,1.2,1.2,0,0,0-.2-.128l-.045-.018a1.284,1.284,0,0,0-.263-.09l-.051-.01a1.853,1.853,0,0,0-.355-.035Z" transform="translate(-11593.039 -16080.039)" fill="#fff"/>
  </g>
</svg>
