<svg xmlns="http://www.w3.org/2000/svg" width="48" height="48" viewBox="0 0 48 48">
  <g id="Group_4200" data-name="Group 4200" transform="translate(-177 -377)">
    <g id="Group_4205" data-name="Group 4205" transform="translate(20)">
      <g id="Group_4187" data-name="Group 4187" transform="translate(638 727)">
        <circle id="Ellipse_155" data-name="Ellipse 155" cx="24" cy="24" r="24" transform="translate(-481 -350)" fill="#f28a13"/>
      </g>
      <g id="Group_4193" data-name="Group 4193" transform="translate(170 393)">
        <g id="Group_4086" data-name="Group 4086">
          <path id="Path_194" data-name="Path 194" d="M3483.5,1584.732c-1.438-.028-2.878-.014-4.316,0a.706.706,0,0,0-.712.531c-1.062,3.717-2,7.474-3.087,11.176-4.778.056-9.555-.014-14.333.028a.763.763,0,0,0,.027,1.523c4.917.027,9.82,0,14.739.014a.861.861,0,0,0,.936-.7c1.006-3.688,2-7.362,3.031-11.036,1.271-.112,2.57.056,3.842-.083A.759.759,0,0,0,3483.5,1584.732Z" transform="translate(-3459.207 -1584.716)" fill="#fff"/>
          <path id="Path_195" data-name="Path 195" d="M3439.532,1615.253h11.734a.811.811,0,0,0,.921-.573c.769-2.836,1.481-5.672,2.236-8.507a.788.788,0,0,0-.8-1.062c-5.533.014-11.051-.028-16.583.028-.516.042-.711.67-.544,1.1.712,2.78,1.4,5.588,2.124,8.368A.83.83,0,0,0,3439.532,1615.253Zm7.488-1.55c-.965,0-1.928,0-2.893-.014a4.083,4.083,0,0,1-.1-1.16c.992,0,2.011-.014,3,.014C3447.2,1612.879,3447.047,1613.326,3447.02,1613.7Zm.209-2.808a16.5,16.5,0,0,1-3.325.042,7.9,7.9,0,0,1-.07-1.285,26.113,26.113,0,0,1,3.465.042A8.5,8.5,0,0,1,3447.229,1610.9Zm1.83-4.246c1.2-.028,2.416-.028,3.632,0a7.728,7.728,0,0,1-.377,1.453c-1.09.028-2.193.014-3.283,0A3.911,3.911,0,0,1,3449.06,1606.649Zm-.2,3c1-.056,2.025-.014,3.045-.014-.113.432-.1.992-.405,1.312-.895.057-1.8.029-2.7.029A5.262,5.262,0,0,1,3448.864,1609.652Zm-.209,2.892c.851-.028,1.689-.014,2.527,0a8.271,8.271,0,0,1-.308,1.131c-.739.056-1.494.028-2.249.028A6.4,6.4,0,0,1,3448.655,1612.544Zm-5.015-5.909c1.284,0,2.569-.014,3.854.014,0,.475-.042.964-.083,1.439-1.229.042-2.445.028-3.674.014A5.715,5.715,0,0,1,3443.64,1606.635Zm-1.1,7.054c-.852.014-1.7.028-2.556,0a5.609,5.609,0,0,1-.293-1.16c.921,0,1.83-.014,2.751.014A4.453,4.453,0,0,1,3442.535,1613.689Zm-.2-2.724a27.883,27.883,0,0,1-3.059-.028,6.86,6.86,0,0,1-.322-1.285,29.013,29.013,0,0,1,3.3.027A6.616,6.616,0,0,1,3442.34,1610.965Zm-4.135-4.33c1.3.014,2.584-.042,3.869.042a12.075,12.075,0,0,1,.07,1.439c-1.187,0-2.375.014-3.562-.014A7.21,7.21,0,0,1,3438.205,1606.635Z" transform="translate(-3436.442 -1604.132)" fill="#fff"/>
          <path id="Path_196" data-name="Path 196" d="M3506.093,1872.9a1.814,1.814,0,1,0,2.333,1.313A1.807,1.807,0,0,0,3506.093,1872.9Z" transform="translate(-3501.563 -1857.966)" fill="#fff"/>
          <path id="Path_197" data-name="Path 197" d="M3695.182,1872.788a1.815,1.815,0,0,0-1.411,1.509,1.812,1.812,0,1,0,1.411-1.509Z" transform="translate(-3681.448 -1857.913)" fill="#fff"/>
        </g>
      </g>
    </g>
  </g>
</svg>
