<svg xmlns="http://www.w3.org/2000/svg" xmlns:xlink="http://www.w3.org/1999/xlink" width="16" height="16" viewBox="0 0 16 16">
  <defs>
    <clipPath id="clip-path">
      <rect id="Rectangle_19112" data-name="Rectangle 19112" width="16" height="16" transform="translate(994 1903)" fill="#4bbef7" stroke="#707070" stroke-width="1"/>
    </clipPath>
  </defs>
  <g id="Mask_Group_602" data-name="Mask Group 602" transform="translate(-994 -1903)" clip-path="url(#clip-path)">
    <path id="icons8_alarm_1" d="M9.231,1.846A1.23,1.23,0,0,0,8,3.077v.18A4.308,4.308,0,0,0,4.923,7.385v1.7a6.3,6.3,0,0,1-1.846,4.457.615.615,0,0,0,0,1.231H15.385a.615.615,0,0,0,0-1.231,6.3,6.3,0,0,1-1.846-4.457v-1.7a4.308,4.308,0,0,0-3.077-4.127v-.18A1.23,1.23,0,0,0,9.231,1.846Zm-6.8,3.07a.615.615,0,0,0-.523.347A6.688,6.688,0,0,0,1.231,8a6.688,6.688,0,0,0,.68,2.737.615.615,0,0,0,1.1-.551A6.083,6.083,0,0,1,2.462,8a6.083,6.083,0,0,1,.55-2.186.615.615,0,0,0-.578-.9Zm13.576,0a.615.615,0,0,0-.56.9A6.083,6.083,0,0,1,16,8a6.083,6.083,0,0,1-.55,2.186.615.615,0,1,0,1.1.551A6.688,6.688,0,0,0,17.231,8a6.687,6.687,0,0,0-.68-2.737A.615.615,0,0,0,16.01,4.916ZM7.385,16a1.846,1.846,0,1,0,3.692,0Z" transform="translate(992.77 1901.154)" fill="#4bbef7"/>
  </g>
</svg>
