<svg xmlns="http://www.w3.org/2000/svg" xmlns:xlink="http://www.w3.org/1999/xlink" width="508" height="508" viewBox="0 0 508 508">
  <defs>
    <clipPath id="clip-path">
      <rect id="Rectangle_18414" data-name="Rectangle 18414" width="508" height="508" transform="translate(1647 358.226)" fill="#e8f1ff" stroke="#707070" stroke-width="1"/>
    </clipPath>
  </defs>
  <g id="Mask_Group_372" data-name="Mask Group 372" transform="translate(-1647 -358.226)" clip-path="url(#clip-path)">
    <path id="icons8_trash_can" d="M118.584-.031A17.875,17.875,0,0,0,100.74,17.813v60.8c-57.5,6.526-97.151,19.744-97.151,35.027v29.079c0,5.948,6.361,11.4,17.183,16.522,28.336,13.3,89.633,22.47,160.6,22.47,71.046,0,132.178-9.17,160.6-22.47,10.739-5.122,17.183-10.574,17.183-16.522V113.642c0-15.779-42.877-29.492-103.761-35.688V17.813A17.875,17.875,0,0,0,237.546-.031Zm17.844,32.384h83.934c1.817,0,2.644,8.509,2.644,19.166V75.311c-13.467-.661-27.1-1.322-41.637-1.322-15.034,0-29.739.578-43.619,1.322l-4.626.661V51.518C133.124,40.861,134.694,32.353,136.428,32.353ZM28.7,202.2a11.4,11.4,0,0,0-3.3,5.948v1.322a7.043,7.043,0,0,0,0,1.322l11.9,248.5c1.074,19.5,23.627,48.906,144.074,48.906s143-29.409,144.075-48.906l11.9-248.5V208.15a10.852,10.852,0,0,0-3.3-5.948c-15.531,15.778-78.07,17.844-152.667,17.844S44.317,217.98,28.7,202.2Z" transform="translate(1719.744 358.032)" fill="#e8f1ff"/>
  </g>
</svg>
