<svg xmlns="http://www.w3.org/2000/svg" xmlns:xlink="http://www.w3.org/1999/xlink" width="16" height="16" viewBox="0 0 16 16">
  <defs>
    <clipPath id="clip-path">
      <rect id="Rectangle_19118" data-name="Rectangle 19118" width="16" height="16" transform="translate(270 1903)" fill="#4bbef7" stroke="#707070" stroke-width="1"/>
    </clipPath>
  </defs>
  <g id="Mask_Group_596" data-name="Mask Group 596" transform="translate(-270 -1903)" clip-path="url(#clip-path)">
    <path id="icons8_dishwasher" d="M4.444,2.667A1.791,1.791,0,0,0,2.667,4.444V16.889a1.791,1.791,0,0,0,1.778,1.778H16.889a1.791,1.791,0,0,0,1.778-1.778V4.444a1.791,1.791,0,0,0-1.778-1.778ZM9.778,4.444a.889.889,0,1,1-.889.889A.889.889,0,0,1,9.778,4.444Zm2.667,0a.889.889,0,1,1-.889.889A.889.889,0,0,1,12.444,4.444Zm2.667,0a.889.889,0,1,1-.889.889A.889.889,0,0,1,15.111,4.444ZM4.444,8H16.889v8.889H4.444ZM5.778,9.778a.445.445,0,0,0-.444.444v.889A2.036,2.036,0,0,0,7.111,13.1v1.122H6.667a.444.444,0,0,0,0,.889H8.444a.444.444,0,1,0,0-.889H8V13.1a2.036,2.036,0,0,0,1.778-1.99v-.889a.445.445,0,0,0-.444-.444Zm6.023.009a.317.317,0,0,0-.245.307v4.7a.318.318,0,0,0,.389.307,1.785,1.785,0,0,0,1.389-1.734V11.521a1.786,1.786,0,0,0-1.389-1.734A.317.317,0,0,0,11.8,9.786Zm2.667,0a.317.317,0,0,0-.245.307v4.7a.318.318,0,0,0,.389.307A1.785,1.785,0,0,0,16,13.368V11.521a1.786,1.786,0,0,0-1.389-1.734A.317.317,0,0,0,14.467,9.786Z" transform="translate(267.334 1900.334)" fill="#4bbef7"/>
  </g>
</svg>
