<svg xmlns="http://www.w3.org/2000/svg" xmlns:xlink="http://www.w3.org/1999/xlink" width="129.391" height="129.391" viewBox="0 0 129.391 129.391">
  <defs>
    <clipPath id="clip-path">
      <rect id="Rectangle_18404" data-name="Rectangle 18404" width="129.391" height="129.391" fill="#36a5db" stroke="#707070" stroke-width="1"/>
    </clipPath>
  </defs>
  <g id="Mask_Group_371" data-name="Mask Group 371" clip-path="url(#clip-path)">
    <path id="icons8_future" d="M114.916,28.56V8.624a8.267,8.267,0,1,0-16.534,0v4.51A63.248,63.248,0,1,0,114.916,28.56ZM64.064,124.107A57.871,57.871,0,1,1,103.893,24.3V8.624a2.756,2.756,0,0,1,5.511,0v25.3h-25.3a2.756,2.756,0,1,1,0-5.511h16.115a52.33,52.33,0,1,0,16.2,37.827A54.112,54.112,0,0,0,110.7,42.167l4.93-2.465a59.54,59.54,0,0,1,6.308,26.535A57.934,57.934,0,0,1,64.064,124.107Zm5.511-57.741a5.5,5.5,0,0,1-.2,1.41L88.058,86.463l-3.9,3.9L65.474,71.672a5.487,5.487,0,0,1-4.166-10.054V22.273h5.511V61.618A5.479,5.479,0,0,1,69.575,66.365Z" transform="translate(0.632 -0.357)" fill="#36a5db"/>
  </g>
</svg>
