<svg xmlns="http://www.w3.org/2000/svg" xmlns:xlink="http://www.w3.org/1999/xlink" width="307.15" height="307.15" viewBox="0 0 307.15 307.15">
  <defs>
    <clipPath id="clip-path">
      <rect id="Rectangle_18404" data-name="Rectangle 18404" width="307.15" height="307.15" fill="#345d9a" stroke="#707070" stroke-width="1"/>
    </clipPath>
  </defs>
  <g id="Mask_Group_371" data-name="Mask Group 371" clip-path="url(#clip-path)">
    <path id="icons8_website_1" d="M154.271.7A153.575,153.575,0,1,0,307.846,154.271,153.57,153.57,0,0,0,154.271.7Zm0,13.354c63.381,0,117.007,42.306,134.3,100.158H274.564a126.929,126.929,0,0,0-21.414-39.124,174.789,174.789,0,0,1-29.082,10.433,208.7,208.7,0,0,1,6.99,28.691H217.548a192.775,192.775,0,0,0-6.391-25.639,282.212,282.212,0,0,1-50.209,5.451v20.188H147.594V94.02a282.145,282.145,0,0,1-50.183-5.477,190.192,190.192,0,0,0-6.417,25.665H77.483a212.547,212.547,0,0,1,6.99-28.691A178.419,178.419,0,0,1,55.365,75.083a127.711,127.711,0,0,0-21.388,39.124H19.945C37.264,56.356,90.89,14.05,154.271,14.05Zm-6.677,14.032c-8.294,1.617-16.328,6.208-23.918,13.8-8.582,8.555-15.832,20.266-21.6,34.038a271.428,271.428,0,0,0,45.514,4.747Zm13.354,0V80.666a268.407,268.407,0,0,0,45.514-4.774c-5.817-13.9-13.171-25.717-21.857-34.3C177.093,34.186,169.138,29.7,160.948,28.083Zm-48.7,6.547A127.067,127.067,0,0,0,64.728,64.65a168.238,168.238,0,0,0,24.258,8.268C95.141,57.713,102.966,44.567,112.251,34.629Zm83.987,0c9.311,9.938,17.136,23.083,23.317,38.289a164.079,164.079,0,0,0,24.258-8.268A126.856,126.856,0,0,0,196.238,34.629ZM14.05,127.562H28.083l10.224,36.7,12.363-36.7h16.3l11.867,37.324,10.433-37.324h13.772L86.586,180.98H72.058L58.547,141.047,45.089,180.98H30.247Zm95.723,0H123.78L134,164.261l12.416-36.7H162.7l11.894,37.324,10.381-37.324h13.8L182.31,180.98H167.781l-13.511-39.933L140.812,180.98H125.971Zm95.385,0h14.085l10.25,36.7,12.442-36.7h16.354l11.92,37.324,10.433-37.324h13.85L277.955,180.98H263.4l-13.563-39.933L236.3,180.98H221.408Zm12.39,66.772h13.511a212.544,212.544,0,0,1-6.99,28.691,178.417,178.417,0,0,1,29.109,10.433,127.458,127.458,0,0,0,21.388-39.124h14.007c-17.293,57.826-70.919,100.158-134.3,100.158S37.264,252.186,19.945,194.334H33.977a126.934,126.934,0,0,0,21.414,39.124,174.848,174.848,0,0,1,29.082-10.433,208.7,208.7,0,0,1-6.99-28.691H90.994a192.776,192.776,0,0,0,6.391,25.639,282.213,282.213,0,0,1,50.209-5.451V194.334h13.354v20.188A282.085,282.085,0,0,1,211.131,220,190.23,190.23,0,0,0,217.548,194.334Zm-69.954,33.542a268.3,268.3,0,0,0-45.279,4.747c11.007,26.108,27.178,44.184,45.279,47.809Zm13.354,0v52.557c8.294-1.617,16.328-6.208,23.918-13.8,8.582-8.529,15.832-20.24,21.6-34.012A271.426,271.426,0,0,0,160.948,227.876Zm58.608,7.747c-6.155,15.206-13.98,28.352-23.265,38.29a127.07,127.07,0,0,0,47.523-30.021A168.236,168.236,0,0,0,219.556,235.623Zm-130.779.026A168.974,168.974,0,0,0,64.7,243.865a127.419,127.419,0,0,0,47.158,29.89C102.732,263.949,94.933,250.934,88.777,235.649Z" transform="translate(-0.696 -0.696)" fill="#345d9a"/>
  </g>
</svg>
