<svg xmlns="http://www.w3.org/2000/svg" xmlns:xlink="http://www.w3.org/1999/xlink" width="24" height="24" viewBox="0 0 24 24">
  <defs>
    <clipPath id="clip-path">
      <rect id="Rectangle_19025" data-name="Rectangle 19025" width="24" height="24" transform="translate(246 805)" fill="#46494c" stroke="#707070" stroke-width="1"/>
    </clipPath>
  </defs>
  <g id="Mask_Group_561" data-name="Mask Group 561" transform="translate(-246 -805)" clip-path="url(#clip-path)">
    <path id="icons8_location" d="M21.333,0A5.333,5.333,0,0,0,16,5.333c0,4.26,4.444,5.333,4.444,7.111a.889.889,0,0,0,1.778,0c0-1.778,4.444-2.852,4.444-7.111A5.333,5.333,0,0,0,21.333,0Zm-8,2.667A10.667,10.667,0,1,0,24,13.333c0-.192-.018-.378-.028-.568A2.659,2.659,0,0,1,22.059,15a8.907,8.907,0,0,1-.246,1H18.505a22.446,22.446,0,0,0,.161-2.667c0-.249-.014-.487-.023-.731a9.636,9.636,0,0,0-.877-.814c-.32-.276-.678-.589-1.04-.939a19.51,19.51,0,0,1,.161,2.484A19.637,19.637,0,0,1,16.71,16H9.957a19.97,19.97,0,0,1,0-5.333h6.589a8.864,8.864,0,0,1-1.372-1.778H10.3c.675-2.7,1.9-4.444,3.035-4.444a1.531,1.531,0,0,1,.915.365,7.04,7.04,0,0,1,.462-2.043A10.815,10.815,0,0,0,13.333,2.667Zm8,.889a1.778,1.778,0,1,1-1.778,1.778A1.777,1.777,0,0,1,21.333,3.556ZM9.833,5.165A12.721,12.721,0,0,0,8.455,8.889H5.648A8.944,8.944,0,0,1,9.833,5.165Zm-4.979,5.5H8.161a22.1,22.1,0,0,0,0,5.333H4.854a8.883,8.883,0,0,1,0-5.333Zm.793,7.111H8.455A12.721,12.721,0,0,0,9.832,21.5,8.944,8.944,0,0,1,5.648,17.778Zm4.651,0h6.07c-.675,2.7-1.9,4.444-3.035,4.444S10.973,20.479,10.3,17.778Zm7.911,0h2.809A8.936,8.936,0,0,1,16.833,21.5,12.721,12.721,0,0,0,18.21,17.778Z" transform="translate(243.334 805)" fill="#46494c"/>
  </g>
</svg>
