<?xml version="1.0" encoding="UTF-8"?>
<svg xmlns="http://www.w3.org/2000/svg" xmlns:xlink="http://www.w3.org/1999/xlink" viewBox="0 0 50 50" version="1.1" fill="#36393b"><g id="surface1" fill="#36393b"><path style=" " d="M 9 3 C 8.449219 3 8 3.449219 8 4 L 8 41 C 8 41.554688 8.449219 42 9 42 L 46 42 C 46.554688 42 47 41.554688 47 41 L 47 35 C 47 34.445313 46.554688 34 46 34 L 16 34 L 16 4 C 16 3.449219 15.550781 3 15 3 Z M 4 8 C 3.449219 8 3 8.449219 3 9 L 3 15 C 3 15.550781 3.449219 16 4 16 L 6 16 L 6 8 Z M 18 8 L 18 16 L 34 16 L 34 32 L 42 32 L 42 9 C 42 8.449219 41.554688 8 41 8 Z M 34 44 L 34 46 C 34 46.554688 34.445313 47 35 47 L 41 47 C 41.554688 47 42 46.554688 42 46 L 42 44 Z " fill="#36393b"/></g></svg>
