<svg xmlns="http://www.w3.org/2000/svg" xmlns:xlink="http://www.w3.org/1999/xlink" width="16" height="16" viewBox="0 0 16 16">
  <defs>
    <clipPath id="clip-path">
      <rect id="Rectangle_19116" data-name="Rectangle 19116" width="16" height="16" transform="translate(994 1947)" fill="#4bbef7" stroke="#707070" stroke-width="1"/>
    </clipPath>
  </defs>
  <g id="Mask_Group_603" data-name="Mask Group 603" transform="translate(-994 -1947)" clip-path="url(#clip-path)">
    <path id="icons8_balcony" d="M4.545,1.455A.545.545,0,0,0,4,2V9.091H5.091V2.545h7.273V9.091h1.091V2a.545.545,0,0,0-.545-.545ZM6.364,3.273a.55.55,0,0,0-.11.011.539.539,0,0,0-.1.031.548.548,0,0,0-.333.5V9.091h5.818V3.818a.545.545,0,0,0-.545-.545ZM2.482,7.4a1.754,1.754,0,1,0,0,3.509h.04a4.974,4.974,0,0,0-.522,2,4.959,4.959,0,0,0,.516,1.985H2.364a.545.545,0,1,0,0,1.091L11.741,16a.545.545,0,0,0,.162,0l3.187,0a.545.545,0,1,0,0-1.091h-.159a4.973,4.973,0,0,0,.522-2,4.973,4.973,0,0,0-.522-2h.138a.546.546,0,0,0,.289-.079,1.739,1.739,0,0,0,1.367-1.675A1.763,1.763,0,0,0,14.973,7.4a.545.545,0,1,0,0,1.091.663.663,0,1,1,0,1.327H8.817a.546.546,0,0,0-.177,0H2.482a.663.663,0,1,1,0-1.327.545.545,0,1,0,0-1.091Zm1.226,3.509H5.1V14.9l-1.4,0a4.38,4.38,0,0,1-.611-1.987A4.391,4.391,0,0,1,3.707,10.909Zm2.487,0H8.182V14.9l-1.988,0Zm3.079,0h2v4l-2,0Zm3.1,0h1.379a4.391,4.391,0,0,1,.616,2,4.389,4.389,0,0,1-.616,2H12.369Z" transform="translate(993.273 1946.271)" fill="#4bbef7"/>
  </g>
</svg>
