<svg xmlns="http://www.w3.org/2000/svg" xmlns:xlink="http://www.w3.org/1999/xlink" width="24" height="24" viewBox="0 0 24 24">
  <defs>
    <clipPath id="clip-path">
      <rect id="Rectangle_3" data-name="Rectangle 3" width="24" height="24" transform="translate(-146 168)" fill="#fff" stroke="#707070" stroke-width="1"/>
    </clipPath>
  </defs>
  <g id="Mask_Group_3" data-name="Mask Group 3" transform="translate(146 -168)" clip-path="url(#clip-path)">
    <path id="icons8_bed" d="M6,4.8A2.4,2.4,0,0,0,3.6,7.2v6H6V10.8A1.2,1.2,0,0,1,7.2,9.6H12a1.2,1.2,0,0,1,1.2,1.2v2.4h2.4V10.8a1.2,1.2,0,0,1,1.2-1.2h4.8a1.2,1.2,0,0,1,1.2,1.2v2.4h2.4v-6a2.4,2.4,0,0,0-2.4-2.4ZM4.8,15.6A2.4,2.4,0,0,0,2.4,18v8.4H4.8V24H24v2.4h2.4V18A2.4,2.4,0,0,0,24,15.6Z" transform="translate(-148.4 164.4)" fill="#9c9dfe"/>
  </g>
</svg>
