<svg xmlns="http://www.w3.org/2000/svg" xmlns:xlink="http://www.w3.org/1999/xlink" width="24" height="24" viewBox="0 0 24 24">
  <defs>
    <clipPath id="clip-path">
      <rect id="Rectangle_19297" data-name="Rectangle 19297" width="24" height="24" transform="translate(-11127 -16416)" fill="#46494c" stroke="#707070" stroke-width="1"/>
    </clipPath>
  </defs>
  <g id="Mask_Group_691" data-name="Mask Group 691" transform="translate(11127 16416)" clip-path="url(#clip-path)">
    <path id="icons8_bed" d="M6,4.8A2.4,2.4,0,0,0,3.6,7.2V12A1.2,1.2,0,1,0,6,12V10.8A1.2,1.2,0,0,1,7.2,9.6H12a1.2,1.2,0,0,1,1.2,1.2V12a1.2,1.2,0,1,0,2.4,0V10.8a1.2,1.2,0,0,1,1.2-1.2h4.8a1.2,1.2,0,0,1,1.2,1.2V12a1.2,1.2,0,1,0,2.4,0V7.2a2.4,2.4,0,0,0-2.4-2.4ZM4.8,15.6A2.4,2.4,0,0,0,2.4,18v7.2a1.2,1.2,0,1,0,2.4,0V24H24v1.2a1.2,1.2,0,0,0,2.4,0V18A2.4,2.4,0,0,0,24,15.6Z" transform="translate(-11129.4 -16419.6)" fill="#46494c"/>
  </g>
</svg>
