<svg xmlns="http://www.w3.org/2000/svg" xmlns:xlink="http://www.w3.org/1999/xlink" width="66" height="66" viewBox="0 0 66 66">
  <defs>
    <clipPath id="clip-path">
      <rect id="Rectangle_18341" data-name="Rectangle 18341" width="66" height="66" transform="translate(0.387 0.498)" fill="#32a7e2" stroke="#707070" stroke-width="1"/>
    </clipPath>
  </defs>
  <g id="Mask_Group_347" data-name="Mask Group 347" transform="translate(-0.387 -0.498)" clip-path="url(#clip-path)">
    <path id="icons8_twitter_squared" d="M68.529,4.8a43.507,43.507,0,0,1-10.8,4.219c-.089.023-.162.053-.248.076A14.872,14.872,0,0,0,32.158,19.678c0,.433-.036,1.23,0,1.653-11.087,0-19.525-5.806-25.575-13.226a20.134,20.134,0,0,0-.946,6.719c0,4.632,3.621,9.182,9.258,12a13.552,13.552,0,0,1-3.373.46,8.88,8.88,0,0,1-5.816-2.04v.169c0,6.474,6.871,10.882,12.981,12.108-1.24.731-3.74.8-4.96.8-.86,0-3.9-.393-4.715-.546,1.7,5.307,7.83,8.289,13.672,8.4-4.57,3.584-7.74,4.913-17.1,4.913H2.4c5.912,3.789,13.441,6.616,20.986,6.616,24.567,0,38.53-18.724,38.53-36.374,0-.284-.007-.88-.017-1.478,0-.06.017-.116.017-.175,0-.089-.026-.175-.026-.265-.01-.45-.02-.87-.03-1.088a27.17,27.17,0,0,0,6.669-6.914,26.683,26.683,0,0,1-7.671,2.1C63.616,11.861,67.534,7.92,68.529,4.8Z" transform="translate(-2.4 1.815)" fill="#32a7e2"/>
  </g>
</svg>
