<svg xmlns="http://www.w3.org/2000/svg" xmlns:xlink="http://www.w3.org/1999/xlink" width="66" height="66" viewBox="0 0 66 66">
  <defs>
    <clipPath id="clip-path">
      <rect id="Rectangle_18339" data-name="Rectangle 18339" width="66" height="66" transform="translate(0.096 -0.369)" fill="#32a7e2" stroke="#707070" stroke-width="1"/>
    </clipPath>
  </defs>
  <g id="Mask_Group_349" data-name="Mask Group 349" transform="translate(-0.096 0.369)" clip-path="url(#clip-path)">
    <path id="icons8_Instagram" d="M22.369,4A18.191,18.191,0,0,0,4,22.369V51.76A18.191,18.191,0,0,0,22.369,70.129H51.76A18.191,18.191,0,0,0,70.129,51.76V22.369A18.191,18.191,0,0,0,51.76,4Zm0,7.348H51.76A10.825,10.825,0,0,1,62.781,22.369V51.76A10.825,10.825,0,0,1,51.76,62.781H22.369A10.825,10.825,0,0,1,11.348,51.76V22.369A10.825,10.825,0,0,1,22.369,11.348Zm33.065,3.674A3.471,3.471,0,0,0,51.76,18.7a3.674,3.674,0,1,0,7.348,0A3.471,3.471,0,0,0,55.434,15.022ZM37.065,18.7A18.369,18.369,0,1,0,55.434,37.065,18.191,18.191,0,0,0,37.065,18.7Zm0,7.348A10.825,10.825,0,0,1,48.086,37.065,10.825,10.825,0,0,1,37.065,48.086,10.825,10.825,0,0,1,26.043,37.065,10.825,10.825,0,0,1,37.065,26.043Z" transform="translate(-4 -4)" fill="#32a7e2"/>
  </g>
</svg>
