<svg xmlns="http://www.w3.org/2000/svg" xmlns:xlink="http://www.w3.org/1999/xlink" width="24" height="24" viewBox="0 0 24 24">
  <defs>
    <clipPath id="clip-path">
      <rect id="Rectangle_18334" data-name="Rectangle 18334" width="24" height="24" transform="translate(246 624)" fill="#8a8f93" stroke="#707070" stroke-width="1"/>
    </clipPath>
  </defs>
  <g id="Mask_Group_342" data-name="Mask Group 342" transform="translate(-246 -624)" clip-path="url(#clip-path)">
    <path id="icons8_phone" d="M20.966,16.884c-1.449-1.24-2.923-1.994-4.353-.754l-.856.746c-.626.545-1.789,3.084-6.285-2.093S7.65,8.813,8.279,8.275l.86-.75c1.423-1.24.885-2.8-.143-4.412L8.378,2.14C7.346.538,6.219-.516,4.793.721L4.021,1.4A7.227,7.227,0,0,0,1.2,6.19C.68,9.6,2.308,13.5,6.029,17.78s7.361,6.435,10.807,6.4a7.279,7.279,0,0,0,5.14-2.129l.772-.677c1.427-1.237.541-2.5-.911-3.739Z" transform="translate(245.713 623.82)" fill="#8a8f93"/>
  </g>
</svg>
