<svg xmlns="http://www.w3.org/2000/svg" xmlns:xlink="http://www.w3.org/1999/xlink" width="16" height="16" viewBox="0 0 16 16">
  <defs>
    <clipPath id="clip-path">
      <rect id="Rectangle_19160" data-name="Rectangle 19160" width="16" height="16" transform="translate(24 260)" fill="#fff" stroke="#707070" stroke-width="1"/>
    </clipPath>
  </defs>
  <g id="Mask_Group_651" data-name="Mask Group 651" transform="translate(-24 -260)" opacity="0.38" clip-path="url(#clip-path)">
    <path id="icons8_user_account" d="M5.067,4A2.939,2.939,0,0,0,2.133,7.2a3.185,3.185,0,0,0,.281,1.181.624.624,0,0,0-.252.639c.087.684.384.857.573.872a2.785,2.785,0,0,0,1,1.575v1.067C3.2,14.133,0,13.067,0,16.8H4.8a3.81,3.81,0,0,1,1.965-3.737,1.18,1.18,0,0,1-.365-.529V11.467a2.91,2.91,0,0,0,.925-1.277,2.5,2.5,0,0,1-.354-1.035,1.792,1.792,0,0,1,.119-.935A3.759,3.759,0,0,1,6.933,7.2a4.737,4.737,0,0,1,.426-2A1.308,1.308,0,0,0,6.4,4.8,1.242,1.242,0,0,0,5.067,4Zm5.867,0A2.938,2.938,0,0,0,8,7.2a3.186,3.186,0,0,0,.281,1.181.624.624,0,0,0-.252.639c.087.684.384.857.573.872a2.785,2.785,0,0,0,1,1.575v1.067c-.533,1.6-3.733.533-3.733,4.267H16c0-3.733-3.2-2.667-3.733-4.267V11.467a2.784,2.784,0,0,0,1-1.574c.189-.014.485-.189.573-.873a.623.623,0,0,0-.252-.639,2.821,2.821,0,0,0,.281-1.18c0-1.295-.508-2.4-1.6-2.4A1.242,1.242,0,0,0,10.933,4Z" transform="translate(24 257.6)" fill="#fff"/>
  </g>
</svg>
