<svg xmlns="http://www.w3.org/2000/svg" viewBox="0 0 467.23 423.16"><defs><style>.cls-1{font-size:30px;fill:#8e8e8e;font-family:Poppins-Bold, Poppins;font-weight:700;}.cls-2{font-size:22px;}.cls-3{fill:#8a8f93;}.cls-4{fill:#f3f3ff;}.cls-5{fill:#46494c;}</style></defs><g id="Layer_2" data-name="Layer 2"><g id="OBJECTS"><text class="cls-1" transform="translate(36.16 357.02)">Opps ! No 360 tours found<tspan class="cls-2"><tspan x="43.26" y="26.4">we are sorry we can not get</tspan><tspan x="136.3" y="52.8">your result</tspan></tspan></text><path class="cls-3" d="M377.88,188.23a65.13,65.13,0,0,0-34.59-91.31s0-.06,0-.09A88.36,88.36,0,0,0,169.37,74.76,63,63,0,0,0,87,127.36,48.41,48.41,0,0,0,97,223.13c.74,0,1.48,0,2.21-.1,0,.74-.11,1.46-.11,2.2a86.28,86.28,0,0,0,153.39,54.25,50.4,50.4,0,0,0,81-12.23,46.27,46.27,0,0,0,44.41-79Z"/><path class="cls-4" d="M147.54,273.65h-42.1a2.11,2.11,0,1,1,0-4.21h42.1a2.11,2.11,0,0,1,0,4.21Z"/><path class="cls-4" d="M160.17,273.65H156a2.11,2.11,0,1,1,0-4.21h4.21a2.11,2.11,0,0,1,0,4.21Z"/><path class="cls-4" d="M181.18,282.07H143.33a2.11,2.11,0,1,1,0-4.21h37.85a2.11,2.11,0,0,1,0,4.21Z"/><path class="cls-4" d="M134.91,282.07H130.7a2.11,2.11,0,1,1,0-4.21h4.21a2.11,2.11,0,0,1,0,4.21Z"/><path class="cls-4" d="M122.28,282.07h-8.42a2.11,2.11,0,1,1,0-4.21h8.42a2.11,2.11,0,0,1,0,4.21Z"/><path class="cls-4" d="M147.54,290.49h-8.42a2.11,2.11,0,1,1,0-4.21h8.42a2.11,2.11,0,0,1,0,4.21Z"/><path class="cls-4" d="M160.17,252.6H156a2.11,2.11,0,1,0,0,4.21h4.21a2.11,2.11,0,0,0,0-4.21Z"/><path class="cls-4" d="M160.17,261h-21a2.11,2.11,0,1,0,0,4.21h21a2.11,2.11,0,0,0,0-4.21Z"/><path class="cls-4" d="M181.22,269.44H168.59a2.11,2.11,0,1,0,0,4.21h12.63a2.11,2.11,0,0,0,0-4.21Z"/><path class="cls-4" d="M366.45,134.72h-42.1a2.11,2.11,0,0,1,0-4.21h42.1a2.11,2.11,0,1,1,0,4.21Z"/><path class="cls-4" d="M383.29,134.72h-8.42a2.11,2.11,0,0,1,0-4.21h8.42a2.11,2.11,0,1,1,0,4.21Z"/><path class="cls-4" d="M404.34,143.14h-42.1a2.11,2.11,0,0,1,0-4.21h42.1a2.11,2.11,0,1,1,0,4.21Z"/><path class="cls-4" d="M353.82,143.14h-4.21a2.11,2.11,0,0,1,0-4.21h4.21a2.11,2.11,0,1,1,0,4.21Z"/><path class="cls-4" d="M341.07,143.14h-8.3a2.11,2.11,0,0,1,0-4.21h8.3a2.11,2.11,0,0,1,0,4.21Z"/><path class="cls-4" d="M379.08,126.3H358a2.11,2.11,0,0,1,0-4.21h21.05a2.11,2.11,0,1,1,0,4.21Z"/><path class="cls-4" d="M366.45,151.56H358a2.11,2.11,0,0,1,0-4.21h8.42a2.11,2.11,0,1,1,0,4.21Z"/><path class="cls-4" d="M257,73.67v2.11h12.63V73.67h23.16A18.89,18.89,0,0,0,294.65,36a17.24,17.24,0,0,0,.23-2.29A18.87,18.87,0,0,0,261.09,22a21,21,0,1,0-41.2,6.51A14.61,14.61,0,0,0,194,36a17.57,17.57,0,0,0-2.3-.24,18.95,18.95,0,0,0,0,37.89H257Z"/><path class="cls-5" d="M240.16,0A23.18,23.18,0,0,0,217,23.15v.2a16.59,16.59,0,0,0-8.42-2.3A16.83,16.83,0,0,0,192.34,33.7l-.6,0a21,21,0,0,0,0,42.1H257a2.11,2.11,0,1,0,0-4.21H191.74a16.84,16.84,0,0,1,0-33.68,11.33,11.33,0,0,1,1.44.13l.6.08a1.14,1.14,0,0,0,.26,0,2.11,2.11,0,0,0,2.08-1.84,12.52,12.52,0,0,1,22.15-6.39,2.1,2.1,0,0,0,1.62.77,2,2,0,0,0,1-.24A2.11,2.11,0,0,0,221.92,28a18.89,18.89,0,0,1-.71-4.86,18.9,18.9,0,0,1,37.78-1,2.1,2.1,0,0,0,1.47,1.89,2,2,0,0,0,.64.1,2.09,2.09,0,0,0,1.65-.81,16.77,16.77,0,0,1,30,10.34,9.76,9.76,0,0,1-.14,1.44l-.08.6a2.16,2.16,0,0,0,.45,1.57,2.12,2.12,0,0,0,1.43.78,16.79,16.79,0,0,1-1.66,33.5H269.62a2.11,2.11,0,0,0,0,4.21h23.16A21,21,0,0,0,297,34.2c0-.18,0-.35,0-.52a21.07,21.07,0,0,0-21.05-21,20.76,20.76,0,0,0-13.4,4.9A23.1,23.1,0,0,0,240.16,0Z"/><path class="cls-5" d="M233.84,29.47a12.67,12.67,0,0,0-12.26,9.85,9.95,9.95,0,0,0-15,7.28,10.77,10.77,0,0,0-2.46-.29,12.38,12.38,0,0,0-12.29,11.5,1.06,1.06,0,0,0,1,1.13h.07a1.06,1.06,0,0,0,1-1,10.28,10.28,0,0,1,10.19-9.55,10.17,10.17,0,0,1,3.1.54.9.9,0,0,0,.28,0,1.06,1.06,0,0,0,.66-.23,1.09,1.09,0,0,0,.43-.87A7.85,7.85,0,0,1,221.66,42a1,1,0,0,0,.69.26.85.85,0,0,0,.39-.08,1,1,0,0,0,.66-.89A10.31,10.31,0,0,1,236.71,32a1.05,1.05,0,0,0,.58-2,12.45,12.45,0,0,0-3.45-.53Z"/><path class="cls-5" d="M292.29,35.78A12.65,12.65,0,0,0,280.19,45a1,1,0,0,0,.72,1.3,1,1,0,0,0,.29,0,1,1,0,0,0,1-.77,10.56,10.56,0,0,1,10.08-7.65,11.49,11.49,0,0,1,1.44.12h.14a1.05,1.05,0,0,0,1-.91,1,1,0,0,0-.9-1.18,12.35,12.35,0,0,0-1.72-.15Z"/><path class="cls-4" d="M105.44,141h14.73a14.7,14.7,0,0,0,1.88-29.28,15.58,15.58,0,0,0,.23-2.29,14.68,14.68,0,0,0-25.64-9.83,16.83,16.83,0,0,0-33.3,3.51,16.41,16.41,0,0,0,.23,2.35A10.38,10.38,0,0,0,57,103.14a10.5,10.5,0,0,0-10.33,8.65,15.86,15.86,0,0,0-2.3-.23,14.74,14.74,0,0,0,0,29.47H76v2.11h29.47Z"/><path class="cls-5" d="M112.8,122.09a1,1,0,0,1-1-1,9.35,9.35,0,0,1,9.34-9.34,26.51,26.51,0,0,1,5.24.57,1.05,1.05,0,1,1-.55,2,20.89,20.89,0,0,0-4.69-.5,7.24,7.24,0,0,0-7.23,7.24A1.05,1.05,0,0,1,112.8,122.09Z"/><circle class="cls-5" cx="84.39" cy="141.03" r="2.1"/><path class="cls-5" d="M120.17,143.14H105.44a2.11,2.11,0,1,1,0-4.21h14.73a12.59,12.59,0,0,0,1.61-25.09,2.14,2.14,0,0,1-1.41-.82,2.07,2.07,0,0,1-.4-1.59,12.89,12.89,0,0,0,.2-2,12.64,12.64,0,0,0-12.63-12.63A12.44,12.44,0,0,0,98.2,101a2.11,2.11,0,0,1-3.62-1,14.73,14.73,0,0,0-29.14,3.07,11.29,11.29,0,0,0,.18,1.76,2.33,2.33,0,0,1-1,2.28,2.06,2.06,0,0,1-2.34-.05,8.35,8.35,0,0,0-13.5,5,2.09,2.09,0,0,1-2.4,1.7,12.61,12.61,0,1,0-2,25.06H76a2.11,2.11,0,0,1,0,4.21H44.39a16.84,16.84,0,0,1,0-33.68l.74,0A12.59,12.59,0,0,1,57,101a12.3,12.3,0,0,1,4.26.76,18.94,18.94,0,0,1,36.38-5.92,16.78,16.78,0,0,1,26.72,13.58c0,.2,0,.4,0,.6a16.8,16.8,0,0,1-4.2,33.08Z"/><path class="cls-5" d="M97,138.93H92.81a2.11,2.11,0,1,0,0,4.21H97a2.11,2.11,0,0,0,0-4.21Z"/><path class="cls-4" d="M145.43,148.05c0-1.93.46-3.25,1.4-4s2.52-1.09,4.77-1.09c2.59,0,4.35.34,5.28,1a4.15,4.15,0,0,1,1.39,3.54,6.14,6.14,0,0,0,2.79,5.32,13,13,0,0,0,7.56,1.94c3.72,0,6.42-.84,8.12-2.54s2.54-4.43,2.54-8.21v-1.89q0-9.45-10.95-9.46-3.79,0-3.79-5.07t3.86-5.08a10.35,10.35,0,0,0,6.71-1.93c1.58-1.29,2.38-3.88,2.38-7.77,0-5.81-2.93-8.71-8.76-8.71s-8.86,2.21-8.86,6.63q0,4.95-6.17,5c-2.79,0-4.59-.38-5.42-1.14s-1.25-2.23-1.25-4.41a15.68,15.68,0,0,1,1.1-5.74,18.45,18.45,0,0,1,3.43-5.54,16.53,16.53,0,0,1,6.82-4.4,29.47,29.47,0,0,1,10.45-1.7q21.1,0,21.1,17.88A24.33,24.33,0,0,1,187.87,121a11.8,11.8,0,0,1-5.78,6.1q10.13,4,10.13,15v1.89q0,11.34-6.62,16.72t-17.27,5.38q-11.25,0-17.07-5.58T145.43,148.05Z"/><path class="cls-4" d="M199.87,143.37V115.6q0-11.85,6.52-17.31t17.47-5.48q11,0,16.87,5.52a17.53,17.53,0,0,1,5.62,10.1,15.79,15.79,0,0,1,.2,2.59c0,2-.48,3.38-1.44,4.18a7.24,7.24,0,0,1-4.63,1.19q-6.76,0-6.77-4.87a6.2,6.2,0,0,0-2.93-5.38,12.57,12.57,0,0,0-7.22-2q-10.84,0-10.85,11.45v10.85q4.28-5.08,13.24-5.08,9.35,0,15,4.78T246.55,142v1.39q0,11.85-6.32,17.32t-17,5.48q-10.65,0-17-5.48T199.87,143.37Zm12.84,1q0,11.63,10.55,11.63,10.35,0,10.36-11.63v-1.32q0-11.53-10.46-11.53t-10.45,10.62Z"/><path class="cls-4" d="M254.52,143.37V115.6q0-11.85,6.32-17.31t17-5.48q10.65,0,17,5.48t6.37,17.31v27.76q0,11.85-6.37,17.32t-17,5.48q-10.65,0-17-5.48T254.52,143.37Zm12.94,0q0,11.44,10.35,11.45t10.45-11.45V115.6q0-11.44-10.45-11.45T267.46,115.6Z"/><path class="cls-4" d="M324.35,80a14.74,14.74,0,1,0,14.74,14.73A14.74,14.74,0,0,0,324.35,80Zm0,21.05a6.32,6.32,0,1,1,6.32-6.32A6.32,6.32,0,0,1,324.35,101Z"/><path class="cls-4" d="M240.66,248.88a2.95,2.95,0,0,1-.13-5.89C303.59,240.09,353,218.88,353,194.71c0-13-14.6-25.84-40.06-35.13a2.95,2.95,0,1,1,2-5.54c28.33,10.33,43.94,24.78,43.94,40.67,0,28.24-49.66,51-118.08,54.16Z"/><path class="cls-4" d="M241.77,228a1.05,1.05,0,0,1-.06-2.1,283.91,283.91,0,0,0,36.65-4.08,1.05,1.05,0,1,1,.37,2.07A286.33,286.33,0,0,1,241.81,228Z"/><path class="cls-4" d="M293.8,220.55a1.05,1.05,0,0,1-.27-2.07c16.4-4.3,28.52-10,35.05-16.39a1.05,1.05,0,0,1,1.48,1.5c-6.79,6.69-19.24,12.54-36,16.93Z"/><path class="cls-4" d="M334.88,192.6a1,1,0,0,1-1.05-1c0-7.21-7.47-14.46-21-20.41a1,1,0,0,1-.54-1.38,1.06,1.06,0,0,1,1.39-.55c14.58,6.39,22.29,14.12,22.29,22.34A1,1,0,0,1,334.88,192.6Z"/><path class="cls-4" d="M200.31,272.53a2.92,2.92,0,0,1-2.08-.86,3,3,0,0,1,0-4.17l21.22-21.22-21.22-21.22a2.95,2.95,0,0,1,4.17-4.17l23.3,23.3a2.93,2.93,0,0,1,0,4.17l-23.3,23.3A2.94,2.94,0,0,1,200.31,272.53Z"/><path class="cls-4" d="M217.28,249h-.11l-2.77,0c-1.47,0-3,0-3.31-.05C143.18,246,92,222.71,92,194.71c0-15.07,14.23-29,40.08-39.21a2.95,2.95,0,1,1,2.17,5.48c-23.11,9.13-36.36,21.43-36.36,33.73,0,24.37,49.84,45.6,113.47,48.33l3.12,0,2.94,0a2.95,2.95,0,0,1-.11,5.89Z"/><path class="cls-4" d="M142.91,216.12a1,1,0,0,1-.37-.07c-17.82-6.67-27.63-15.38-27.63-24.5,0-8.18,7.64-15.87,22.1-22.25a1,1,0,0,1,1.39.54,1.06,1.06,0,0,1-.54,1.39c-13.64,6-20.85,13-20.85,20.32,0,8.18,9.33,16.18,26.27,22.53a1.05,1.05,0,0,1-.37,2Z"/><path class="cls-4" d="M179.5,225.1l-.16,0a208.82,208.82,0,0,1-26.82-5.74,1.05,1.05,0,0,1,.59-2A207.65,207.65,0,0,0,179.66,223a1.06,1.06,0,0,1-.16,2.1Z"/></g></g></svg>