<svg xmlns="http://www.w3.org/2000/svg" xmlns:xlink="http://www.w3.org/1999/xlink" width="280" height="280" viewBox="0 0 280 280">
  <defs>
    <style>
      .cls-1, .cls-3 {
        fill: #9da9be;
      }

      .cls-1 {
        stroke: #707070;
      }

      .cls-2 {
        clip-path: url(#clip-path);
      }
    </style>
    <clipPath id="clip-path">
      <rect id="Rectangle_18414" data-name="Rectangle 18414" class="cls-1" width="280" height="280" transform="translate(1384 600.848)"/>
    </clipPath>
  </defs>
  <g id="Mask_Group_372" data-name="Mask Group 372" class="cls-2" transform="translate(-1384 -600.848)">
    <path id="icons8_Eye" class="cls-3" d="M140.424,6C62.709,6,1.9,78,1.9,78a5.831,5.831,0,0,0,8.859,7.584S70.054,17.66,140.424,17.66,270.087,85.583,270.087,85.583A5.831,5.831,0,1,0,278.946,78S218.139,6,140.424,6Zm0,29.151A29.151,29.151,0,1,0,169.574,64.3,28.867,28.867,0,0,0,140.424,35.151ZM80.369,42.142C43.056,61.381,17.993,91.117,17.41,91.117A15.1,15.1,0,0,1,11,95.205c20.405,19.822,69.957,62.378,129.424,62.378s109.019-42.555,129.424-62.378a11.092,11.092,0,0,1-6.411-4.088c-.583-.583-25.646-29.736-62.958-48.975,2.332,7,4.076,14,4.076,21.578a64.131,64.131,0,0,1-128.263,0C76.292,56.141,77.454,48.555,80.369,42.142Z" transform="translate(1383.499 659.131)"/>
  </g>
</svg>
