<svg xmlns="http://www.w3.org/2000/svg" xmlns:xlink="http://www.w3.org/1999/xlink" width="16" height="16" viewBox="0 0 16 16">
  <defs>
    <clipPath id="clip-path">
      <rect id="Rectangle_19123" data-name="Rectangle 19123" width="16" height="16" transform="translate(402 1166)" fill="#8a8f93" stroke="#707070" stroke-width="1"/>
    </clipPath>
  </defs>
  <g id="Mask_Group_609" data-name="Mask Group 609" transform="translate(-402 -1166)" clip-path="url(#clip-path)">
    <path id="icons8_garage" d="M10.435,2.087a1.391,1.391,0,0,0-.668.173H9.761L3.488,5.746v0a1.391,1.391,0,0,0-.7,1.208V16.7a1.391,1.391,0,0,0,1.391,1.391H16.7A1.391,1.391,0,0,0,18.087,16.7V6.957a1.391,1.391,0,0,0-.705-1.211l-.019-.011h0L11.107,2.26h0A1.391,1.391,0,0,0,10.435,2.087ZM7.662,7.652h5.546a2.087,2.087,0,0,1,2.008,1.52l.649,2.3a1.376,1.376,0,0,1,.83,1.262V16.7a.7.7,0,0,1-1.391,0v-.265c-.949.128-3.64.265-4.87.265s-3.921-.137-4.87-.265V16.7a.7.7,0,0,1-1.391,0V12.735A1.376,1.376,0,0,1,5,11.473l.649-2.3A2.087,2.087,0,0,1,7.662,7.652Zm-1.4,4.87a.7.7,0,1,0,.7.7A.7.7,0,0,0,6.261,12.522Zm8.348,0a.7.7,0,1,0,.7.7A.7.7,0,0,0,14.609,12.522ZM8.481,13.913a.693.693,0,0,0-.652.455l-.283.769a20.374,20.374,0,0,0,2.89.167,20.843,20.843,0,0,0,2.9-.166l-.283-.77a.7.7,0,0,0-.655-.455Z" transform="translate(399.564 1163.914)" fill="#8a8f93"/>
  </g>
</svg>
