<svg xmlns="http://www.w3.org/2000/svg" width="48" height="48" viewBox="0 0 48 48">
  <g id="Group_4198" data-name="Group 4198" transform="translate(-159 -501)">
    <g id="Group_4190" data-name="Group 4190" transform="translate(640 851)">
      <g id="Group_4187" data-name="Group 4187">
        <circle id="Ellipse_155" data-name="Ellipse 155" cx="24" cy="24" r="24" transform="translate(-481 -350)" fill="#ba0900"/>
      </g>
    </g>
    <path id="Path_272" data-name="Path 272" d="M629.937,204.613a.582.582,0,0,1,.343-.584,2.4,2.4,0,0,1,.973-.156H636.1a2.416,2.416,0,0,1,.974.156.581.581,0,0,1,.342.584v22.552c0,.519-.437.779-1.316.779h-4.848q-1.315,0-1.316-.778v-8.141a.916.916,0,0,0-.29-.7,1.5,1.5,0,0,0-1.028-.273h-6.372q-.949,0-1.159.254a1.031,1.031,0,0,0-.211.682v8.179q0,.778-1.316.779h-4.9q-1.317,0-1.316-.778V204.613a.582.582,0,0,1,.342-.584,2.406,2.406,0,0,1,.974-.156h4.9a2.763,2.763,0,0,1,.948.136.572.572,0,0,1,.368.6v7.478a1.253,1.253,0,0,0,.185.819,1.4,1.4,0,0,0,.921.194h6.795a1.416,1.416,0,0,0,.947-.213,1.143,1.143,0,0,0,.211-.8Z" transform="translate(-442.928 309.092)" fill="#fff" fill-rule="evenodd"/>
  </g>
</svg>
