<svg xmlns="http://www.w3.org/2000/svg" xmlns:xlink="http://www.w3.org/1999/xlink" width="24" height="24" viewBox="0 0 24 24">
  <defs>
    <clipPath id="clip-path">
      <rect id="Rectangle_18457" data-name="Rectangle 18457" width="24" height="24" transform="translate(1424 456)" fill="#e8f1ff"/>
    </clipPath>
  </defs>
  <g id="Mask_Group_390" data-name="Mask Group 390" transform="translate(-1424 -456)" clip-path="url(#clip-path)">
    <path id="icons8_google_maps" d="M13.621,8.009c.032,0,.062-.009.094-.009A3.417,3.417,0,0,1,17.1,10.979l3.846-4.552a8.849,8.849,0,0,0-3.314-3.136Zm.094,6.848a3.418,3.418,0,0,1-3.383-2.976L6.838,15.994c.478.778,1.007,1.534,1.536,2.278.4.562.789,1.115,1.152,1.67l4.306-5.1C13.792,14.847,13.755,14.857,13.715,14.857Zm-3,7.212a8.006,8.006,0,0,1,.646,2.158,2.369,2.369,0,0,0,4.695.019c.295-2.174,1.607-4.021,3-5.975,1.978-2.785,4.014-5.666,2.923-9.529Zm.531-14.8,4.088-4.812A7.892,7.892,0,0,0,14.224,2.3,8.514,8.514,0,0,0,8.143,4.357ZM6.619,6.063a8.6,8.6,0,0,0-1.475,4.794,8.094,8.094,0,0,0,.573,2.927L9.77,9.012Z" transform="translate(1422.285 453.715)" fill="#e8f1ff"/>
  </g>
</svg>
