<svg xmlns="http://www.w3.org/2000/svg" viewBox="0 0 425.45 395.2"><defs><style>.cls-1{fill:#8a8f93;}.cls-2,.cls-7,.cls-8{fill:#f3f3ff;}.cls-3{fill:#9c9dfe;}.cls-4{fill:#46494c;}.cls-5,.cls-6{fill:#fff;}.cls-6{font-size:95.35px;font-family:Rubik-Medium, Rubik;font-weight:500;}.cls-7{font-size:34px;letter-spacing:0.05em;}.cls-7,.cls-8{font-family:Poppins-Bold, Poppins;font-weight:700;}.cls-8{font-size:16.88px;}</style></defs><g id="Layer_2" data-name="Layer 2"><g id="OBJECTS"><path class="cls-1" d="M228.36,16.09c-21.12-.2-149-2.18-152.81,33.47C71.94,83.7,121.51,71.2,122,86.35c.51,15.92-8.94,20.53-35.33,19.52-11.43-.44-47.52,3.6-48.1,26.38s39.73,19.8,37.73,38.59c-1.15,21.37-31.76,26-43.82,31.66C19.38,209.35-4.73,220.65.81,244.9,8.1,273,54.4,268,71.84,271.43c11.64,1.89,48.68,5.15,43.41,30.07-2.77,15-33.17,15.85-27.35,35.07,5.88,18,58.89,21.51,69.63,22.09,44.57,2.42,142.46,6.36,186-12,16-6.69,30.18-14.75,28.54-38.79-.8-21.47-12.37-24.61,7.13-41.2,12.32-10.68,35.92-9.82,34.53-41C413,208.84,370,201.86,371,184.27c1.5-27.65,54.29-4.17,54.48-53.07.12-30.53-95.92-13.45-94.94-43.64-1.29-12.26,19.85-17.46,18.94-31C350,34.83,325.07,18.76,228.36,16.09Z"/><path class="cls-2" d="M115.68,260a.74.74,0,0,1-.38.1H41.77a.75.75,0,0,1-.73-.55c-.81-3.5,3.24-6.25,6-4.9a3.63,3.63,0,0,1,4-2.78,6.45,6.45,0,0,1,3.74-8,6.22,6.22,0,0,1,7.79,2.08c1-5.41,5.72-10.09,11.41-10.48a12.42,12.42,0,0,1,8.77,2.69c2.4,2,3.18,4.22,3.78,6.92a6.88,6.88,0,0,1,8-2.76c3.3,1,3.71,4.4,3.56,7.43,2.66-2.21,5.86-3.28,9.33-1.2,2.88,1.74,3.51,4.52,3.62,7.55,2.37-1.41,4.82,0,5,3.23A.62.62,0,0,1,115.68,260Z"/><path class="cls-3" d="M349.67,85.12c0,14.09,38.24,16.69,40.23,0S349.67,64,349.67,85.12Z"/><path class="cls-3" d="M40.94,301.91c0,14.1,47.32,16.82,49,0C92.09,281.17,40.94,277.23,40.94,301.91Z"/><path class="cls-3" d="M316.74,381.42c0,16.72,56.12,19.95,58.15,0C377.4,356.83,316.74,352.15,316.74,381.42Z"/><path class="cls-3" d="M36.94,86.11c0,9.2,26.08,11,27,0C65.13,72.57,36.94,70,36.94,86.11Z"/><path class="cls-2" d="M378.21,251.85c.56-2.82-3.62-5.42-6.84-4.38.53-1.93-.07-3.69-2.92-4.56a7.4,7.4,0,0,0-3.88,0c2.26-4.48.16-9.59-6.8-10.65-7.56-1.15-15.95,2.56-17.46,8.54-6.15-6.05-19.18,1.2-15.33,8.15-2.38-.38-4.83,1-5,3a2.42,2.42,0,0,0-2.82,3.75.7.7,0,0,0,.55.25h64.2a.67.67,0,0,0,.39-.11.47.47,0,0,0,.22-.26C383.29,253.44,380.59,251.47,378.21,251.85Z"/><path class="cls-2" d="M272.43,325.4c1-5-6.36-9.53-12-7.7.93-3.41-.13-6.5-5.14-8a12.79,12.79,0,0,0-6.81,0c3.95-7.89.27-16.88-12-18.73-13.3-2-28.06,4.51-30.7,15-10.82-10.63-33.72,2.1-27,14.33-4.18-.67-8.49,1.7-8.74,5.22a4.24,4.24,0,0,0-4.95,6.58,1.19,1.19,0,0,0,1,.45H279a1.24,1.24,0,0,0,.68-.18.85.85,0,0,0,.39-.48C281.35,328.19,276.62,324.72,272.43,325.4Z"/><path class="cls-2" d="M346.13,156a.52.52,0,0,0,.29.07h54.69a.56.56,0,0,0,.54-.41,3.3,3.3,0,0,0-4.44-3.64,2.71,2.71,0,0,0-3-2.07,4.78,4.78,0,0,0-2.79-5.93,4.61,4.61,0,0,0-5.79,1.55,9.65,9.65,0,0,0-8.48-7.8,9.27,9.27,0,0,0-6.53,2,8.41,8.41,0,0,0-2.81,5.16,5.12,5.12,0,0,0-6-2.06c-2.46.77-2.77,3.27-2.66,5.53-2-1.65-4.35-2.44-6.94-.89-2.14,1.29-2.6,3.36-2.69,5.61-1.76-1.05-3.59,0-3.73,2.4A.48.48,0,0,0,346.13,156Z"/><path class="cls-2" d="M203.56,57.75a.36.36,0,0,0,.19,0h37a.38.38,0,0,0,.37-.28,2.23,2.23,0,0,0-3-2.46,1.84,1.84,0,0,0-2-1.4,3.24,3.24,0,0,0-1.88-4,3.13,3.13,0,0,0-3.92,1,6.53,6.53,0,0,0-5.73-5.27,6.26,6.26,0,0,0-4.41,1.35,5.6,5.6,0,0,0-1.9,3.48,3.46,3.46,0,0,0-4.05-1.38c-1.66.51-1.87,2.2-1.79,3.73a3.81,3.81,0,0,0-4.69-.6c-1.45.87-1.76,2.27-1.82,3.79-1.19-.71-2.42,0-2.52,1.62A.31.31,0,0,0,203.56,57.75Z"/><path class="cls-4" d="M158.05,73.22a.25.25,0,0,0-.05-.15.27.27,0,0,0-.26-.16l-12.1.2a.31.31,0,0,0-.31.31,57,57,0,0,0,.29,7c.36,2.15,2.72,2.32,4.54,2.42,2.34.14,5.67.22,7-1C158.73,80.43,158.13,75.51,158.05,73.22Z"/><path class="cls-5" d="M147.44,77.78A2.34,2.34,0,0,1,145.18,76a.2.2,0,0,1,.14-.23.18.18,0,0,1,.22.14,2,2,0,0,0,2.43,1.4c1.32-.24,1.42-3,1.42-3a.19.19,0,0,1,.37,0c0,.12.07.28.11.46a4.35,4.35,0,0,0,.87,2.11,3,3,0,0,0,2.71.27,2.36,2.36,0,0,0,1.08-2.28c0-.13,0-.27,0-.41a.19.19,0,0,1,.17-.2.19.19,0,0,1,.2.16c0,.14,0,.28,0,.42a2.47,2.47,0,0,0,1.51,2.08,1.46,1.46,0,0,0,1.64-.72.19.19,0,1,1,.3.22,1.83,1.83,0,0,1-2,.86,2.52,2.52,0,0,1-1.5-1.44,2.21,2.21,0,0,1-1.21,1.66,3.41,3.41,0,0,1-3.1-.34,3.65,3.65,0,0,1-.85-1.74c-.17.93-.59,2.16-1.6,2.34A3.38,3.38,0,0,1,147.44,77.78Z"/><path class="cls-5" d="M151.41,72.1c-1.28,0-5.63.05-6.11,1-.64,1.38,6.44,1.27,7.81,1.23C159.59,74.15,160.36,71.77,151.41,72.1Z"/><path class="cls-2" d="M151.41,71.85c-.74,0-6.95-.11-6.39,1.57.28.82,1.6.9,2.29,1a31.56,31.56,0,0,0,4.66.22,24.46,24.46,0,0,0,4.1-.32c.61-.11,1.92-.32,2.19-1,.69-1.82-6.36-1.46-6.85-1.44a.25.25,0,0,0,0,.49,35.26,35.26,0,0,1,4.24.09c.25,0,2.71.36,1.9.89-1.49,1-3.87.79-5.58.81a22,22,0,0,1-5.79-.44c-.9-.24-.29-.76.3-.93a10.61,10.61,0,0,1,1.93-.3c1-.1,2-.11,3-.12A.25.25,0,0,0,151.41,71.85Z"/><path class="cls-4" d="M158.14,58.37c-.09,4.9-.26,9.8-.33,14.7a.19.19,0,0,0,.37,0c.07-4.9.25-9.8.33-14.7a.19.19,0,0,0-.37,0Z"/><path class="cls-4" d="M144.38,58.29c.15,5,.21,9.9.73,14.84,0,.24.4.24.38,0-.52-4.94-.59-9.88-.74-14.84,0-.24-.38-.24-.37,0Z"/><path class="cls-4" d="M151.09,59.12c.42,5-.1,10,.33,15,0,.23.4.23.38,0-.44-5,.08-10-.33-15,0-.24-.4-.24-.38,0Z"/><path class="cls-2" d="M177.32,15.7c-1.56-4-4.44-7.92-8.95-8.73h-.17c-3.37-.35-5.33,3-6.51,5.58-2.13,4.65-3.07,9.85-3.91,14.84-1.65,9.82-3.35,20.58-.47,30.32a.66.66,0,0,0,1.18.15c3.08-4.74,9.43-6.36,13.49-10.14,4.25-3.94,6.41-9.71,7.1-15.3A33.55,33.55,0,0,0,177.32,15.7Z"/><path class="cls-4" d="M143.8,31.58c-1.5-8.08-5-16.16-9.1-23.32a.56.56,0,0,0-.59-.3.67.67,0,0,0-.29.08c-4.09,2.1-6.29,6.14-7.67,10.3a33.53,33.53,0,0,0-1.57,14.6c.89,6.06,4.32,11.41,8.82,15.55,3.69,3.39,8.29,5.59,11.59,9.47a.64.64,0,0,0,1.09-.44A151.4,151.4,0,0,0,143.8,31.58Z"/><path class="cls-4" d="M163.27,2.29A17.51,17.51,0,0,0,151.43.77a.52.52,0,0,0-.44.37c-2.42,3.45-2.77,8.27-3.12,12.3a144.92,144.92,0,0,0-.13,19.1c.38,8.57,1.1,17.14,2.19,25.65a.66.66,0,0,0,.64.63h7.36a.66.66,0,0,0,.56-.31c6.79-12.48,8.69-27.49,9.83-41.4.26-3.17.47-6.35.52-9.53C168.87,5.47,164.8,3.12,163.27,2.29Z"/><path class="cls-2" d="M153.08,3.23c-1.15-6.64-12.87-1.34-16,.93-2.86,2.09-3.64,4.08-3.83,7.29a87.48,87.48,0,0,0,.66,16,77.93,77.93,0,0,0,5.74,21.28c.91,2.06,1.89,4.07,3,6,.49.9,1.57,3.73,2.63,4,1.55.42,3.69,0,5.3,0a.58.58,0,0,0,.59-.42.73.73,0,0,0,.06-.21c1-12.11,1.81-24.25,2.23-36.39C153.65,15.71,154.13,9.27,153.08,3.23Z"/><path class="cls-4" d="M144.21,59.1a41.54,41.54,0,0,0,14.5,0c1.36-.24.79-2.05-.56-1.82a38.25,38.25,0,0,1-13.37,0c-1.35-.25-1.92,1.57-.57,1.82Z"/><text class="cls-6" transform="translate(120.07 203.66)">404</text><text class="cls-7" transform="translate(158.27 116.16)">Oops!</text><text class="cls-8" transform="translate(95.24 227.39)">we are sorry we can not get<tspan x="71.39" y="20.26">your result</tspan></text></g></g></svg>