<svg xmlns="http://www.w3.org/2000/svg" xmlns:xlink="http://www.w3.org/1999/xlink" width="24" height="24" viewBox="0 0 24 24">
  <defs>
    <clipPath id="clip-path">
      <rect id="Rectangle_18373" data-name="Rectangle 18373" width="24" height="24" fill="#fff" stroke="#707070" stroke-width="1"/>
    </clipPath>
  </defs>
  <g id="Mask_Group_357" data-name="Mask Group 357" clip-path="url(#clip-path)">
    <path id="icons8_parking_and_penthouse" d="M15.652,4.174a2.057,2.057,0,0,0-.988.259L5.224,9.679a2.077,2.077,0,0,0-1.05,1.8V16.7a1.043,1.043,0,1,1,0,2.087v7.3a2.086,2.086,0,0,0,2.087,2.087H25.043a2.086,2.086,0,0,0,2.087-2.087v-7.3a1.043,1.043,0,0,1,0-2.087V11.478a2.077,2.077,0,0,0-1.05-1.8l-9.44-5.246A2.057,2.057,0,0,0,15.652,4.174Zm-4.174,7.3a1.043,1.043,0,1,1-1.043,1.043A1.044,1.044,0,0,1,11.478,11.478Zm4.174,0a1.043,1.043,0,1,1-1.043,1.043A1.044,1.044,0,0,1,15.652,11.478Zm4.174,0a1.043,1.043,0,1,1-1.043,1.043A1.044,1.044,0,0,1,19.826,11.478Zm-6.261,8.348h2.743a2.112,2.112,0,0,1,2.254,2.221,2.159,2.159,0,0,1-2.352,2.2H15.157v1.836H13.565Zm1.592,1.225v2h.721a1,1,0,1,0,.008-2Z" transform="translate(-3.652 -4.174)" fill="#fff"/>
  </g>
</svg>
