<svg xmlns="http://www.w3.org/2000/svg" width="56.661" height="82.585" viewBox="0 0 56.661 82.585">
  <g id="Group_4206" data-name="Group 4206" transform="translate(-465.848 -279.296)">
    <g id="Group_4119" data-name="Group 4119" transform="translate(465.848 279.296)">
      <g id="Group_4117" data-name="Group 4117" transform="translate(0 0)">
        <g id="Group_4115" data-name="Group 4115" transform="translate(0 0)">
          <g id="Group_4113" data-name="Group 4113">
            <path id="Path_228" data-name="Path 228" d="M193.2,333.038a28.289,28.289,0,0,0-28.284-28.286v13.056a15.233,15.233,0,0,1,0,30.465v39.064s13.348-21.338,18.38-28.522C194.471,342.852,193.2,333.038,193.2,333.038Z" transform="translate(-136.579 -304.752)" fill="#9c9dfe"/>
            <path id="Path_229" data-name="Path 229" d="M178.588,317.808V304.752A28.287,28.287,0,0,0,150.3,333.038s-1.276,9.813,9.906,25.777c5.034,7.184,18.382,28.522,18.382,28.522V348.273a15.233,15.233,0,0,1,0-30.465Z" transform="translate(-150.256 -304.752)" fill="#9c9dfe" opacity="0.6"/>
          </g>
          <g id="Group_4114" data-name="Group 4114" transform="translate(7.715 8.17)">
            <path id="Path_230" data-name="Path 230" d="M154.247,329.6A20.611,20.611,0,0,0,174.86,350.21V308.978A20.617,20.617,0,0,0,154.247,329.6Z" transform="translate(-154.247 -308.978)" fill="#f6f6f6"/>
            <path id="Path_231" data-name="Path 231" d="M164.909,308.978V350.21a20.616,20.616,0,0,0,0-41.232Z" transform="translate(-144.296 -308.978)" fill="#e3e3e3"/>
          </g>
        </g>
      </g>
    </g>
  </g>
</svg>
