<svg xmlns="http://www.w3.org/2000/svg" xmlns:xlink="http://www.w3.org/1999/xlink" viewBox="0 0 26 26" fill="#9C9DFE">
  <path d="M9 4.1875C4.101563 4.1875 0.1875 8.101563 0.1875 13C0.1875 17.898438 4.101563 21.8125 9 21.8125C13.898438 21.8125 17.8125 17.898438 17.8125 13C17.8125 8.101563 13.898438 4.1875 9 4.1875 Z M 14.09375 4.3125C17.09375 6.113281 19.09375 9.300781 19.09375 13C19.09375 16.699219 17.09375 19.988281 14.09375 21.6875C18.492188 21.1875 21.8125 17.5 21.8125 13C21.8125 8.5 18.394531 4.8125 14.09375 4.3125 Z M 18.09375 4.3125C21.09375 6.113281 23.09375 9.300781 23.09375 13C23.09375 16.699219 21.09375 19.988281 18.09375 21.6875C22.492188 21.1875 25.8125 17.5 25.8125 13C25.8125 8.5 22.394531 4.8125 18.09375 4.3125 Z M 8.3125 7.8125L9.59375 7.8125L9.59375 8.90625C10.492188 8.90625 11 9.113281 11.5 9.3125L11.09375 10.8125C10.792969 10.613281 10.1875 10.3125 9.1875 10.3125C8.386719 10.3125 8.09375 10.699219 8.09375 11C8.09375 11.398438 8.59375 11.695313 9.59375 12.09375C11.09375 12.59375 11.6875 13.300781 11.6875 14.5C11.886719 15.699219 11.09375 16.707031 9.59375 16.90625L9.59375 18.1875L8.3125 18.1875L8.3125 17C7.414063 17 6.59375 16.699219 6.09375 16.5L6.5 15C7 15.300781 7.792969 15.59375 8.59375 15.59375C9.292969 15.59375 9.8125 15.3125 9.8125 14.8125C9.8125 14.3125 9.40625 13.988281 8.40625 13.6875C7.007813 13.1875 6.09375 12.613281 6.09375 11.3125C6.09375 10.210938 6.914063 9.300781 8.3125 9Z" fill="#9C9DFE" />
</svg>