<svg xmlns="http://www.w3.org/2000/svg" xmlns:xlink="http://www.w3.org/1999/xlink" width="16" height="16" viewBox="0 0 16 16">
  <defs>
    <clipPath id="clip-path">
      <rect id="Rectangle_19100" data-name="Rectangle 19100" width="16" height="16" transform="translate(270 1574)" fill="#2bca7a" stroke="#707070" stroke-width="1"/>
    </clipPath>
  </defs>
  <g id="Mask_Group_604" data-name="Mask Group 604" transform="translate(-270 -1574)" clip-path="url(#clip-path)">
    <path id="icons8_New_Property" d="M4.421,2.526a2.319,2.319,0,0,0-2.3,2.08h0a2.3,2.3,0,0,0-.012.235V15.368a2.325,2.325,0,0,0,2.316,2.316H15.789a2.325,2.325,0,0,0,2.316-2.316V4.842a2.32,2.32,0,0,0-2.316-2.316ZM3.368,6.737H16.842v8.632a1.043,1.043,0,0,1-1.053,1.053H4.421a1.043,1.043,0,0,1-1.053-1.053ZM5.684,8.421a.632.632,0,1,0,0,1.263h.842a.632.632,0,1,0,0-1.263Zm3.368,0a.632.632,0,1,0,0,1.263h5.474a.632.632,0,1,0,0-1.263ZM5.684,10.947a.632.632,0,1,0,0,1.263h.842a.632.632,0,1,0,0-1.263Zm3.368,0a.632.632,0,1,0,0,1.263h5.474a.632.632,0,1,0,0-1.263ZM5.684,13.474a.632.632,0,1,0,0,1.263h.842a.632.632,0,1,0,0-1.263Zm3.368,0a.632.632,0,1,0,0,1.263h5.474a.632.632,0,1,0,0-1.263Z" transform="translate(267.895 1571.895)" fill="#8a8f93"/>
  </g>
</svg>
