<svg xmlns="http://www.w3.org/2000/svg" xmlns:xlink="http://www.w3.org/1999/xlink" width="24" height="24" viewBox="0 0 24 24">
  <defs>
    <clipPath id="clip-path">
      <rect id="Rectangle_18516" data-name="Rectangle 18516" width="24" height="24" transform="translate(195 1909)" fill="#46494c" stroke="#707070" stroke-width="1"/>
    </clipPath>
  </defs>
  <g id="Mask_Group_456" data-name="Mask Group 456" transform="translate(-195 -1909)" clip-path="url(#clip-path)">
    <path id="icons8_rent" d="M13.043,0a.523.523,0,0,0-.214.046L1.351,5.681a.522.522,0,0,0-.308.476V7.983a.522.522,0,0,0,.738.475L13.043,2.869,24.307,8.458a.521.521,0,0,0,.737-.475V6.157a.52.52,0,0,0-.308-.476L13.257.046A.522.522,0,0,0,13.043,0Zm0,3.975L2.087,9.391V22.957a.523.523,0,0,0,.522.522h20.87A.523.523,0,0,0,24,22.957V9.391Zm-.506,4.373h1.043v1.09a2.943,2.943,0,0,1,2.943,2.786H15.313c-.031-.892-.84-1.691-2.254-1.691s-2.206.747-2.206,1.633c0,2.457,5.858.9,5.858,4.774,0,1.675-1.153,2.739-3.13,2.916V20.87H12.537v-1c-1.915-.157-3.151-1.268-3.161-2.833H10.6c.078.955,1.027,1.753,2.462,1.753s2.416-.7,2.416-1.748c0-2.713-5.849-.866-5.849-4.8,0-1.544,1.111-2.609,2.911-2.8Z" transform="translate(193.957 1909.261)" fill="#46494c"/>
  </g>
</svg>
