<svg xmlns="http://www.w3.org/2000/svg" xmlns:xlink="http://www.w3.org/1999/xlink" width="21" height="20" viewBox="0 0 21 20">
  <defs>
    <clipPath id="clip-path">
      <rect id="Rectangle_253" data-name="Rectangle 253" width="21" height="20" transform="translate(0.498 0)" fill="#fff"/>
    </clipPath>
  </defs>
  <g id="Mask_Group_9" data-name="Mask Group 9" transform="translate(-0.498)" clip-path="url(#clip-path)">
    <path id="icons8_restaurant" d="M4.962,1.538a.422.422,0,0,0-.414.342,38.593,38.593,0,0,0-.7,5.039,3.836,3.836,0,0,0,2.306,3.844v9.609a1.153,1.153,0,0,0,2.306,0V10.763a3.836,3.836,0,0,0,2.306-3.844,38.592,38.592,0,0,0-.7-5.039.422.422,0,0,0-.836.08V6.424a.5.5,0,0,1-.988.054L7.732,1.912a.421.421,0,0,0-.419-.374H7.3a.421.421,0,0,0-.419.375L6.371,6.48a.5.5,0,0,1-.988-.056V1.96A.422.422,0,0,0,4.962,1.538Zm12.721,0a.769.769,0,0,0-.649.357,14.876,14.876,0,0,0-2.426,7.33v1.522a2.087,2.087,0,0,0,.516,1.374l1.021.991v7.259a1.153,1.153,0,1,0,2.306,0V2.307A.769.769,0,0,0,17.683,1.538Z" transform="translate(-0.593 -1.509)" fill="#fff"/>
  </g>
</svg>
