<svg xmlns="http://www.w3.org/2000/svg" width="123.939" height="57.475" viewBox="0 0 123.939 57.475">
  <g id="Group_5179" data-name="Group 5179" transform="translate(656.688 875.983) rotate(180)" opacity="0.55">
    <g id="Group_5181" data-name="Group 5181">
      <path id="Path_232" data-name="Path 232" d="M540.255,1026.11v-9.342c-4.16-.019-7.505,2.093-7.505,4.672S536.109,1026.11,540.255,1026.11Z" transform="translate(0 -150.127)" fill="#bdbebf"/>
      <path id="Path_233" data-name="Path 233" d="M632.623,818.509H538.066a5.316,5.316,0,0,0-5.317,5.316v47.488c0-2.579,3.345-4.691,7.505-4.671h92.368a24.066,24.066,0,0,0,24.066-24.066h0A24.066,24.066,0,0,0,632.623,818.509Z" fill="#e6e6e6" opacity="0.45"/>
      <path id="Path_234" data-name="Path 234" d="M661.125,872.827H571.9a.838.838,0,0,1,0-1.677h89.221a19.1,19.1,0,0,0,0-38.208H571.9a.838.838,0,0,1,0-1.677h89.221a20.781,20.781,0,1,1,0,41.561Z" transform="translate(-29.015 -9.659)" fill="#bdbebf"/>
    </g>
  </g>
</svg>
