<svg xmlns="http://www.w3.org/2000/svg" xmlns:xlink="http://www.w3.org/1999/xlink" width="21" height="20" viewBox="0 0 21 20">
  <defs>
    <clipPath id="clip-path">
      <rect id="Rectangle_253" data-name="Rectangle 253" width="21" height="20" transform="translate(0.498 0.001)" fill="#e8f1ff"/>
    </clipPath>
  </defs>
  <g id="Mask_Group_4" data-name="Mask Group 4" transform="translate(-0.498 -0.001)" clip-path="url(#clip-path)">
    <path id="icons8_zoom_out" d="M9,2a7,7,0,1,0,4.571,12.273l.426.425v1.292l5.582,5.582a1.413,1.413,0,0,0,2-2l-5.582-5.582H14.7l-.425-.426A6.981,6.981,0,0,0,9,2ZM9,4A5,5,0,1,1,4,9,4.982,4.982,0,0,1,9,4ZM7,8a1,1,0,1,0,0,2h4a1,1,0,1,0,0-2Z" transform="translate(-1.438 -1.801)" fill="#e8f1ff"/>
  </g>
</svg>
