<svg xmlns="http://www.w3.org/2000/svg" xmlns:xlink="http://www.w3.org/1999/xlink" width="24" height="24" viewBox="0 0 24 24">
  <defs>
    <clipPath id="clip-path">
      <rect id="Rectangle_17931" data-name="Rectangle 17931" width="24" height="24" transform="translate(0.269 0)" fill="#808fa8" stroke="#707070" stroke-width="1"/>
    </clipPath>
  </defs>
  <g id="Mask_Group_279" data-name="Mask Group 279" transform="translate(-0.269)" clip-path="url(#clip-path)">
    <path id="icons8_Surface" d="M5.33,2.1a.938.938,0,0,0-.655.288L2.8,4.259a.938.938,0,0,0,0,1.326L4.675,7.461A.938.938,0,1,0,6,6.134L5.727,5.86h9.852l-.275.275A.938.938,0,1,0,16.63,7.461l1.876-1.876a.938.938,0,0,0,0-1.326L16.63,2.383A.938.938,0,1,0,15.3,3.709l.275.275H5.727L6,3.709A.938.938,0,0,0,5.33,2.1Zm17.5,6.891a.938.938,0,0,0-.65.275l-1.876,1.876a.938.938,0,1,0,1.326,1.326l.275-.275V22.665l-.275-.275a.938.938,0,1,0-1.326,1.326l1.876,1.876a.938.938,0,0,0,1.326,0l1.876-1.876a.938.938,0,1,0-1.326-1.326l-.275.275V12.188l.275.275a.938.938,0,1,0,1.326-1.326L23.507,9.261a.938.938,0,0,0-.676-.275ZM5.964,9.611A3.443,3.443,0,0,0,2.525,13.05V21.8a3.443,3.443,0,0,0,3.439,3.439h8.753A3.443,3.443,0,0,0,18.155,21.8V13.05a3.443,3.443,0,0,0-3.439-3.439Z" transform="translate(-2.045 -2.21)" fill="#808fa8"/>
  </g>
</svg>
