<svg xmlns="http://www.w3.org/2000/svg" xmlns:xlink="http://www.w3.org/1999/xlink" width="16" height="16" viewBox="0 0 16 16">
  <defs>
    <clipPath id="clip-path">
      <rect id="Rectangle_19614" data-name="Rectangle 19614" width="16" height="16" transform="translate(470 498)" fill="#9c9dfe" stroke="#707070" stroke-width="1"/>
    </clipPath>
  </defs>
  <g id="Mask_Group_719" data-name="Mask Group 719" transform="translate(-470 -498)" clip-path="url(#clip-path)">
    <path id="icons8_residence" d="M4.957,2.284a1.524,1.524,0,0,0-1.289.711L1.207,6.905a.461.461,0,0,0,.39.708H5.91L8.795,6.171a.76.76,0,0,1,.681,0l2.885,1.442h4.312a.462.462,0,0,0,.391-.708L14.6,2.995a1.526,1.526,0,0,0-1.289-.711ZM9.136,7.793a.753.753,0,0,0-.339.08l-2.2,1.1a1.529,1.529,0,0,1-.682.161H5.329v5.329H3.806V9.9a.761.761,0,1,0-1.523,0v4.568a1.522,1.522,0,0,0,1.523,1.523H7.613a.762.762,0,0,0,.761-.761V13.7a.761.761,0,1,1,1.523,0v1.523a.762.762,0,0,0,.761.761h3.806a1.522,1.522,0,0,0,1.523-1.523V9.9a.761.761,0,0,0-1.523,0v4.568H12.942V9.136h-.581a1.521,1.521,0,0,1-.681-.161l-2.2-1.1A.761.761,0,0,0,9.136,7.793Zm0,2.1a.761.761,0,1,1-.761.761A.762.762,0,0,1,9.136,9.9Z" transform="translate(468.865 496.865)" fill="#9c9dfe"/>
  </g>
</svg>
