<svg xmlns="http://www.w3.org/2000/svg" xmlns:xlink="http://www.w3.org/1999/xlink" width="72" height="72" viewBox="0 0 72 72">
  <defs>
    <clipPath id="clip-path">
      <rect id="Rectangle_19455" data-name="Rectangle 19455" width="72" height="72" transform="translate(1017 385)" fill="#fff"/>
    </clipPath>
    <linearGradient id="linear-gradient" x1="0.5" y1="-0.031" x2="0.5" y2="1.031" gradientUnits="objectBoundingBox">
      <stop offset="0" stop-color="#6dc7ff"/>
      <stop offset="1" stop-color="#e6abff"/>
    </linearGradient>
    <linearGradient id="linear-gradient-2" x1="0.5" y1="-0.005" x2="0.5" y2="1.018" gradientUnits="objectBoundingBox">
      <stop offset="0" stop-color="#1a6dff"/>
      <stop offset="1" stop-color="#c822ff"/>
    </linearGradient>
    <linearGradient id="linear-gradient-3" y1="-1.825" y2="2.881" xlink:href="#linear-gradient-2"/>
  </defs>
  <g id="Mask_Group_571" data-name="Mask Group 571" transform="translate(-1017 -385)" clip-path="url(#clip-path)">
    <g id="icons8_photo_gallery_2" transform="translate(1017 389.154)">
      <path id="Path_179" data-name="Path 179" d="M42.981,31.769a5.538,5.538,0,1,0,5.538,5.538A5.538,5.538,0,0,0,42.981,31.769Z" transform="translate(-0.058 -5.462)" fill="url(#linear-gradient)"/>
      <path id="Path_180" data-name="Path 180" d="M74.654,12.981H34.245a4.146,4.146,0,0,0-3.9-2.769H27.577a4.146,4.146,0,0,0-3.9,2.769H19.269a4.159,4.159,0,0,0-4.154,4.154v4.154H10.962a4.159,4.159,0,0,0-4.154,4.154V69.75A4.159,4.159,0,0,0,10.962,73.9H66.346A4.159,4.159,0,0,0,70.5,69.75V65.6h4.154a4.159,4.159,0,0,0,4.154-4.154V17.135A4.159,4.159,0,0,0,74.654,12.981ZM34.245,29.6H60.808a1.385,1.385,0,0,1,1.385,1.385V58.673a1.385,1.385,0,0,1-1.385,1.385H33.045A19.384,19.384,0,0,0,15.115,42.128V30.981A1.385,1.385,0,0,1,16.5,29.6h7.178a4.146,4.146,0,0,0,3.9,2.769h2.769A4.146,4.146,0,0,0,34.245,29.6ZM15.115,56.1a5.527,5.527,0,0,1,3.957,3.957H16.5a1.385,1.385,0,0,1-1.385-1.385Zm6.8,3.957a8.317,8.317,0,0,0-6.8-6.8v-2.8a11.088,11.088,0,0,1,9.6,9.6Zm5.592,0A13.869,13.869,0,0,0,15.115,47.667V44.9a16.623,16.623,0,0,1,15.16,15.16ZM17.885,17.135a1.385,1.385,0,0,1,1.385-1.385h4.154v5.538H17.885ZM67.731,69.75a1.385,1.385,0,0,1-1.385,1.385H10.962A1.385,1.385,0,0,1,9.577,69.75V25.442a1.385,1.385,0,0,1,1.385-1.385H23.423v2.769H16.5a4.159,4.159,0,0,0-4.154,4.154V58.673A4.159,4.159,0,0,0,16.5,62.827H60.808a4.159,4.159,0,0,0,4.154-4.154V30.981a4.159,4.159,0,0,0-4.154-4.154H34.5V24.058H66.346a1.385,1.385,0,0,1,1.385,1.385Zm8.308-8.308a1.385,1.385,0,0,1-1.385,1.385H70.5V25.442a4.159,4.159,0,0,0-4.154-4.154H34.115A2.76,2.76,0,0,0,31.731,19.9H28.962v2.769h2.769v5.538A1.385,1.385,0,0,1,30.346,29.6H27.577a1.385,1.385,0,0,1-1.385-1.385V15.75H74.654a1.385,1.385,0,0,1,1.385,1.385Z" transform="translate(-6.808 -10.212)" fill="url(#linear-gradient-2)"/>
      <path id="Path_181" data-name="Path 181" d="M43.231,44.481a6.923,6.923,0,1,0-6.923-6.923A6.931,6.931,0,0,0,43.231,44.481Zm0-11.077a4.154,4.154,0,1,1-4.154,4.154A4.159,4.159,0,0,1,43.231,33.4Z" transform="translate(-0.308 -5.712)" fill="url(#linear-gradient-3)"/>
    </g>
  </g>
</svg>
