<svg xmlns="http://www.w3.org/2000/svg" xmlns:xlink="http://www.w3.org/1999/xlink" width="16" height="16" viewBox="0 0 16 16">
  <defs>
    <clipPath id="clip-path">
      <rect id="Rectangle_19113" data-name="Rectangle 19113" width="16" height="16" transform="translate(629 1859)" fill="#4bbef7" stroke="#707070" stroke-width="1"/>
    </clipPath>
  </defs>
  <g id="Mask_Group_598" data-name="Mask Group 598" transform="translate(-629 -1859)" clip-path="url(#clip-path)">
    <path id="icons8_wi-fi_connected" d="M8.493,3.539A10.586,10.586,0,0,0,.986,6.647L2.361,8.023a9.143,9.143,0,0,1,12.264,0L16,6.649A10.58,10.58,0,0,0,8.493,3.539Zm0,3.539A7.748,7.748,0,0,0,3.36,9.022l1.5,1.5a5.646,5.646,0,0,1,7.263,0l1.5-1.5A7.741,7.741,0,0,0,8.493,7.077Zm0,3.539a4.223,4.223,0,0,0-2.624.915l2.624,2.624,2.624-2.624A4.223,4.223,0,0,0,8.493,10.616Zm7.492,1.33-3.038,3.038-1.623-1.623-1,1,2.624,2.624,4.039-4.039Z" transform="translate(628.014 1856.738)" fill="#4bbef7"/>
  </g>
</svg>
